<?xml version="1.0" encoding="UTF-8" standalone="no"?>
<svg width="20px" height="20px" viewBox="0 0 20 20" version="1.1" xmlns="http://www.w3.org/2000/svg" xmlns:xlink="http://www.w3.org/1999/xlink" xmlns:sketch="http://www.bohemiancoding.com/sketch/ns">
    <!-- Generator: Sketch 3.2.2 (9983) - http://www.bohemiancoding.com/sketch -->
    <title>strategy</title>
    <desc>Created with Sketch.</desc>
    <defs></defs>
    <g id="Icons" stroke="none" stroke-width="1" fill="none" fill-rule="evenodd" sketch:type="MSPage">
        <g id="strategy" sketch:type="MSArtboardGroup" fill="#404851">
            <path d="M8,17 C8,17.553 8.447,18 9,18 L11,18 C11.553,18 12,17.553 12,17 L12.5,17 C12.776,17 13,16.776 13,16.5 L13,15.5 C13,15.224 12.776,15 12.5,15 L7.5,15 C7.224,15 7,15.224 7,15.5 L7,16.5 C7,16.776 7.224,17 7.5,17 L8,17 Z M4,7 C4,8.539 4.584,9.937 5.537,11 C6.364,11.827 6.74,12.898 6.898,13.51 C6.967,13.777 7.224,14 7.5,14 L12.5,14 C12.776,14 13.033,13.777 13.102,13.51 C13.26,12.898 13.636,11.827 14.463,11 C15.416,9.937 16,8.539 16,7 C16,3.687 13.314,1 10,1 C6.686,1 4,3.687 4,7 Z M13.003,9.632 C12.264,10.387 11.792,11.256 11.495,12 L8.505,12 C8.208,11.256 7.736,10.387 6.997,9.632 C6.354,8.898 6,7.966 6,7 C6,4.795 7.795,3 10,3 C12.205,3 14,4.795 14,7 C14,7.966 13.647,8.898 13.003,9.632 L13.003,9.632 Z" id="Fill-1" sketch:type="MSShapeGroup"></path>
        </g>
    </g>
</svg>