<?xml version="1.0" encoding="utf-8"?>
<!-- Generator: Adobe Illustrator 18.1.1, SVG Export Plug-In . SVG Version: 6.00 Build 0)  -->
<!DOCTYPE svg PUBLIC "-//W3C//DTD SVG 1.1//EN" "http://www.w3.org/Graphics/SVG/1.1/DTD/svg11.dtd">
<svg version="1.1" id="Layer_1" xmlns="http://www.w3.org/2000/svg" xmlns:xlink="http://www.w3.org/1999/xlink" x="0px" y="0px"
	 viewBox="0 0 250 250" style="enable-background:new 0 0 250 250;" xml:space="preserve">
<style type="text/css">
	.st0{fill:url(#SVGID_1_);}
	.st1{fill:url(#SVGID_2_);}
	.st2{fill:url(#SVGID_3_);}
	.st3{fill:#543B35;}
	.st4{opacity:0;fill:#E39755;}
	.st5{fill:#EECCBB;}
	.st6{fill:url(#SVGID_4_);}
	.st7{fill:url(#SVGID_5_);}
	.st8{fill:#86622A;}
	.st9{fill:#3F3A39;}
	.st10{fill:#DEBAAA;}
	.st11{fill:#989695;}
	.st12{fill:#D0DBDB;}
	.st13{fill:#D7DEDE;}
	.st14{fill:#EACEBC;}
	.st15{fill:#5F4532;}
	.st16{fill:#E39755;}
	.st17{fill:#EEC9BD;}
	.st18{fill:#FDDDD1;}
	.st19{fill:#EFCCC2;}
	.st20{fill:#00AEEF;}
	.st21{fill:#CEB1A7;}
	.st22{fill:#DEC9C3;}
	.st23{fill:#FFFFFF;}
	.st24{fill:#D9BDB2;}
	.st25{fill:#EACECE;}
	.st26{fill:#DEC3BB;}
	.st27{fill:#5D6479;}
	.st28{fill:#574948;}
	.st29{fill:#3C2716;}
	.st30{fill:#25111A;}
	.st31{fill:#382221;}
	.st32{fill:#1D1215;}
	.st33{fill:#644832;}
	.st34{fill:none;}
	.st35{clip-path:url(#SVGID_7_);fill:#58595B;}
	.st36{clip-path:url(#SVGID_9_);}
	.st37{opacity:0.5;clip-path:url(#SVGID_11_);fill:#FFFFFF;}
	.st38{fill:#E9643F;}
	.st39{fill:#E3B38A;}
	.st40{opacity:0.25;}
	.st41{fill:#94BDC7;}
	.st42{fill:#FDCEA5;}
	.st43{fill:none;stroke:#676C76;stroke-width:2.1888;stroke-linecap:round;stroke-miterlimit:10;}
	.st44{fill:none;stroke:#644832;stroke-width:2.25;stroke-linecap:round;stroke-miterlimit:10;}
	.st45{opacity:0.15;fill:url(#SVGID_12_);}
	.st46{opacity:0.15;fill:url(#SVGID_13_);}
	.st47{fill:#699BD2;}
	.st48{fill:#D0958A;}
	.st49{clip-path:url(#SVGID_15_);}
	.st50{clip-path:url(#SVGID_17_);fill:#223C5D;}
	.st51{fill:#91A3CD;}
	.st52{fill:#95856E;}
	.st53{fill:#D9AAA0;}
	.st54{fill:none;stroke:#676C76;stroke-width:2;stroke-linecap:round;stroke-miterlimit:10;}
	.st55{fill:none;stroke:#95856E;stroke-width:3;stroke-linecap:round;stroke-miterlimit:10;}
	.st56{opacity:0.15;fill:url(#SVGID_18_);}
	.st57{opacity:0.15;fill:url(#SVGID_19_);}
	.st58{fill:#3C5C6B;}
	.st59{fill:#8C7B64;}
	.st60{fill:#722C22;}
	.st61{clip-path:url(#SVGID_21_);fill:#F79145;}
	.st62{fill:none;stroke:#AB9DA4;stroke-width:1.5;stroke-miterlimit:10;}
	.st63{fill:#CF8373;}
	.st64{opacity:0.15;fill:url(#SVGID_26_);}
	.st65{fill:#D79888;}
	.st66{fill:none;stroke:#DA6780;stroke-width:3;stroke-linecap:round;stroke-miterlimit:10;}
	.st67{fill:none;stroke:#722C22;stroke-width:1.5;stroke-linecap:round;stroke-miterlimit:10;}
	.st68{opacity:0.15;fill:url(#SVGID_27_);}
	.st69{fill:#281116;}
	.st70{clip-path:url(#SVGID_29_);fill:#F79145;}
	.st71{opacity:0.15;fill:url(#SVGID_34_);}
	.st72{opacity:0.15;fill:url(#SVGID_35_);}
	.st73{opacity:0.5;fill:#CF8373;}
	.st74{fill:none;stroke:#77425B;stroke-width:3;stroke-linecap:round;stroke-miterlimit:10;}
	.st75{fill:none;stroke:#F48A92;stroke-width:3;stroke-linecap:round;stroke-miterlimit:10;}
	.st76{fill:none;stroke:#A56072;stroke-width:3;stroke-linecap:round;stroke-miterlimit:10;}
	.st77{fill:#32393C;}
	.st78{fill:#662D91;}
	.st79{opacity:0.5;fill:#D1D3D4;}
	.st80{fill:#58595B;}
	.st81{opacity:0.3;fill:#FFFFFF;}
	.st82{opacity:0.5;}
	.st83{fill:#B97D7C;}
	.st84{fill:none;stroke:#9B6E6B;stroke-width:3;stroke-linecap:round;stroke-miterlimit:10;}
	.st85{fill:#3B354D;}
	.st86{fill:#EFCFC4;}
	.st87{fill:#7D4132;}
	.st88{fill:#845046;}
	.st89{fill:#D1B5AC;}
	.st90{fill:#50271E;}
	.st91{fill:#46353B;}
	.st92{fill:none;stroke:#B07685;stroke-width:3;stroke-linecap:round;stroke-miterlimit:10;}
	.st93{fill:#7B6776;}
	.st94{fill:#726370;}
	.st95{fill:#6D5669;}
	.st96{fill:#C1A09A;}
	.st97{fill:#4F341C;}
	.st98{fill:#54402F;}
	.st99{fill:#D8BFBF;}
	.st100{opacity:0.5;fill:#EACECE;}
	.st101{fill:#EC008C;}
	.st102{fill:none;stroke:#9B6E6B;stroke-miterlimit:10;}
	.st103{opacity:0.5;fill:#00AEEF;}
	.st104{fill:#522C1D;}
	.st105{fill:#5B3222;}
	.st106{opacity:0.5;fill:#EC008C;}
	.st107{opacity:0.5;fill:#50271E;}
	.st108{fill:#797E95;}
	.st109{fill:#A56072;}
	.st110{fill:#77425B;}
	.st111{fill:#D3B9B2;}
	.st112{opacity:0.34;fill:#1B1630;}
	.st113{opacity:0.5;fill:#EEC9BD;}
	.st114{opacity:0.5;fill:#E39755;}
	.st115{opacity:0.1;fill:#E39755;}
	.st116{fill:#5C4B3D;}
	.st117{fill:#5F4D41;}
	.st118{fill:url(#SVGID_36_);}
	.st119{fill:url(#SVGID_37_);}
	.st120{fill:#DFC6B3;}
	.st121{fill:#393653;}
	.st122{fill:#251E26;}
	.st123{fill:#D3B2A5;}
	.st124{fill:#E4BFAD;}
	.st125{fill:#423D40;}
	.st126{fill:#5D4939;}
	.st127{fill:#332D26;}
	.st128{fill:#C5A79B;}
	.st129{fill:#EFD0C7;}
	.st130{fill:none;stroke:#C2757D;stroke-width:3;stroke-linecap:round;stroke-miterlimit:10;}
	.st131{fill:#614743;}
	.st132{fill:#735950;}
	.st133{fill:#E0C4BD;}
	.st134{fill:url(#SVGID_40_);}
	.st135{fill:#EDC9C5;}
	.st136{fill:#FCD7D2;}
	.st137{fill:#DDBAB8;}
	.st138{fill:#49302B;}
	.st139{fill:#5B413A;}
	.st140{fill:url(#SVGID_41_);}
	.st141{fill:url(#SVGID_42_);}
	.st142{fill:#402910;}
	.st143{fill:#725E51;}
	.st144{fill:url(#SVGID_43_);}
	.st145{fill:url(#SVGID_44_);}
	.st146{fill:#F0D6BF;}
	.st147{fill:none;stroke:#B7677E;stroke-width:3;stroke-linecap:round;stroke-miterlimit:10;}
	.st148{fill:#D1B8A7;}
	.st149{fill:url(#SVGID_45_);}
	.st150{fill:#452911;}
	.st151{fill:url(#SVGID_46_);}
	.st152{fill:url(#SVGID_47_);}
	.st153{fill:url(#SVGID_48_);}
	.st154{fill:url(#SVGID_49_);}
	.st155{fill:url(#SVGID_50_);}
	.st156{fill:url(#SVGID_51_);}
	.st157{fill:url(#SVGID_52_);}
	.st158{fill:url(#SVGID_53_);}
	.st159{fill:url(#SVGID_54_);}
	.st160{fill:url(#SVGID_55_);}
	.st161{fill:url(#SVGID_56_);}
	.st162{fill:url(#SVGID_57_);}
	.st163{fill:url(#SVGID_58_);}
	.st164{fill:url(#SVGID_59_);}
	.st165{fill:url(#SVGID_60_);}
	.st166{fill:url(#SVGID_61_);}
	.st167{fill:#E7F3F1;}
	.st168{fill:#AD9F9C;}
	.st169{fill:#D3DDDD;}
	.st170{fill:#F2F9F8;}
	.st171{fill:#D4E8E7;}
	.st172{fill:#4B3015;}
	.st173{fill:url(#SVGID_62_);}
	.st174{fill:#DABEAD;}
	.st175{fill:#EACDBA;}
	.st176{fill:#66463D;}
	.st177{fill:#3D4559;}
	.st178{fill:none;stroke:#8C5B5F;stroke-width:3;stroke-linecap:round;stroke-miterlimit:10;}
	.st179{fill:#3B180E;}
	.st180{fill:#DBBAB2;}
	.st181{fill:#EAC7BC;}
	.st182{fill:none;stroke:#B97D7C;stroke-width:3;stroke-linecap:round;stroke-miterlimit:10;}
	.st183{fill:#CEAFAA;}
	.st184{fill:#E1BFB5;}
	.st185{fill:#D3B1A9;}
	.st186{fill:#C5A39C;}
	.st187{fill:#5B2511;}
	.st188{fill:url(#SVGID_63_);}
	.st189{fill:#CCB1A3;}
	.st190{fill:url(#SVGID_64_);}
	.st191{fill:url(#SVGID_65_);}
	.st192{fill:#8C5B5F;}
	.st193{fill:url(#SVGID_66_);}
	.st194{fill:#C2757D;}
	.st195{fill:#657577;}
	.st196{fill:#BC9F96;}
	.st197{fill:#F48A92;}
	.st198{fill:#B7677E;}
	.st199{fill:#623E17;}
	.st200{fill:#311D0F;}
	.st201{fill:#956828;}
	.st202{fill:#D89B51;}
	.st203{fill:url(#SVGID_67_);}
	.st204{fill:url(#SVGID_68_);}
	.st205{fill:url(#SVGID_69_);}
	.st206{fill:url(#SVGID_70_);}
	.st207{fill:url(#SVGID_71_);}
	.st208{fill:url(#SVGID_72_);}
	.st209{fill:url(#SVGID_73_);}
	.st210{fill:url(#SVGID_74_);}
	.st211{fill:url(#SVGID_75_);}
	.st212{fill:url(#SVGID_76_);}
	.st213{fill:url(#SVGID_77_);}
	.st214{fill:url(#SVGID_78_);}
	.st215{fill:url(#SVGID_79_);}
	.st216{fill:url(#SVGID_80_);}
	.st217{opacity:0.5;fill:#C8D5E9;}
	.st218{opacity:0.25;fill:#FFFFFF;}
</style>
<g>
	<path class="st3" d="M188.2,62.6c-5-8.9-11.6-16.6-20.3-22.1c-3.8-2.4-7.4-3.6-11.9-3.2c-1.3,0.1-6.7,0.5-7.6,2.4
		c-4.1-5.5-15.6-16.2-40.8-9.2c-14.1,3.9-27.4,12.3-36.6,23.6c-4.7,5.8-8.5,16.5-10.3,23.7c-1.1,4.3-0.9,8.7-1.4,13
		c-0.8,7.4-6.5,13.9-8,21.3c-1.6,7.9-1.4,15.9,0.1,23.7c1.4,7.4,6.5,13.4,10.5,19.7c3.1,4.9,6.7,10,7.2,16c0.5,5.8-2.4,9.5-5,14.3
		c-3.9,7.2-0.5,17.1,7.3,20.2c-1.2-2.1-1.9-4.6-2-7.1c0-0.3,0.9-6.4,1.5-5.9c0.3,0.3,0.7,0.6,1.1,0.9c1.5,1.1,3.1,1.9,4.6,3
		c1.1,0.9,2.3,2.3,1.9,3.8c-0.2,0.8-2.8,4-3.4,4.5c-2.9,3-4.1,6.4-1.5,11.1c-1.5-2.7,3.3-6.3,5.5-7.5c1.1-0.6,2.4-1.1,3.5-1.7
		c-2.8,4.3-2.1,9.2,6.1,12.2c1.3,0.5,2.3,0.7,3.9,1.1c-0.4-0.5-1.1-1-1.6-1.5c-0.6-0.6-1.1-1.1-1.5-1.7c-0.8-1.2-1.3-2.4-1.1-3.6
		c0.4-2.2,3.1-4.1,5.7-5.9c1.6-1,2.8-2.2,3.7-3.4c1.6,1.7,2.9,3.5,2.8,5.4c0,1.4-0.8,2.6-1.8,3.8c-0.5,0.6-1.2,1.1-1.8,1.7
		c-0.6,0.5-1.4,0.9-1.9,1.4c1.7-0.3,2.8-0.4,4.1-0.7c10-2.5,10.1-7.9,9.4-15.6c-0.3-3.4,34.7-1.7,34.5,1c-0.4,6.6-0.5,12.1,9.5,14.6
		c1.3,0.3,2.4,0.4,4.1,0.7c-0.5-0.5-1.3-1-1.9-1.4c-0.7-0.5-1.3-1.1-1.8-1.7c-1.1-1.2-1.8-2.4-1.8-3.8c-0.1-1.9,1.2-3.7,2.8-5.4
		c0.9,1.2,2.1,2.3,3.7,3.4c2.7,1.8,5.3,3.6,5.7,5.9c0.2,1.2-0.3,2.5-1.1,3.6c-0.4,0.6-0.9,1.2-1.5,1.7c-0.5,0.5-1.2,1-1.6,1.5
		c1.6-0.4,2.7-0.7,3.9-1.1c8.2-3,9-7.9,6.1-12.2c1.2,0.6,2.4,1.1,3.5,1.7c2.2,1.2,7,4.8,5.5,7.5c2.6-4.7,1.4-8.1-1.5-11.1
		c-0.6-0.5-3.2-3.7-3.4-4.5c-0.4-1.5,0.8-3,1.9-3.8c1.5-1.1,3.1-1.9,4.6-3c0.4-0.3,0.8-0.6,1.1-0.9c0.4,0.6,0.7,1.2,0.9,1.9
		c0.7,1.9,0.7,3.9,0.3,5.8c-0.2,1-0.5,2-0.8,2.9c-0.3,0.9-0.8,1.7-1,2.7c1.4-1,2.4-1.5,3.4-2.4c4.9-4.4,6.1-10.7,3.3-16.6
		c-3-6.5-8.1-9.7-5.2-17.7c0.1-0.2,0.1-0.3,0.2-0.5c1.6-4,4.3-7.4,6.7-11c6.6-10.3,9.9-22.4,10.9-34.6
		C201.4,103,198.6,80.9,188.2,62.6z"/>
	<g>
		<path class="st135" d="M72.7,126.9c0,0-3.9-4-6.9-3.1c-3,0.8-5.5,4.1-4.7,9.5c0,0,1.8,9.1,5.5,13.8c3.4,4.3,5.2,7.2,6.6,9.5
			s2.5,4.5,6.1,4.5s4.9-6.9,4.9-6.9L72.7,126.9z"/>
		<path class="st135" d="M181.9,126.9c0,0,3.9-4,6.9-3.1c3,0.8,5.5,4.1,4.7,9.5c0,0-1.8,9.1-5.5,13.8c-3.4,4.3-5.2,7.2-6.6,9.5
			c-1.4,2.3-2.5,4.5-6.1,4.5s-4.9-6.9-4.9-6.9L181.9,126.9z"/>
	</g>
	<path class="st136" d="M183.5,115.3c1.2-12.2,0.4-25.2-2.9-36.1c-4-13.2-13.1-24.6-24.9-31.7c-8.6-5.2-18.6-7.9-28.7-7.9
		c-28.3,0-53.6,22.5-55.8,51.1c-1.4,17.2-0.6,36,4.5,52.7c2.2,7.1,2.3,14.7,4.6,21.7c1.9,5.7,5.3,11.1,8.7,16.1
		c4.3,6.3,9.4,12.1,15.3,16.9c6.3,5.1,13.9,9.2,22.4,9.7c8.9,0.5,16.5-4.4,23-9.7c5.9-4.8,11-10.6,15.3-16.9
		c3.4-4.9,6.9-10.4,8.7-16.1c2.3-7.1,2.4-14.6,4.6-21.7c0.8-2.7,1.7-7.5,2.6-12.5C182.1,126,183,120.7,183.5,115.3z"/>
	<path class="st75" d="M144.6,172c-5,3.1-11.1,4.9-17.2,4.9c-6.2,0-12.3-1.7-17.3-4.7"/>
	<g>
		<path class="st137" d="M138.9,151.2c0.1,0.4,0.1,0.8,0.1,1.2c0,0.4-0.1,2.1-1.6,3c-1.9,1.1-3,0.3-4.6,0.8c-1.4,0.4-1.8,1.6-3,2.3
			c-1.4,0.8-3.2,0.8-4.7,0.2c-1.4-0.6-1.9-2-3.4-2.5c-1.5-0.5-2.7,0.4-4.6-0.8c-1.5-0.9-1.6-2.7-1.6-3c0-0.4,0-0.8,0.1-1.2
			c-0.5,0.9-0.7,1.9-0.7,3.1c0,0.4,0.1,2.3,1.7,3.2c2,1.2,3.2,0.3,4.8,0.8c1.5,0.5,2.1,2,3.5,2.6c1.5,0.7,3.5,0.7,4.9-0.2
			c1.2-0.7,1.7-2,3.2-2.4c1.6-0.5,2.8,0.4,4.8-0.8c1.6-0.9,1.7-2.8,1.7-3.2C139.6,153.1,139.4,152.2,138.9,151.2z"/>
	</g>
	<g>
		<path class="st138" d="M139.8,109.2c-0.2-0.7,0.5-1.5,1.2-2.1c1.4-1.1,3.2-1.5,4.9-1.5c5.7-0.2,12.1-1.6,15.8-1
			c3.7,0.6,8.8,4.5,9.7,8.1c0,0-4.8-4.7-9.5-4.8c-3-0.1-5,0.5-8,1c-3.4,0.6-6.7,1-10.1,1.4c-1.1,0.1-2.2,0.2-3.1-0.2
			C140.2,109.8,139.9,109.6,139.8,109.2z"/>
		<path class="st138" d="M114.7,109.2c0.2-0.7-0.5-1.5-1.2-2.1c-1.4-1.1-3.2-1.5-4.9-1.5c-5.7-0.2-12.1-1.6-15.8-1
			c-3.7,0.6-8.8,4.5-9.7,8.1c0,0,4.8-4.7,9.5-4.8c3-0.1,5,0.5,8,1c3.4,0.6,6.7,1,10.1,1.4c1.1,0.1,2.2,0.2,3.1-0.2
			C114.4,109.8,114.6,109.6,114.7,109.2z"/>
	</g>
	<g>
		<g>
			<circle class="st139" cx="152.6" cy="127.5" r="5.6"/>
		</g>
		<g>
			<circle class="st139" cx="101.9" cy="128.1" r="5.6"/>
		</g>
	</g>
	<path class="st3" d="M181.4,73.2c-8.7-16-23.8-28.2-43.3-33c-9-2.2-18.3-3.3-27.4-1.9c-15.9,2.3-28.5,12.4-36.6,25.9
		c-7.3,12.3-9.9,26.4-8.7,40.4c0.5,5.4,1.6,14.2,4.1,23.8c-1.7,1.5-3.8,2.6-6.5,3.3c2.5,0.5,5,0.4,7.3-0.1
		c1.5,5.2,3.4,10.5,5.9,15.6c-0.7-6.6-1-12.3-1-17.3c1.4-0.7,2.6-1.5,3.5-2.3c8.9-7.9,17.4-17,23.2-33.5
		c4.3-12.5,11.7-24.8,22.2-31.3c6.6-4,13.5-4,20.2,0.7c11.5-5.2,21.7,11.7,23.6,16.6c3,7.6,2.5,14.1,4.8,21.9
		c1.4,4.8,3.8,9.1,5.6,13.8c3,7.7,1.9,14.1,0.5,22.1c-0.4,2.1-1.3,7.3-1.9,10.1c9-13.2,11.4-24.1,12.4-32.9
		C191,99.7,188,85.3,181.4,73.2z"/>
</g>
</svg>
