<?xml version="1.0" encoding="utf-8"?>
<!-- Generator: Adobe Illustrator 18.1.1, SVG Export Plug-In . SVG Version: 6.00 Build 0)  -->
<!DOCTYPE svg PUBLIC "-//W3C//DTD SVG 1.1//EN" "http://www.w3.org/Graphics/SVG/1.1/DTD/svg11.dtd">
<svg version="1.1" id="Layer_1" xmlns="http://www.w3.org/2000/svg" xmlns:xlink="http://www.w3.org/1999/xlink" x="0px" y="0px"
	 viewBox="0 0 250 250" style="enable-background:new 0 0 250 250;" xml:space="preserve">
<style type="text/css">
	.st0{fill:url(#SVGID_1_);}
	.st1{fill:url(#SVGID_2_);}
	.st2{fill:url(#SVGID_3_);}
	.st3{fill:#543B35;}
	.st4{opacity:0;fill:#E39755;}
	.st5{fill:#EECCBB;}
	.st6{fill:url(#SVGID_4_);}
	.st7{fill:url(#SVGID_5_);}
	.st8{fill:#86622A;}
	.st9{fill:#3F3A39;}
	.st10{fill:#DEBAAA;}
	.st11{fill:#989695;}
	.st12{fill:#D0DBDB;}
	.st13{fill:#D7DEDE;}
	.st14{fill:#EACEBC;}
	.st15{fill:#5F4532;}
	.st16{fill:#E39755;}
	.st17{fill:#EEC9BD;}
	.st18{fill:#FDDDD1;}
	.st19{fill:#EFCCC2;}
	.st20{fill:#00AEEF;}
	.st21{fill:#CEB1A7;}
	.st22{fill:#DEC9C3;}
	.st23{fill:#FFFFFF;}
	.st24{fill:#D9BDB2;}
	.st25{fill:#EACECE;}
	.st26{fill:#DEC3BB;}
	.st27{fill:#5D6479;}
	.st28{fill:#574948;}
	.st29{fill:#3C2716;}
	.st30{fill:#25111A;}
	.st31{fill:#382221;}
	.st32{fill:#1D1215;}
	.st33{fill:#644832;}
	.st34{fill:none;}
	.st35{clip-path:url(#SVGID_7_);fill:#58595B;}
	.st36{clip-path:url(#SVGID_9_);}
	.st37{opacity:0.5;clip-path:url(#SVGID_11_);fill:#FFFFFF;}
	.st38{fill:#E9643F;}
	.st39{fill:#E3B38A;}
	.st40{opacity:0.25;}
	.st41{fill:#94BDC7;}
	.st42{fill:#FDCEA5;}
	.st43{fill:none;stroke:#676C76;stroke-width:2.1888;stroke-linecap:round;stroke-miterlimit:10;}
	.st44{fill:none;stroke:#644832;stroke-width:2.25;stroke-linecap:round;stroke-miterlimit:10;}
	.st45{opacity:0.15;fill:url(#SVGID_12_);}
	.st46{opacity:0.15;fill:url(#SVGID_13_);}
	.st47{fill:#699BD2;}
	.st48{fill:#D0958A;}
	.st49{clip-path:url(#SVGID_15_);}
	.st50{clip-path:url(#SVGID_17_);fill:#223C5D;}
	.st51{fill:#91A3CD;}
	.st52{fill:#95856E;}
	.st53{fill:#D9AAA0;}
	.st54{fill:none;stroke:#676C76;stroke-width:2;stroke-linecap:round;stroke-miterlimit:10;}
	.st55{fill:none;stroke:#95856E;stroke-width:3;stroke-linecap:round;stroke-miterlimit:10;}
	.st56{opacity:0.15;fill:url(#SVGID_18_);}
	.st57{opacity:0.15;fill:url(#SVGID_19_);}
	.st58{fill:#3C5C6B;}
	.st59{fill:#8C7B64;}
	.st60{fill:#722C22;}
	.st61{clip-path:url(#SVGID_21_);fill:#F79145;}
	.st62{fill:none;stroke:#AB9DA4;stroke-width:1.5;stroke-miterlimit:10;}
	.st63{fill:#CF8373;}
	.st64{opacity:0.15;fill:url(#SVGID_26_);}
	.st65{fill:#D79888;}
	.st66{fill:none;stroke:#DA6780;stroke-width:3;stroke-linecap:round;stroke-miterlimit:10;}
	.st67{fill:none;stroke:#722C22;stroke-width:1.5;stroke-linecap:round;stroke-miterlimit:10;}
	.st68{opacity:0.15;fill:url(#SVGID_27_);}
	.st69{fill:#281116;}
	.st70{clip-path:url(#SVGID_29_);fill:#F79145;}
	.st71{opacity:0.15;fill:url(#SVGID_34_);}
	.st72{opacity:0.15;fill:url(#SVGID_35_);}
	.st73{opacity:0.5;fill:#CF8373;}
	.st74{fill:none;stroke:#77425B;stroke-width:3;stroke-linecap:round;stroke-miterlimit:10;}
	.st75{fill:none;stroke:#F48A92;stroke-width:3;stroke-linecap:round;stroke-miterlimit:10;}
	.st76{fill:none;stroke:#A56072;stroke-width:3;stroke-linecap:round;stroke-miterlimit:10;}
	.st77{fill:#32393C;}
	.st78{fill:#662D91;}
	.st79{opacity:0.5;fill:#D1D3D4;}
	.st80{fill:#58595B;}
	.st81{opacity:0.3;fill:#FFFFFF;}
	.st82{opacity:0.5;}
	.st83{fill:#B97D7C;}
	.st84{fill:none;stroke:#9B6E6B;stroke-width:3;stroke-linecap:round;stroke-miterlimit:10;}
	.st85{fill:#3B354D;}
	.st86{fill:#EFCFC4;}
	.st87{fill:#7D4132;}
	.st88{fill:#845046;}
	.st89{fill:#D1B5AC;}
	.st90{fill:#50271E;}
	.st91{fill:#46353B;}
	.st92{fill:none;stroke:#B07685;stroke-width:3;stroke-linecap:round;stroke-miterlimit:10;}
	.st93{fill:#7B6776;}
	.st94{fill:#726370;}
	.st95{fill:#6D5669;}
	.st96{fill:#C1A09A;}
	.st97{fill:#4F341C;}
	.st98{fill:#54402F;}
	.st99{fill:#D8BFBF;}
	.st100{opacity:0.5;fill:#EACECE;}
	.st101{fill:#EC008C;}
	.st102{fill:none;stroke:#9B6E6B;stroke-miterlimit:10;}
	.st103{opacity:0.5;fill:#00AEEF;}
	.st104{fill:#522C1D;}
	.st105{fill:#5B3222;}
	.st106{opacity:0.5;fill:#EC008C;}
	.st107{opacity:0.5;fill:#50271E;}
	.st108{fill:#797E95;}
	.st109{fill:#A56072;}
	.st110{fill:#77425B;}
	.st111{fill:#D3B9B2;}
	.st112{opacity:0.34;fill:#1B1630;}
	.st113{opacity:0.5;fill:#EEC9BD;}
	.st114{opacity:0.5;fill:#E39755;}
	.st115{opacity:0.1;fill:#E39755;}
	.st116{fill:#5C4B3D;}
	.st117{fill:#5F4D41;}
	.st118{fill:url(#SVGID_36_);}
	.st119{fill:url(#SVGID_37_);}
	.st120{fill:#DFC6B3;}
	.st121{fill:#393653;}
	.st122{fill:#251E26;}
	.st123{fill:#D3B2A5;}
	.st124{fill:#E4BFAD;}
	.st125{fill:#423D40;}
	.st126{fill:#5D4939;}
	.st127{fill:#332D26;}
	.st128{fill:#C5A79B;}
	.st129{fill:#EFD0C7;}
	.st130{fill:none;stroke:#C2757D;stroke-width:3;stroke-linecap:round;stroke-miterlimit:10;}
	.st131{fill:#614743;}
	.st132{fill:#735950;}
	.st133{fill:#E0C4BD;}
	.st134{fill:url(#SVGID_40_);}
	.st135{fill:#EDC9C5;}
	.st136{fill:#FCD7D2;}
	.st137{fill:#DDBAB8;}
	.st138{fill:#49302B;}
	.st139{fill:#5B413A;}
	.st140{fill:url(#SVGID_41_);}
	.st141{fill:url(#SVGID_42_);}
	.st142{fill:#402910;}
	.st143{fill:#725E51;}
	.st144{fill:url(#SVGID_43_);}
	.st145{fill:url(#SVGID_44_);}
	.st146{fill:#F0D6BF;}
	.st147{fill:none;stroke:#B7677E;stroke-width:3;stroke-linecap:round;stroke-miterlimit:10;}
	.st148{fill:#D1B8A7;}
	.st149{fill:url(#SVGID_45_);}
	.st150{fill:#452911;}
	.st151{fill:url(#SVGID_46_);}
	.st152{fill:url(#SVGID_47_);}
	.st153{fill:url(#SVGID_48_);}
	.st154{fill:url(#SVGID_49_);}
	.st155{fill:url(#SVGID_50_);}
	.st156{fill:url(#SVGID_51_);}
	.st157{fill:url(#SVGID_52_);}
	.st158{fill:url(#SVGID_53_);}
	.st159{fill:url(#SVGID_54_);}
	.st160{fill:url(#SVGID_55_);}
	.st161{fill:url(#SVGID_56_);}
	.st162{fill:url(#SVGID_57_);}
	.st163{fill:url(#SVGID_58_);}
	.st164{fill:url(#SVGID_59_);}
	.st165{fill:url(#SVGID_60_);}
	.st166{fill:url(#SVGID_61_);}
	.st167{fill:#E7F3F1;}
	.st168{fill:#AD9F9C;}
	.st169{fill:#D3DDDD;}
	.st170{fill:#F2F9F8;}
	.st171{fill:#D4E8E7;}
	.st172{fill:#4B3015;}
	.st173{fill:url(#SVGID_62_);}
	.st174{fill:#DABEAD;}
	.st175{fill:#EACDBA;}
	.st176{fill:#66463D;}
	.st177{fill:#3D4559;}
	.st178{fill:none;stroke:#8C5B5F;stroke-width:3;stroke-linecap:round;stroke-miterlimit:10;}
	.st179{fill:#3B180E;}
	.st180{fill:#DBBAB2;}
	.st181{fill:#EAC7BC;}
	.st182{fill:none;stroke:#B97D7C;stroke-width:3;stroke-linecap:round;stroke-miterlimit:10;}
	.st183{fill:#CEAFAA;}
	.st184{fill:#E1BFB5;}
	.st185{fill:#D3B1A9;}
	.st186{fill:#C5A39C;}
	.st187{fill:#5B2511;}
	.st188{fill:url(#SVGID_63_);}
	.st189{fill:#CCB1A3;}
	.st190{fill:url(#SVGID_64_);}
	.st191{fill:url(#SVGID_65_);}
	.st192{fill:#8C5B5F;}
	.st193{fill:url(#SVGID_66_);}
	.st194{fill:#C2757D;}
	.st195{fill:#657577;}
	.st196{fill:#BC9F96;}
	.st197{fill:#F48A92;}
	.st198{fill:#B7677E;}
	.st199{fill:#623E17;}
	.st200{fill:#311D0F;}
	.st201{fill:#956828;}
	.st202{fill:#D89B51;}
	.st203{fill:url(#SVGID_67_);}
	.st204{fill:url(#SVGID_68_);}
	.st205{fill:url(#SVGID_69_);}
	.st206{fill:url(#SVGID_70_);}
	.st207{fill:url(#SVGID_71_);}
	.st208{fill:url(#SVGID_72_);}
	.st209{fill:url(#SVGID_73_);}
	.st210{fill:url(#SVGID_74_);}
	.st211{fill:url(#SVGID_75_);}
	.st212{fill:url(#SVGID_76_);}
	.st213{fill:url(#SVGID_77_);}
	.st214{fill:url(#SVGID_78_);}
	.st215{fill:url(#SVGID_79_);}
	.st216{fill:url(#SVGID_80_);}
	.st217{opacity:0.5;fill:#C8D5E9;}
	.st218{opacity:0.25;fill:#FFFFFF;}
</style>
<g>
	<path class="st124" d="M134,226.2h-15c-30.9,0-49-46.9-49-77.8V89.9c0-20.3,16.5-36.8,36.8-36.8h38.4c20.3,0,36.8,16.5,36.8,36.8
		v58.4C182,179.3,164.9,226.2,134,226.2z"/>
	<path class="st178" d="M140.7,182.8c-4.2,2.6-9.4,4-14.7,4s-10.5-1.4-14.7-3.9"/>
	<g>
		<path class="st123" d="M180.3,130.6c0,0,1-7,4-7.8c2.9-0.8,8,0.3,8.7,6c0.7,5.6-1.1,15.5-4.1,21.9c-1.5,3.3-3.8,9.5-7.3,11.2
			c-3,1.5-2.8-6.2-2.8-7.8L180.3,130.6z"/>
		<path class="st123" d="M71.7,130.6c0,0-1-7-4-7.8c-2.9-0.8-8,0.3-8.7,6c-0.7,5.6,1.1,15.5,4.1,21.9c1.5,3.3,3.8,9.5,7.3,11.2
			c3,1.5,2.8-6.2,2.8-7.8L71.7,130.6z"/>
	</g>
	<g>
		<circle class="st177" cx="148.8" cy="133.7" r="5.6"/>
		<circle class="st177" cx="103.2" cy="133.7" r="5.6"/>
	</g>
	<g>
		<path class="st126" d="M138.1,121.4c-0.7-0.7-0.5-3.5-0.3-4.3c0.5-1.6,1.9-2.4,3.5-2.5c5.1-0.5,17.3-0.2,21.5,1.3
			c1.4,0.5,6.8,6.9,4.7,8.4c-1.5,1-4-1-5.3-1.6c-3.5-1.8-7.7-1.8-11.6-2c-4.5-0.2-6.1-0.1-10.6,0.8c-0.5,0.1-1,0.2-1.5,0
			C138.3,121.5,138.2,121.5,138.1,121.4z"/>
		<path class="st126" d="M113.9,121.4c0.7-0.7,0.5-3.5,0.3-4.3c-0.5-1.6-1.9-2.4-3.5-2.5c-5.1-0.5-17.3-0.2-21.5,1.3
			c-1.4,0.5-6.8,6.9-4.7,8.4c1.5,1,4-1,5.3-1.6c3.5-1.8,7.7-1.8,11.6-2c4.5-0.2,6.1-0.1,10.6,0.8c0.5,0.1,1,0.2,1.5,0
			C113.7,121.5,113.8,121.5,113.9,121.4z"/>
	</g>
	<linearGradient id="SVGID_1_" gradientUnits="userSpaceOnUse" x1="128.5908" y1="233.4278" x2="128.5908" y2="15.6429">
		<stop  offset="0" style="stop-color:#5D4939"/>
		<stop  offset="0.5" style="stop-color:#4D3F33"/>
		<stop  offset="0.5517" style="stop-color:#473B30"/>
		<stop  offset="0.6812" style="stop-color:#3C332B"/>
		<stop  offset="0.8232" style="stop-color:#352F27"/>
		<stop  offset="1" style="stop-color:#332D26"/>
	</linearGradient>
	<path class="st0" d="M189.8,67.1c-3.1,0.6-9.6-8.1-7.3-7c2.3,1.1,4.2-0.9,4.2-0.9c-2.2,0.1-8.5-4.2-6.2-5.3
		c2.8-1.3,4.4-4.7,4.4-4.7s-6.8,1-8.3-1.1c0.3-0.6,1.4-0.4,2.9-3c-5.7,0.7-9.9,0.1-12-0.7c-0.5-0.3-1.1-0.6-1.7-0.9
		c1.1-2.9,0.6-6.6-0.4-9.4c0,0-1.1,2.5-3.8,3c0,0,0.5-4.1-5.7-9.4c0,0,1.6,4.5-0.4,5.7c-2,1.2-8.1-6.2-6-10.2
		c-1.5,2.7-3.1,5-2.1,8.3c-0.9-2.8-3.8-4.5-6.5-5.3c-1.4-0.4-2.8-0.7-4.3-0.6c-0.4,0-3.5,0.7-3.6,0.5c0,0-4.8-5.2-12-4.1
		c-7.2,1.1-11.7-6.3-11.7-6.3s0.9,7.8,3.6,10c-2.4-1.4-5.5-1.7-8.2-1.7c-3.1,0-6.1,0.8-9.3,0.1c-1.8-0.4-3.4-1.2-5-2.1
		c-0.4-0.2-3.9-2-3.9-2.3c0,7.5,2,16.7,6.7,17.5c0,0-6.8-1.4-10.1,2.2c-3.9,3.7-10-0.8-10-0.8c1.2,4.7,4.4,8.1,5.9,9.2
		c0.1,0.1,0.2,0.1,0.3,0.2c-1.6,1.3-3,2.7-4.3,4.3C65.9,63.8,67.5,80,67.4,94c0,17.5,2.5,34.9,2.6,52.3c0.2,16.5,2.5,33.3,8.6,48.7
		c6.4,16,19.6,34.2,37.6,37.6c6.6,1.2,12.8,1.2,19.3,0c18-3.4,31.2-21.6,37.6-37.6c7.8-19.4,7.6-39.4,9.6-59.7
		c1.5-15.4,2.2-30.9,2.1-46.3c0-4.1,0-8.3-0.2-12.5c-0.1-3.1-0.4-6.2-1-9.3C187,68.1,189.8,67.1,189.8,67.1z M151.5,192.3
		c-3.6,4.7-11.3,9.4-17.4,7.7c-3-0.8-0.5-3.7-2.6-6.8c-0.7-1-3-1.1-5.6-1c-2.6-0.1-4.9,0-5.6,1c-2.1,3.1,0.4,6-2.6,6.8
		c-6.1,1.6-13.8-3-17.4-7.7c-5.6-7.3-0.8-12.6,7.2-14.3c12.6-2.6,24.1-2.6,36.7,0C152.3,179.7,157.1,185,151.5,192.3z M178.7,127.9
		c0,0.2-0.1,0.3-0.1,0.3c-1.3,14.5-4.1,30.2-14.2,41c-3.9,4.1-7.5,4.3-12.5,2.3c-7.7-3.1-17.4-7.1-26-6.3c-8.5-0.8-18.3,3.1-26,6.3
		c-4.9,2-8.6,1.9-12.5-2.3c-8.8-9.4-12.1-22.5-13.6-35.2c-0.1-2.8-0.3-7.4-0.4-12.5c0-8.2,1.8-12.7,3.5-17
		c1.6-4.2,0.5-12.9,0.9-18.4c0.4-5.5,7.6-12.6,14.3-14.4c6.7-1.8,9.7,1,15.9,4.6c4.3,2.5,11.8,3.1,16.3,3.3l0,0c0,0,0.7,0,1.7,0
		c1.1,0,1.7,0,1.7,0l0,0c4.4-0.2,12-0.8,16.3-3.3c6.3-3.7,9.2-6.5,15.9-4.6c6.7,1.8,13.9,8.9,14.3,14.4c0.4,5.5-0.7,14.2,0.9,18.4
		s3.5,8.7,3.5,17C178.8,123.7,178.8,125.9,178.7,127.9z"/>
	<g>
		<path class="st124" d="M137.7,160.5c-0.8-2-2.4-2.7-3.5-4.4c-0.4-0.7-0.8-1.5-1.1-2.3c-0.9-2.9-1.2-6.1-1.5-9.1
			c-0.5-4.7-0.5-9.5-0.5-14.2c0,0-4,0.1-5.2,0.2c-1.2,0-5.2-0.2-5.2-0.2c0,4.7,0,9.5-0.5,14.2c-0.3,3.1-0.6,6.2-1.5,9.1
			c-0.3,0.9-0.7,1.6-1.1,2.3c-1.1,1.7-2.7,2.5-3.5,4.4c-0.8,1.8-0.5,5.1,0.9,6.6c1,1.1,2.6,1.7,3.9,2c3.1,0.7,2.6,2,6.1,2.2v0
			c0.1,0,0.1,0,0.2,0c0.2,0,0.4,0,0.6,0c0.2,0,0.4,0,0.6,0c0.1,0,0.1,0,0.2,0v0c3.5-0.2,3-1.5,6.1-2.2c1.3-0.3,2.9-0.9,3.9-2
			C138.2,165.6,138.5,162.4,137.7,160.5z"/>
		<g>
			<path class="st128" d="M137.7,160.5c-0.1-0.1-0.1-0.2-0.2-0.4c0,1.5-0.4,3.1-1.2,4.1c-1,1-2.5,1.6-3.7,1.9
				c-2.9,0.7-2.5,1.9-5.8,2v0c-0.1,0-0.1,0-0.1,0c-0.2,0-0.4,0-0.6,0c-0.2,0-0.4,0-0.6,0c-0.1,0-0.1,0-0.1,0v0
				c-3.3-0.2-2.9-1.4-5.8-2c-1.2-0.3-2.8-0.8-3.7-1.9c-0.9-0.9-1.3-2.5-1.2-4.1c-0.1,0.1-0.1,0.2-0.2,0.4c-0.8,1.8-0.5,5.1,0.9,6.6
				c1,1.1,2.6,1.7,3.9,2c3.1,0.7,2.6,2,6.1,2.2v0c0.1,0,0.1,0,0.2,0c0.2,0,0.4,0,0.6,0c0.2,0,0.4,0,0.6,0c0.1,0,0.1,0,0.2,0v0
				c3.5-0.2,3-1.5,6.1-2.2c1.3-0.3,2.9-0.9,3.9-2C138.2,165.6,138.5,162.4,137.7,160.5z"/>
		</g>
	</g>
</g>
</svg>
