<?xml version="1.0" encoding="utf-8"?>
<!-- Generator: Adobe Illustrator 18.1.1, SVG Export Plug-In . SVG Version: 6.00 Build 0)  -->
<!DOCTYPE svg PUBLIC "-//W3C//DTD SVG 1.1//EN" "http://www.w3.org/Graphics/SVG/1.1/DTD/svg11.dtd">
<svg version="1.1" id="Layer_1" xmlns="http://www.w3.org/2000/svg" xmlns:xlink="http://www.w3.org/1999/xlink" x="0px" y="0px"
	 viewBox="0 0 250 250" style="enable-background:new 0 0 250 250;" xml:space="preserve">
<style type="text/css">
	.st0{fill:url(#SVGID_1_);}
	.st1{fill:url(#SVGID_2_);}
	.st2{fill:url(#SVGID_3_);}
	.st3{fill:#543B35;}
	.st4{opacity:0;fill:#E39755;}
	.st5{fill:#EECCBB;}
	.st6{fill:url(#SVGID_4_);}
	.st7{fill:url(#SVGID_5_);}
	.st8{fill:#86622A;}
	.st9{fill:#3F3A39;}
	.st10{fill:#DEBAAA;}
	.st11{fill:#989695;}
	.st12{fill:#D0DBDB;}
	.st13{fill:#D7DEDE;}
	.st14{fill:#EACEBC;}
	.st15{fill:#5F4532;}
	.st16{fill:#E39755;}
	.st17{fill:#EEC9BD;}
	.st18{fill:#FDDDD1;}
	.st19{fill:#EFCCC2;}
	.st20{fill:#00AEEF;}
	.st21{fill:#CEB1A7;}
	.st22{fill:#DEC9C3;}
	.st23{fill:#FFFFFF;}
	.st24{fill:#D9BDB2;}
	.st25{fill:#EACECE;}
	.st26{fill:#DEC3BB;}
	.st27{fill:#5D6479;}
	.st28{fill:#574948;}
	.st29{fill:#3C2716;}
	.st30{fill:#25111A;}
	.st31{fill:#382221;}
	.st32{fill:#1D1215;}
	.st33{fill:#644832;}
	.st34{fill:none;}
	.st35{clip-path:url(#SVGID_7_);fill:#58595B;}
	.st36{clip-path:url(#SVGID_9_);}
	.st37{opacity:0.5;clip-path:url(#SVGID_11_);fill:#FFFFFF;}
	.st38{fill:#E9643F;}
	.st39{fill:#E3B38A;}
	.st40{opacity:0.25;}
	.st41{fill:#94BDC7;}
	.st42{fill:#FDCEA5;}
	.st43{fill:none;stroke:#676C76;stroke-width:2.1888;stroke-linecap:round;stroke-miterlimit:10;}
	.st44{fill:none;stroke:#644832;stroke-width:2.25;stroke-linecap:round;stroke-miterlimit:10;}
	.st45{opacity:0.15;fill:url(#SVGID_12_);}
	.st46{opacity:0.15;fill:url(#SVGID_13_);}
	.st47{fill:#699BD2;}
	.st48{fill:#D0958A;}
	.st49{clip-path:url(#SVGID_15_);}
	.st50{clip-path:url(#SVGID_17_);fill:#223C5D;}
	.st51{fill:#91A3CD;}
	.st52{fill:#95856E;}
	.st53{fill:#D9AAA0;}
	.st54{fill:none;stroke:#676C76;stroke-width:2;stroke-linecap:round;stroke-miterlimit:10;}
	.st55{fill:none;stroke:#95856E;stroke-width:3;stroke-linecap:round;stroke-miterlimit:10;}
	.st56{opacity:0.15;fill:url(#SVGID_18_);}
	.st57{opacity:0.15;fill:url(#SVGID_19_);}
	.st58{fill:#3C5C6B;}
	.st59{fill:#8C7B64;}
	.st60{fill:#722C22;}
	.st61{clip-path:url(#SVGID_21_);fill:#F79145;}
	.st62{fill:none;stroke:#AB9DA4;stroke-width:1.5;stroke-miterlimit:10;}
	.st63{fill:#CF8373;}
	.st64{opacity:0.15;fill:url(#SVGID_26_);}
	.st65{fill:#D79888;}
	.st66{fill:none;stroke:#DA6780;stroke-width:3;stroke-linecap:round;stroke-miterlimit:10;}
	.st67{fill:none;stroke:#722C22;stroke-width:1.5;stroke-linecap:round;stroke-miterlimit:10;}
	.st68{opacity:0.15;fill:url(#SVGID_27_);}
	.st69{fill:#281116;}
	.st70{clip-path:url(#SVGID_29_);fill:#F79145;}
	.st71{opacity:0.15;fill:url(#SVGID_34_);}
	.st72{opacity:0.15;fill:url(#SVGID_35_);}
	.st73{opacity:0.5;fill:#CF8373;}
	.st74{fill:none;stroke:#77425B;stroke-width:3;stroke-linecap:round;stroke-miterlimit:10;}
	.st75{fill:none;stroke:#F48A92;stroke-width:3;stroke-linecap:round;stroke-miterlimit:10;}
	.st76{fill:none;stroke:#A56072;stroke-width:3;stroke-linecap:round;stroke-miterlimit:10;}
	.st77{fill:#32393C;}
	.st78{fill:#662D91;}
	.st79{opacity:0.5;fill:#D1D3D4;}
	.st80{fill:#58595B;}
	.st81{opacity:0.3;fill:#FFFFFF;}
	.st82{opacity:0.5;}
	.st83{fill:#B97D7C;}
	.st84{fill:none;stroke:#9B6E6B;stroke-width:3;stroke-linecap:round;stroke-miterlimit:10;}
	.st85{fill:#3B354D;}
	.st86{fill:#EFCFC4;}
	.st87{fill:#7D4132;}
	.st88{fill:#845046;}
	.st89{fill:#D1B5AC;}
	.st90{fill:#50271E;}
	.st91{fill:#46353B;}
	.st92{fill:none;stroke:#B07685;stroke-width:3;stroke-linecap:round;stroke-miterlimit:10;}
	.st93{fill:#7B6776;}
	.st94{fill:#726370;}
	.st95{fill:#6D5669;}
	.st96{fill:#C1A09A;}
	.st97{fill:#4F341C;}
	.st98{fill:#54402F;}
	.st99{fill:#D8BFBF;}
	.st100{opacity:0.5;fill:#EACECE;}
	.st101{fill:#EC008C;}
	.st102{fill:none;stroke:#9B6E6B;stroke-miterlimit:10;}
	.st103{opacity:0.5;fill:#00AEEF;}
	.st104{fill:#522C1D;}
	.st105{fill:#5B3222;}
	.st106{opacity:0.5;fill:#EC008C;}
	.st107{opacity:0.5;fill:#50271E;}
	.st108{fill:#797E95;}
	.st109{fill:#A56072;}
	.st110{fill:#77425B;}
	.st111{fill:#D3B9B2;}
	.st112{opacity:0.34;fill:#1B1630;}
	.st113{opacity:0.5;fill:#EEC9BD;}
	.st114{opacity:0.5;fill:#E39755;}
	.st115{opacity:0.1;fill:#E39755;}
	.st116{fill:#5C4B3D;}
	.st117{fill:#5F4D41;}
	.st118{fill:url(#SVGID_36_);}
	.st119{fill:url(#SVGID_37_);}
	.st120{fill:#DFC6B3;}
	.st121{fill:#393653;}
	.st122{fill:#251E26;}
	.st123{fill:#D3B2A5;}
	.st124{fill:#E4BFAD;}
	.st125{fill:#423D40;}
	.st126{fill:#5D4939;}
	.st127{fill:#332D26;}
	.st128{fill:#C5A79B;}
	.st129{fill:#EFD0C7;}
	.st130{fill:none;stroke:#C2757D;stroke-width:3;stroke-linecap:round;stroke-miterlimit:10;}
	.st131{fill:#614743;}
	.st132{fill:#735950;}
	.st133{fill:#E0C4BD;}
	.st134{fill:url(#SVGID_40_);}
	.st135{fill:#EDC9C5;}
	.st136{fill:#FCD7D2;}
	.st137{fill:#DDBAB8;}
	.st138{fill:#49302B;}
	.st139{fill:#5B413A;}
	.st140{fill:url(#SVGID_41_);}
	.st141{fill:url(#SVGID_42_);}
	.st142{fill:#402910;}
	.st143{fill:#725E51;}
	.st144{fill:url(#SVGID_43_);}
	.st145{fill:url(#SVGID_44_);}
	.st146{fill:#F0D6BF;}
	.st147{fill:none;stroke:#B7677E;stroke-width:3;stroke-linecap:round;stroke-miterlimit:10;}
	.st148{fill:#D1B8A7;}
	.st149{fill:url(#SVGID_45_);}
	.st150{fill:#452911;}
	.st151{fill:url(#SVGID_46_);}
	.st152{fill:url(#SVGID_47_);}
	.st153{fill:url(#SVGID_48_);}
	.st154{fill:url(#SVGID_49_);}
	.st155{fill:url(#SVGID_50_);}
	.st156{fill:url(#SVGID_51_);}
	.st157{fill:url(#SVGID_52_);}
	.st158{fill:url(#SVGID_53_);}
	.st159{fill:url(#SVGID_54_);}
	.st160{fill:url(#SVGID_55_);}
	.st161{fill:url(#SVGID_56_);}
	.st162{fill:url(#SVGID_57_);}
	.st163{fill:url(#SVGID_58_);}
	.st164{fill:url(#SVGID_59_);}
	.st165{fill:url(#SVGID_60_);}
	.st166{fill:url(#SVGID_61_);}
	.st167{fill:#E7F3F1;}
	.st168{fill:#AD9F9C;}
	.st169{fill:#D3DDDD;}
	.st170{fill:#F2F9F8;}
	.st171{fill:#D4E8E7;}
	.st172{fill:#4B3015;}
	.st173{fill:url(#SVGID_62_);}
	.st174{fill:#DABEAD;}
	.st175{fill:#EACDBA;}
	.st176{fill:#66463D;}
	.st177{fill:#3D4559;}
	.st178{fill:none;stroke:#8C5B5F;stroke-width:3;stroke-linecap:round;stroke-miterlimit:10;}
	.st179{fill:#3B180E;}
	.st180{fill:#DBBAB2;}
	.st181{fill:#EAC7BC;}
	.st182{fill:none;stroke:#B97D7C;stroke-width:3;stroke-linecap:round;stroke-miterlimit:10;}
	.st183{fill:#CEAFAA;}
	.st184{fill:#E1BFB5;}
	.st185{fill:#D3B1A9;}
	.st186{fill:#C5A39C;}
	.st187{fill:#5B2511;}
	.st188{fill:url(#SVGID_63_);}
	.st189{fill:#CCB1A3;}
	.st190{fill:url(#SVGID_64_);}
	.st191{fill:url(#SVGID_65_);}
	.st192{fill:#8C5B5F;}
	.st193{fill:url(#SVGID_66_);}
	.st194{fill:#C2757D;}
	.st195{fill:#657577;}
	.st196{fill:#BC9F96;}
	.st197{fill:#F48A92;}
	.st198{fill:#B7677E;}
	.st199{fill:#623E17;}
	.st200{fill:#311D0F;}
	.st201{fill:#956828;}
	.st202{fill:#D89B51;}
	.st203{fill:url(#SVGID_67_);}
	.st204{fill:url(#SVGID_68_);}
	.st205{fill:url(#SVGID_69_);}
	.st206{fill:url(#SVGID_70_);}
	.st207{fill:url(#SVGID_71_);}
	.st208{fill:url(#SVGID_72_);}
	.st209{fill:url(#SVGID_73_);}
	.st210{fill:url(#SVGID_74_);}
	.st211{fill:url(#SVGID_75_);}
	.st212{fill:url(#SVGID_76_);}
	.st213{fill:url(#SVGID_77_);}
	.st214{fill:url(#SVGID_78_);}
	.st215{fill:url(#SVGID_79_);}
	.st216{fill:url(#SVGID_80_);}
	.st217{opacity:0.5;fill:#C8D5E9;}
	.st218{opacity:0.25;fill:#FFFFFF;}
</style>
<g>
	<g>
		<path class="st174" d="M68,127.1c0,0-2.9-1.5-4.7-0.6c-1.8,0.9-5.7,4.8-5.7,12.2s4.6,16.6,5.7,18.8c1.2,2.2,5.5,7.6,11,7.2
			S68,127.1,68,127.1z"/>
		<path class="st174" d="M182,127.1c0,0,2.9-1.5,4.7-0.6s5.7,4.8,5.7,12.2c0,7.4-4.6,16.6-5.7,18.8s-5.5,7.6-11,7.2
			C170.2,164.2,182,127.1,182,127.1z"/>
	</g>
	<path class="st175" d="M129,217.8h-8c-22.9,0-52-58.4-52-84V91.9c0-26.1,21.1-47.2,47.2-47.2h17.7c26.1,0,47.2,21.1,47.2,47.2v41.8
		C181,159.3,151.9,217.8,129,217.8z"/>
	<g>
		<circle class="st176" cx="102.1" cy="135" r="5.6"/>
		<circle class="st176" cx="147.9" cy="135" r="5.6"/>
	</g>
	<path class="st76" d="M142.4,182.6c-5,2.9-11.2,4.5-17.4,4.5s-12.4-1.5-17.5-4.4"/>
	<g>
		<path class="st179" d="M113.9,124.2c0-0.1,0.1-0.2,0.1-0.3c0.1-0.9,0.2-1.8,0.2-2.6c0-0.7,0.1-1.6-0.5-1.9c-1.4-0.7-3.7-0.5-5-0.5
			c-4.5,0-9-0.4-13.5-0.6c-2.6-0.1-5.5-0.4-7.8,1c-2.7,1.8-4.8,3.5-4.4,5.7s3.3-0.1,7.6-0.6c7.5-0.9,15.3,1.7,22.6,0.2
			c0.2,0,0.4-0.1,0.5-0.2C113.9,124.3,113.9,124.3,113.9,124.2z"/>
		<path class="st179" d="M136.1,124.2c0-0.1-0.1-0.2-0.1-0.3c-0.1-0.9-0.2-1.8-0.2-2.6c0-0.7-0.1-1.6,0.5-1.9c1.4-0.7,3.7-0.5,5-0.5
			c4.5,0,9-0.4,13.5-0.6c2.6-0.1,5.5-0.4,7.8,1c2.7,1.8,4.8,3.5,4.4,5.7s-3.3-0.1-7.6-0.6c-7.5-0.9-15.3,1.7-22.6,0.2
			c-0.2,0-0.4-0.1-0.5-0.2C136.1,124.3,136.1,124.3,136.1,124.2z"/>
	</g>
	<g>
		<linearGradient id="SVGID_1_" gradientUnits="userSpaceOnUse" x1="108.4652" y1="20.3579" x2="108.4652" y2="20.0857">
			<stop  offset="0" style="stop-color:#713F2A"/>
			<stop  offset="1" style="stop-color:#3B180E"/>
		</linearGradient>
		<path class="st0" d="M108.5,20.4C108.5,20,108.3,20,108.5,20.4L108.5,20.4z"/>
		<linearGradient id="SVGID_2_" gradientUnits="userSpaceOnUse" x1="126.1861" y1="85.2352" x2="126.1861" y2="84.6924">
			<stop  offset="0" style="stop-color:#713F2A"/>
			<stop  offset="1" style="stop-color:#3B180E"/>
		</linearGradient>
		<path class="st1" d="M127,84.7c-0.6,0.2-1.1,0.4-1.6,0.5C125.9,85.1,126.5,84.9,127,84.7z"/>
		<linearGradient id="SVGID_3_" gradientUnits="userSpaceOnUse" x1="125" y1="229.2766" x2="125" y2="20.3579">
			<stop  offset="0" style="stop-color:#713F2A"/>
			<stop  offset="1" style="stop-color:#3B180E"/>
		</linearGradient>
		<path class="st2" d="M188.6,80.8c-0.1-12.2-9-22.9-18.1-29.1c-2.4-1.6-4.7-3-7-4.2c-0.2-1.9-0.6-3.7-1.4-5.3
			c-0.1-0.3-0.3-0.6-0.5-0.8c-2.7-4.6-7.3-7.8-11.6-10.7c-1.8-1.2-3.9-2.2-5.9-3.1c-1.9-0.8-5.4-4.2-7.1-5.4c0,0,1.4,4.1,2.3,5.8
			c0,0-6.6-4.9-19.9-5.4c-8.6-0.3-10.6-1.7-11-2.3c0,0,0,0,0,0c-0.2,1.2,3.3,5.5,6.3,6.3c-1-0.2-3.4-0.5-7.6-0.7
			c-5.9-0.3-8.9-0.8-11.8-1.8c0,0,4.6,7.7,10.7,8.4c0,0-7.7,0.8-11,2.8S90.6,37,84,38c0,0,3.3,4.8,10.9,5c-5.1,2.8-9.9,5-15.4,8.7
			c-9.1,6.2-18,16.9-18.1,29.1s0.6,21.8,2.4,30.9c1.7,8.5,2.6,17.1,4.3,25.7c2.7,13.7,7.2,26.9,11.6,40.1c4.2,12.6,8.4,26,16.7,36.6
			c7.4,9.6,19.2,15.8,31.4,15.1c12.9-0.8,22.8-9.8,29.4-20.4c7.5-11.9,13.1-27,16.8-40.6c2.6-9.7,5.5-19.5,7.6-29.3
			c1.9-9,2.8-18.1,4.6-27.1C188,102.6,188.7,93,188.6,80.8z M144.8,190.6c-3.4,2.4-7.3,4.2-11.4,5c-4.9,1-10.5,1-15.4,0.3
			c-4.6-0.7-9.1-2.6-12.9-5.3c-4.1-2.9-2.3-14.2,3.9-15.5c3.6-0.8,7,1.4,10.3,2.3c3.5,0.9,7.3,0.7,10.9,0.1
			c3.6-0.7,6.8-3.2,10.6-2.4C147.1,176.4,148.9,187.7,144.8,190.6z M172.5,117.7c0.3,6.5,2.7,11.9,3.4,18.7c0.1,1.5,0.2,3,0.2,4.6
			c-0.2,4.6-0.8,13-2.3,14.9c-2.1,2.7-3.3,2.8-4.4,11.6s-8.9,13.9-11.8,13.6s-5.9-7.2-8.3-10.7c-2.4-3.5-9.4-4.5-14.7-6.8
			c-3.4-1.5-6-0.6-9.5-0.6c-3.5,0-6.1-0.9-9.5,0.6c-5.3,2.4-12.4,3.3-14.7,6.8c-2.4,3.5-5.3,10.5-8.3,10.7s-10.6-4.7-11.8-13.6
			s-2.4-9-4.4-11.6c-1.5-1.9-2.1-10.4-2.3-15c0-1.5,0-3,0.2-4.5c0.7-6.8,3.1-12.2,3.4-18.7c0.3-6.5-3.7-12.2-3.7-19.4
			c0-7.1,2-13.6,7.1-23.4c4.2-8.1,8.9-10.7,16.3-11.7c-3.8,3.8-8.1,9.6-8.7,17.2c0,0,16.3-18.6,29.6-19.1c0,0-4.9,3.5-6.1,7.6
			c0,0,13.5-6.4,19.4-4.3c0,0-3.3,1-4.9,4.6c0,0,11.8-4.3,15.1-3.1c0,0-5.9,15-14.7,18.6c10.1-3.4,20.5-8.5,28.4-15.5
			c1.3-1.2,2.5-2.7,3.6-4.4c4.1,1.6,7.2,4.6,10.1,10.2c5.1,9.8,7.1,16.3,7.1,23.4C176.2,105.5,172.1,111.3,172.5,117.7z"/>
	</g>
	<g>
		<path class="st189" d="M136.8,158.2c-0.1-1.3-0.1-2.2-0.7-3.7c0,0.3,0,0.6,0.1,0.9c0.2,1.8,0,4.7-2.2,5.7c-0.9,0.4-1.3,0.4-2-0.2
			c-1.4-1.1-2.8-0.2-4.2,0.5c-1.8,1-4,1-5.8,0c-1.4-0.8-2.8-1.6-4.2-0.5c-0.7,0.6-1.1,0.6-2,0.2c-2.2-1.1-2.3-3.9-2.2-5.7
			c0-0.3,0.1-0.6,0.1-0.9c-0.6,1.4-0.5,2.4-0.7,3.7c-0.2,1.9,0,4.9,2.3,6c0.9,0.5,1.3,0.4,2.1-0.2c1.5-1.1,3-0.2,4.4,0.6
			c1.9,1.1,4.2,1.1,6.1,0c1.4-0.8,2.9-1.7,4.4-0.6c0.8,0.6,1.2,0.7,2.1,0.2C136.8,163.1,137,160,136.8,158.2z"/>
	</g>
</g>
</svg>
