<?xml version="1.0" encoding="UTF-8" standalone="no"?>
<svg width="19px" height="10px" viewBox="0 0 19 10" version="1.1" xmlns="http://www.w3.org/2000/svg" xmlns:xlink="http://www.w3.org/1999/xlink" xmlns:sketch="http://www.bohemiancoding.com/sketch/ns">
    <!-- Generator: Sketch 3.2.2 (9983) - http://www.bohemiancoding.com/sketch -->
    <title>audience</title>
    <desc>Created with Sketch.</desc>
    <defs></defs>
    <g id="Page-1" stroke="none" stroke-width="1" fill="none" fill-rule="evenodd" sketch:type="MSPage">
        <g id="audience" sketch:type="MSLayerGroup" fill="#5F666F">
            <g id="Page-1" sketch:type="MSShapeGroup">
                <path d="M4.00000002,1.5 C5.1871399,1.5 6.15321627,2.44098348 6.15321627,3.59728859 C6.15321627,4.75359371 5.1871399,5.6945772 4.00000002,5.6945772 C2.8128601,5.6945772 1.84678373,4.75359371 1.84678373,3.59728859 C1.84678373,2.44098348 2.8128601,1.5 4.00000002,1.5 L4.00000002,1.5 Z M0.23187149,8.5 C0.4001593,6.5179688 1.34472208,5.6945772 3.36733908,5.6945772 L4.63266092,5.6945772 C6.65527792,5.6945772 7.5998407,6.5179688 7.76812851,8.5 L0.23187149,8.5 L0.23187149,8.5 Z" id="Imported-Layers-2"></path>
                <path d="M15,1.5 C16.1871399,1.5 17.1532163,2.44098348 17.1532163,3.59728859 C17.1532163,4.75359371 16.1871399,5.6945772 15,5.6945772 C13.8128601,5.6945772 12.8467837,4.75359371 12.8467837,3.59728859 C12.8467837,2.44098348 13.8128601,1.5 15,1.5 L15,1.5 Z M11.2318715,8.5 C11.4001593,6.5179688 12.3447221,5.6945772 14.3673391,5.6945772 L15.6326609,5.6945772 C17.6552779,5.6945772 18.5998407,6.5179688 18.7681285,8.5 L11.2318715,8.5 L11.2318715,8.5 Z" id="Imported-Layers-3"></path>
                <path d="M9.5117668,0.23193898 C11.1290112,0.23193898 12.4451001,1.51384374 12.4451001,3.08908183 C12.4451001,4.66431993 11.1290112,5.9462247 9.5117668,5.9462247 C7.89452233,5.9462247 6.57843344,4.66431993 6.57843344,3.08908183 C6.57843344,1.51384374 7.89452233,0.23193898 9.5117668,0.23193898 L9.5117668,0.23193898 Z M4.37843342,9.768061 C4.60769243,7.0679337 5.89447327,5.9462247 8.64989079,5.9462247 L10.3736427,5.9462247 C13.1290602,5.9462247 14.4158411,7.0679337 14.6451001,9.768061 L4.37843342,9.768061 L4.37843342,9.768061 Z" id="Imported-Layers"></path>
            </g>
        </g>
    </g>
</svg>