<?xml version="1.0" encoding="UTF-8" standalone="no"?>
<svg width="21px" height="20px" viewBox="0 0 21 20" version="1.1" xmlns="http://www.w3.org/2000/svg" xmlns:xlink="http://www.w3.org/1999/xlink" xmlns:sketch="http://www.bohemiancoding.com/sketch/ns">
    <!-- Generator: Sketch 3.2.2 (9983) - http://www.bohemiancoding.com/sketch -->
    <title>Slice 1</title>
    <desc>Created with Sketch.</desc>
    <defs></defs>
    <g id="Page-1" stroke="none" stroke-width="1" fill="none" fill-rule="evenodd" sketch:type="MSPage">
        <path d="M5.00000002,6.5 C6.1871399,6.5 7.15321627,7.44098348 7.15321627,8.59728859 C7.15321627,9.75359371 6.1871399,10.6945772 5.00000002,10.6945772 C3.8128601,10.6945772 2.84678373,9.75359371 2.84678373,8.59728859 C2.84678373,7.44098348 3.8128601,6.5 5.00000002,6.5 Z M1.23187149,13.5 C1.4001593,11.5179688 2.34472208,10.6945772 4.36733908,10.6945772 L5.63266092,10.6945772 C7.65527792,10.6945772 8.5998407,11.5179688 8.76812851,13.5 L1.23187149,13.5 Z" id="Imported-Layers-2" fill="#404851" sketch:type="MSShapeGroup"></path>
        <path d="M16,6.5 C17.1871399,6.5 18.1532163,7.44098348 18.1532163,8.59728859 C18.1532163,9.75359371 17.1871399,10.6945772 16,10.6945772 C14.8128601,10.6945772 13.8467837,9.75359371 13.8467837,8.59728859 C13.8467837,7.44098348 14.8128601,6.5 16,6.5 Z M12.2318715,13.5 C12.4001593,11.5179688 13.3447221,10.6945772 15.3673391,10.6945772 L16.6326609,10.6945772 C18.6552779,10.6945772 19.5998407,11.5179688 19.7681285,13.5 L12.2318715,13.5 Z" id="Imported-Layers-3" fill="#404851" sketch:type="MSShapeGroup"></path>
        <path d="M10.5117668,5.23193898 C12.1290112,5.23193898 13.4451001,6.51384374 13.4451001,8.08908183 C13.4451001,9.66431993 12.1290112,10.9462247 10.5117668,10.9462247 C8.89452233,10.9462247 7.57843344,9.66431993 7.57843344,8.08908183 C7.57843344,6.51384374 8.89452233,5.23193898 10.5117668,5.23193898 Z M5.37843342,14.768061 C5.60769243,12.0679337 6.89447327,10.9462247 9.64989079,10.9462247 L11.3736427,10.9462247 C14.1290602,10.9462247 15.4158411,12.0679337 15.6451001,14.768061 L5.37843342,14.768061 Z" id="Imported-Layers" fill="#404851" sketch:type="MSShapeGroup"></path>
    </g>
</svg>