<?xml version="1.0" encoding="UTF-8" standalone="no"?>
<svg width="16px" height="16px" viewBox="0 0 16 16" version="1.1" xmlns="http://www.w3.org/2000/svg" xmlns:xlink="http://www.w3.org/1999/xlink" xmlns:sketch="http://www.bohemiancoding.com/sketch/ns">
    <!-- Generator: Sketch 3.2.2 (9983) - http://www.bohemiancoding.com/sketch -->
    <title>Imported-Layers</title>
    <desc>Created with Sketch.</desc>
    <defs></defs>
    <g id="Page-1" stroke="none" stroke-width="1" fill="none" fill-rule="evenodd" sketch:type="MSPage">
        <g id="dashboard" sketch:type="MSLayerGroup" fill="#5F666F">
            <g id="Icons" sketch:type="MSShapeGroup">
                <g id="dashboard">
                    <path d="M15,0 L1,0 C0.447,0 0,0.447 0,1 L0,15 C0,15.553 0.447,16 1,16 L15,16 C15.553,16 16,15.553 16,15 L16,1 C16,0.447 15.553,0 15,0 L15,0 L15,0 Z M14,7.586 L11.353,4.939 C11.158,4.744 10.842,4.744 10.646,4.939 L7,8.586 L5.353,6.94 C5.158,6.744 4.842,6.744 4.646,6.94 L2,9.586 L2,2 L14,2 L14,7.586 L14,7.586 Z M2,12.414 L5,9.414 L6.646,11.06 C6.842,11.256 7.158,11.256 7.353,11.06 L11,7.414 L14,10.414 L14,14 L2,14 L2,12.414 L2,12.414 Z" id="Imported-Layers"></path>
                </g>
            </g>
        </g>
    </g>
</svg>