<?xml version="1.0" encoding="utf-8"?>
<!-- Generator: Adobe Illustrator 19.2.0, SVG Export Plug-In . SVG Version: 6.00 Build 0)  -->
<!DOCTYPE svg PUBLIC "-//W3C//DTD SVG 1.1//EN" "http://www.w3.org/Graphics/SVG/1.1/DTD/svg11.dtd">
<svg version="1.1" id="Layer_1" xmlns="http://www.w3.org/2000/svg" xmlns:xlink="http://www.w3.org/1999/xlink" x="0px" y="0px"
	 viewBox="0 0 712.2 1014.3" style="enable-background:new 0 0 712.2 1014.3;" xml:space="preserve">
<style type="text/css">
	.st0{opacity:0.5;}
	.st1{fill:#2CA991;stroke:#178C75;stroke-width:5;stroke-linecap:round;stroke-linejoin:round;stroke-miterlimit:10;}
	.st2{fill:#E93E3B;}
	.st3{fill:#2CA991;}
	.st4{fill:none;stroke:#178C75;stroke-width:5;stroke-linecap:round;stroke-linejoin:round;stroke-miterlimit:10;}
	.st5{fill:#31B299;stroke:#178C75;stroke-width:5;stroke-linecap:round;stroke-linejoin:round;stroke-miterlimit:10;}
	.st6{fill:#299C8A;stroke:#178C75;stroke-width:5;stroke-linecap:round;stroke-linejoin:round;stroke-miterlimit:10;}
	.st7{fill:none;stroke:#178C75;stroke-width:7.6571;stroke-miterlimit:10;}
	.st8{opacity:0.5;fill:#31B299;stroke:#178C75;stroke-width:5;stroke-linecap:round;stroke-linejoin:round;stroke-miterlimit:10;}
	.st9{fill:#2CA991;stroke:#299C8A;stroke-miterlimit:10;}
	.st10{fill:#2CA991;stroke:#178C75;stroke-width:4.8805;stroke-linecap:round;stroke-linejoin:round;stroke-miterlimit:10;}
	.st11{fill:#928C8C;}
	.st12{fill:#C1B9B9;}
	.st13{fill:#31B299;}
	.st14{fill:#928C8C;stroke:#178C75;stroke-width:4;stroke-miterlimit:10;}
	.st15{fill:#299C8A;}
	.st16{fill:none;stroke:#178C75;stroke-width:5.1771;stroke-linecap:round;stroke-linejoin:round;stroke-miterlimit:10;}
	.st17{fill:#31B299;stroke:#178C75;stroke-width:5.1771;stroke-linecap:round;stroke-linejoin:round;stroke-miterlimit:10;}
	.st18{opacity:0.5;fill:none;stroke:#178C75;stroke-width:5;stroke-miterlimit:10;}
	.st19{fill:#178C75;}
	.st20{opacity:0.5;fill:#2CA991;stroke:#178C75;stroke-width:5;stroke-miterlimit:10;}
	.st21{opacity:0.5;fill:#2CA991;stroke:#178C75;stroke-width:5;stroke-linecap:round;stroke-linejoin:round;stroke-miterlimit:10;}
	.st22{opacity:0.5;fill:#299C8A;stroke:#178C75;stroke-width:5;stroke-linecap:round;stroke-linejoin:round;stroke-miterlimit:10;}
	.st23{fill:#178C75;stroke:#178C75;stroke-width:3;stroke-miterlimit:10;}
	.st24{fill:#F4A3A3;}
	.st25{fill:#F28B86;}
</style>
<g class="st0">
	<path class="st1" d="M15.5,255.6l0.2-0.2l25.6,12.2l0.2-0.2c-1.2,2.5,1.7,7.4,0.1,9.6c-1.6,2.2-7.2,0.9-9.2,2.8
		c-2.3,2.1-1.4,6.9-3.8,8.7c-2.9,2-6.1-1.9-9.3-0.7c-2.6,0.9-4,6.5-6.7,6.9c-2.7,0.4-5.7-4.4-8.5-4.6l-0.5,0.3L5.2,262l1.5-0.5
		C10.1,260.3,13.1,258.3,15.5,255.6z"/>
</g>
<g class="st0">
	<g>
		<rect x="472.2" y="341.4" class="st2" width="44.9" height="562.1"/>
		<rect x="472.2" y="341.4" class="st3" width="44.9" height="562.1"/>
		<rect x="472.2" y="341.4" class="st4" width="44.9" height="562.1"/>
	</g>
	<path class="st5" d="M467.9,386l53.6,0c0.6,0,1,0.4,1,1l0,184.8c0,0.6-0.4,1-1,1l-53.6,0c-0.6,0-1-0.4-1-1l0-184.8
		C466.9,386.4,467.3,386,467.9,386z"/>
	
		<rect x="483.3" y="903.5" transform="matrix(-1 -7.730217e-05 7.730217e-05 -1 989.2642 1846.5713)" class="st6" width="22.7" height="39.6"/>
	
		<rect x="483.3" y="966.6" transform="matrix(-1 -7.730217e-05 7.730217e-05 -1 989.2518 1952.9915)" class="st6" width="22.7" height="19.8"/>
	
		<rect x="483.3" y="935.4" transform="matrix(7.730213e-05 -1 1 7.730213e-05 -460.5833 1449.8018)" class="st5" width="22.7" height="39.6"/>
	<polygon class="st5" points="502.1,280.9 517.2,341.4 472.3,341.4 487.3,281 	"/>
	<line class="st7" x1="494.7" y1="281" x2="494.7" y2="260.6"/>
</g>
<polygon class="st8" points="153.4,421.5 152.5,342.4 216.1,393.4 184.1,395.2 203.4,433.7 191.8,439.1 173.9,400.3 "/>
<polygon class="st8" points="3.6,108.5 2.5,2.5 87.7,70.8 34.3,67.3 "/>
<g class="st0">
	<path class="st9" d="M417.6,414.7c-0.1-5.3-0.2-10.7-0.2-16.1c0-8.4-7.9-12.9-15.7-12.9c-3.8,0-7.5,1-10.5,3
		c-0.8-2.6-2.4-4.8-4.7-6.4c-2.8-1.9-6.5-3-10.4-3c-3.8,0-7.5,1-10.5,3c-0.8-2.6-2.4-4.8-4.7-6.4c-2.8-1.9-6.5-3-10.4-3
		c-3.5,0-7.1,0.9-10,2.6v-38c0-11.4-7.9-17.3-15.7-17.3c-8,0-16.2,6.2-16.2,18v75.1c-6.4-8.4-13.5-13.4-21.4-15
		c-6.6-1.4-12.5-0.1-15.8,3.4c-1.9,2-3.9,5.7-2.3,11.7c1.5,5.9,5.8,10.4,9.6,14.4c1,1,1.9,2,2.8,3c6.5,7.3,12.7,16.7,18.3,27.8
		c5.5,10.8,10,22.8,13.3,35.6c0.1,0.4,0.7,3.5,1.3,6.2c0.5,2.3,1,4.7,1.4,6.6c0.9,4.1,1.2,5.7,3.8,5.7h79.7l0.9-1.5
		C418.6,481.5,418.1,447.5,417.6,414.7z"/>
	<g>
		<path class="st4" d="M311.6,436.7c0,0,0-98,0-98.5c0-19.5,25.7-19.9,25.7-0.7c0,4.4,0,72.6,0,72.6"/>
		<path class="st4" d="M337.3,410.2c0-13.1,0-23.8,0-23.9c0-13.4,25.7-13.7,25.7-0.5c0,1.5,0,13.5,0,25.4"/>
		<path class="st4" d="M363,411.2c0-10.5,0-18.4,0-18.5c0-13.4,25.7-13.7,25.7-0.5c0,1.5,0,14,0,26.1"/>
		<path class="st4" d="M388.6,418.3c0-10.8,0-19.1,0-19.2c0-13.4,25.7-13.7,25.7-0.5c0,37.8,4.2,77.2-16.9,110.8c0,0-78,0-78,0
			c-0.1,0-3.2-15.2-3.4-16.1c-3.3-12.5-7.7-24.7-13.5-36.2c-5-10-11.2-20-18.7-28.5c-4.2-4.8-10-9.6-11.7-16
			c-2.6-10.1,6.1-13,14.4-11.3c11.4,2.3,19.3,12.2,24.8,21.8"/>
	</g>
	<line class="st4" x1="324.7" y1="303.3" x2="324.7" y2="271.7"/>
	<line class="st4" x1="306.8" y1="308.2" x2="290.9" y2="280.7"/>
	<line class="st4" x1="293.6" y1="321.3" x2="266.2" y2="305.5"/>
	<line class="st4" x1="288.8" y1="339.3" x2="257.1" y2="339.3"/>
	<line class="st4" x1="360.6" y1="339.3" x2="392.3" y2="339.3"/>
	<line class="st4" x1="355.8" y1="321.3" x2="383.2" y2="305.5"/>
	<line class="st4" x1="342.7" y1="308.2" x2="358.5" y2="280.7"/>
</g>
<g class="st0">
	<path class="st1" d="M266.9,933.1L238,990.5l-28.9-57.4C209.1,933.1,237.2,886.5,266.9,933.1z"/>
	<path class="st5" d="M238,933.6L238,933.6c-8,0-14.5-6.5-14.5-14.5V506h28.9v413.1C252.4,927.1,246,933.6,238,933.6z"/>
	<path class="st1" d="M209,506h14.5v412.1c0,8-6.5,14.4-14.5,14.4h0L209,506z"/>
	<path class="st1" d="M266.9,506h-14.5v412.1c0,8,6.5,14.4,14.5,14.4h0L266.9,506z"/>
	<path class="st10" d="M226.9,965.4c3.5-0.6,7.2-1,11.1-1c3.7,0,7.3,0.3,10.7,0.9"/>
	<rect x="209" y="490.1" class="st6" width="57.9" height="16"/>
	<path class="st1" d="M227.2,455.5h21.5c10,0,18.2,8.1,18.2,18.2v16.3H209v-16.3C209,463.7,217.2,455.5,227.2,455.5z"/>
</g>
<g class="st0">
	<g>
		<path class="st11" d="M31.2,691.3c8.2,3.4,12.2,12.8,8.8,21c-3.4,8.2-12.8,12.2-21,8.8L4.8,755.9l66.2,27l14.2-34.8
			c-8.2-3.4-12.2-12.8-8.8-21c3.4-8.2,12.8-12.2,21-8.8l14.2-34.8l-66.2-27L31.2,691.3z"/>
		<path class="st3" d="M31.2,691.3c8.2,3.4,12.2,12.8,8.8,21c-3.4,8.2-12.8,12.2-21,8.8L4.8,755.9l66.2,27l14.2-34.8
			c-8.2-3.4-12.2-12.8-8.8-21c3.4-8.2,12.8-12.2,21-8.8l14.2-34.8l-66.2-27L31.2,691.3z"/>
		<path class="st4" d="M31.2,691.3c8.2,3.4,12.2,12.8,8.8,21c-3.4,8.2-12.8,12.2-21,8.8L4.8,755.9l66.2,27l14.2-34.8
			c-8.2-3.4-12.2-12.8-8.8-21c3.4-8.2,12.8-12.2,21-8.8l14.2-34.8l-66.2-27L31.2,691.3z"/>
	</g>
	<g>
		
			<rect x="16.6" y="710.3" transform="matrix(0.3777 -0.9259 0.9259 0.3777 -630.1724 501.7647)" class="st12" width="83.2" height="18.8"/>
		
			<rect x="16.6" y="710.3" transform="matrix(0.3777 -0.9259 0.9259 0.3777 -630.1724 501.7647)" class="st13" width="83.2" height="18.8"/>
		
			<rect x="16.6" y="710.3" transform="matrix(0.3777 -0.9259 0.9259 0.3777 -630.1724 501.7647)" class="st4" width="83.2" height="18.8"/>
	</g>
	
		<ellipse transform="matrix(0.3777 -0.9259 0.9259 0.3777 -597.6533 495.0218)" class="st14" cx="69.4" cy="692.1" rx="2.1" ry="2.1"/>
</g>
<g class="st0">
	<g>
		<path class="st3" d="M17.2,586.3c-0.7-0.3-1.3-0.6-2-0.8l7.6-27.7l0.3,0c2.6,0.7,7-2.9,9.5-1.7s2.1,7,4.2,8.6
			c2.2,1.7,7.6,0,9.4,2.1c1.8,2.1-0.7,7.2,0.6,9.6l-25.2,14C20.6,588.8,19.2,587.3,17.2,586.3z"/>
		<path class="st15" d="M17.2,586.3c-0.7-0.3-1.3-0.6-2-0.8l7.6-27.7l0.3,0c2.6,0.7,7-2.9,9.5-1.7s2.1,7,4.2,8.6
			c2.2,1.7,7.6,0,9.4,2.1c1.8,2.1-0.7,7.2,0.6,9.6l-25.2,14C20.6,588.8,19.2,587.3,17.2,586.3z"/>
		<path class="st4" d="M17.2,586.3c-0.7-0.3-1.3-0.6-2-0.8l7.6-27.7l0.3,0c2.6,0.7,7-2.9,9.5-1.7s2.1,7,4.2,8.6
			c2.2,1.7,7.6,0,9.4,2.1c1.8,2.1-0.7,7.2,0.6,9.6l-25.2,14C20.6,588.8,19.2,587.3,17.2,586.3z"/>
	</g>
	<g>
		<g>
			<path class="st13" d="M50.4,606.4c0.8-2.7,6.2-4.5,6.4-7.2c0.2-2.8-4.9-5.4-5.2-8.1c-0.3-2.7,4-6.5,3.1-9.1
				c-0.8-2.6-6.5-3.1-7.9-5.5l-25.2,14c1.7,3,1.9,6.8,0.2,10.1c-1.7,3.3-4.9,5.4-8.4,5.7l3.6,28.6c2.7-0.3,6.5,4,9.1,3.1
				c2.6-0.8,3.1-6.5,5.5-7.9c2.4-1.3,7.5,1.2,9.6-0.6c2.1-1.8,0.4-7.2,2.1-9.4c1.7-2.1,7.4-1.7,8.6-4.2
				C53.3,613.4,49.6,609,50.4,606.4z M50.3,606.9l-27.7-8.1L50.3,606.9z"/>
		</g>
		<g>
			<path class="st3" d="M50.4,606.4c0.8-2.7,6.2-4.5,6.4-7.2c0.2-2.8-4.9-5.4-5.2-8.1c-0.3-2.7,4-6.5,3.1-9.1
				c-0.8-2.6-6.5-3.1-7.9-5.5l-25.2,14c1.7,3,1.9,6.8,0.2,10.1c-1.7,3.3-4.9,5.4-8.4,5.7l3.6,28.6c2.7-0.3,6.5,4,9.1,3.1
				c2.6-0.8,3.1-6.5,5.5-7.9c2.4-1.3,7.5,1.2,9.6-0.6c2.1-1.8,0.4-7.2,2.1-9.4c1.7-2.1,7.4-1.7,8.6-4.2
				C53.3,613.4,49.6,609,50.4,606.4z M50.3,606.9l-27.7-8.1L50.3,606.9z"/>
		</g>
		<g>
			<path class="st4" d="M50.4,606.4c0.8-2.7,6.2-4.5,6.4-7.2c0.2-2.8-4.9-5.4-5.2-8.1c-0.3-2.7,4-6.5,3.1-9.1
				c-0.8-2.6-6.5-3.1-7.9-5.5l-25.2,14c1.7,3,1.9,6.8,0.2,10.1c-1.7,3.3-4.9,5.4-8.4,5.7l3.6,28.6c2.7-0.3,6.5,4,9.1,3.1
				c2.6-0.8,3.1-6.5,5.5-7.9c2.4-1.3,7.5,1.2,9.6-0.6c2.1-1.8,0.4-7.2,2.1-9.4c1.7-2.1,7.4-1.7,8.6-4.2
				C53.3,613.4,49.6,609,50.4,606.4z M50.3,606.9l-27.7-8.1L50.3,606.9z"/>
		</g>
	</g>
</g>
<path class="st8" d="M628,525.7"/>
<path class="st8" d="M629.4,525.7"/>
<g class="st0">
	<path class="st5" d="M668.3,206.1c-7.9,2.6-16.7,4-26,4c-33.8,0-61.1-18.9-61.1-42.3s27.4-42.3,61.1-42.3s61.1,18.9,61.1,42.3
		c0,9.3-4.4,18-11.8,25l18.2,29.2L668.3,206.1z"/>
	<path class="st1" d="M577.8,281.8c8.3,2.7,17.7,4.3,27.5,4.3c35.7,0,64.6-20,64.6-44.7c0-24.7-28.9-44.7-64.6-44.7
		s-64.6,20-64.6,44.7c0,9.9,4.6,19,12.5,26.4l-19.2,30.9L577.8,281.8z"/>
</g>
<g class="st0">
	
		<rect x="72.1" y="268" transform="matrix(0.7071 0.7071 -0.7071 0.7071 245.8916 38.2194)" class="st6" width="9.4" height="95.8"/>
	<circle class="st5" cx="129.6" cy="260.4" r="49.5"/>
	<circle class="st1" cx="129.6" cy="260.4" r="39.7"/>
	<g>
		<line class="st4" x1="152.5" y1="260.4" x2="106.8" y2="260.4"/>
		<line class="st4" x1="129.6" y1="283.3" x2="129.6" y2="237.5"/>
	</g>
	
		<rect x="50.4" y="306" transform="matrix(0.7071 0.7071 -0.7071 0.7071 252.4089 53.9538)" class="st5" width="21.4" height="51.3"/>
</g>
<path class="st8" d="M669.8,965.8c-1.7,0-3.4,0.2-5,0.5c0.4-2.1,0.6-4.2,0.6-6.4c0-18.3-14.9-33.2-33.2-33.2
	c-18.3,0-33.2,14.9-33.2,33.2c0,0.1,0,0.2,0,0.3c-3.4-3.8-8.4-6.1-13.8-6.1c-10.3,0-18.7,8.4-18.7,18.7c0,1.1,0.1,2.1,0.3,3.2
	c-2.2-0.9-4.6-1.4-7.2-1.4c-10.3,0-18.7,8.4-18.7,18.7c0,10.3,8.4,18.7,18.7,18.7h110.2c12.7,0,23-10.3,23-23
	C692.8,976.1,682.5,965.8,669.8,965.8z"/>
<g class="st0">
	<line class="st16" x1="245.2" y1="233.7" x2="402.9" y2="233.7"/>
	<path class="st16" d="M218,339.8c0-58.6,47.5-106.1,106.1-106.1s106.1,47.5,106.1,106.1"/>
	
		<rect x="210.2" y="332.1" transform="matrix(0.7071 0.7071 -0.7071 0.7071 304.1166 -54.6093)" class="st17" width="15.5" height="15.5"/>
	
		<rect x="316.3" y="226" transform="matrix(0.7071 0.7071 -0.7071 0.7071 260.1791 -160.6837)" class="st17" width="15.5" height="15.5"/>
	
		<rect x="422.4" y="332.1" transform="matrix(0.7071 0.7071 -0.7071 0.7071 366.2535 -204.6212)" class="st17" width="15.5" height="15.5"/>
	<ellipse transform="matrix(0.7071 -0.7071 0.7071 0.7071 -95.8657 236.004)" class="st17" cx="236.9" cy="233.7" rx="8" ry="8"/>
	<ellipse transform="matrix(0.7071 -0.7071 0.7071 0.7071 -44.9888 358.8318)" class="st17" cx="410.7" cy="233.7" rx="8" ry="8"/>
</g>
<path class="st18" d="M126.9,634.7V656c0,7.3,5.9,13.1,13.2,13l14.3-0.2c7.3-0.1,13.2,5.7,13.2,13v72.9c0,7.2-5.8,13-13,13h-21.1
	c-7.2,0-13,5.8-13,13V804"/>
<g class="st0">
	<path class="st1" d="M575.6,549.5c-0.7,0.5-1.4,1-2,1.7c-3.3,3.8-4.6,9.7-6.1,14.4c-2,6.2-3.4,12.6-4.7,18.9
		c-2.6,12.7-4.2,25.7-4.6,38.7c-0.9,26,2.4,52.1,10,77c3,9.8,5,20.4,5,30.8c0,10.4-2,20.9-5,30.8c-7.6,24.9-11,51-10,77
		c0.5,13,2,26,4.6,38.7c1.3,6.3,2.7,12.8,4.7,18.9c1.5,4.7,2.8,10.6,6.1,14.4c0.6,0.7,1.2,1.2,2,1.7c6.1,3.9,17.1,4,23.6,0.9
		c3.7-1.7,2.8-4.6,5.5-7.2c5.9-5.6,18.3-4.5,25.9-5.8c19.7-3.4,40.7-8.9,52.8-26c9.9-13.9,13.5-31.8,13.3-48.4
		c-0.2-20.3-6-41.9-20.5-56.7c-8.2-8.3-18.5-14-29.3-18.2c-5.4-2.1-11-3.9-16.6-5.4c-4.9-1.4-10.1-2.3-14.1-5.7
		c-1.9-1.6-3.4-3.7-4.1-6.2c0-0.2-0.5-2.9-0.2-2.9c-0.2,0,0.2-2.7,0.2-2.9c0.6-2.4,2.1-4.5,4.1-6.2c4-3.4,9.2-4.3,14.1-5.7
		c5.6-1.6,11.1-3.3,16.6-5.4c10.8-4.2,21.1-9.9,29.3-18.2c14.5-14.8,20.3-36.4,20.5-56.7c0.2-16.6-3.4-34.5-13.3-48.4
		c-12.2-17.1-33.1-22.6-52.8-26c-7.6-1.3-19.9-0.2-25.9-5.8c-2.7-2.5-1.7-5.4-5.5-7.2C592.7,545.6,581.8,545.6,575.6,549.5z
		 M616.5,763.4c11.1,1.4,22,4.8,31.9,10.1c7.5,4,14.5,9.2,19.6,16c11,14.6,11.1,34.9,8.8,52.2c-1.7,12.3-6.9,23.2-18.1,29.4
		c-9.1,5-19.9,8-29.9,10.2c-10.1,2.2-20.8,3.1-30.9,0.6c-9.5-2.3-14.6-10.6-17.1-19.5c-3.4-12.5-4.5-25.9-4.2-39.3
		c0.4-13.4,1.6-27.7,5.4-40.6c2.1-7.3,5.8-14.3,13-17.5C601.8,762.2,609.5,762.5,616.5,763.4z M628.9,580.5
		c10.1,2.2,20.9,5.2,29.9,10.2c11.2,6.2,16.4,17,18.1,29.4c2.3,17.3,2.2,37.6-8.8,52.2c-5.1,6.8-12.2,12-19.6,16
		c-9.9,5.3-20.8,8.7-31.9,10.1c-7,0.9-14.7,1.2-21.4-1.7c-7.3-3.2-10.9-10.2-13-17.5c-3.8-12.9-5-27.2-5.4-40.6
		c-0.4-13.3,0.7-26.7,4.2-39.3c2.4-8.9,7.6-17.2,17.1-19.5C608.1,577.4,618.8,578.3,628.9,580.5z"/>
</g>
<g class="st0">
	<path class="st4" d="M448.3,171.9c6.2-12.8,19.3-21.6,34.4-21.6c21.1,0,38.2,17.1,38.2,38.2s-17.1,38.2-38.2,38.2
		c-16.7,0-31-10.8-36.1-25.8"/>
	<polyline class="st4" points="470.8,169.3 445.6,175.8 445.1,149.8 	"/>
</g>
<g class="st0">
	<g>
		<path class="st3" d="M84.5,180.1c-0.3,0-0.7-0.1-1-0.2l-42-18.6c-0.9-0.4-1.5-1.3-1.5-2.3v-7.1c0-0.9,0.5-1.8,1.4-2.2l42-21
			c0.4-0.2,0.7-0.3,1.1-0.3c0.5,0,0.9,0.1,1.3,0.4c0.7,0.5,1.2,1.3,1.2,2.1v12.3c0,1-0.6,1.9-1.5,2.3l-20.5,9.3l20.4,8.3
			c0.9,0.4,1.6,1.3,1.6,2.3v12.2c0,0.8-0.4,1.6-1.1,2.1C85.5,179.9,85,180.1,84.5,180.1z"/>
		<path class="st19" d="M84.5,130.8v12.3l-25.7,11.7l25.7,10.5v12.2l-42-18.6v-7.1L84.5,130.8 M84.5,125.8c-0.8,0-1.5,0.2-2.2,0.5
			l-42,21c-1.7,0.8-2.8,2.6-2.8,4.5v7.1c0,2,1.2,3.8,3,4.6l42,18.6c0.6,0.3,1.3,0.4,2,0.4c1,0,1.9-0.3,2.7-0.8
			c1.4-0.9,2.3-2.5,2.3-4.2v-12.2c0-2-1.2-3.9-3.1-4.6l-15-6.1l15.2-6.9c1.8-0.8,2.9-2.6,2.9-4.5v-12.3c0-1.7-0.9-3.3-2.4-4.3
			C86.3,126,85.4,125.8,84.5,125.8L84.5,125.8z"/>
	</g>
	<g>
		<g>
			<path class="st3" d="M108.5,188.3c-0.8,0-1.6-0.4-2-1.1c-0.5-0.7-0.6-1.5-0.3-2.3l22.6-62.4c0.4-1,1.3-1.6,2.4-1.6h14.4
				c0.8,0,1.6,0.4,2,1.1c0.5,0.7,0.6,1.5,0.3,2.3l-22.6,62.4c-0.4,1-1.3,1.6-2.4,1.6H108.5z"/>
		</g>
		<g>
			<path class="st19" d="M145.5,123.4l-22.6,62.4h-14.4l22.6-62.4H145.5 M145.5,118.4h-14.4c-2.1,0-4,1.3-4.7,3.3l-22.6,62.4
				c-0.6,1.5-0.3,3.2,0.6,4.6c0.9,1.3,2.5,2.1,4.1,2.1h14.4c2.1,0,4-1.3,4.7-3.3l22.6-62.4c0.6-1.5,0.3-3.2-0.6-4.6
				C148.6,119.2,147.1,118.4,145.5,118.4L145.5,118.4z M145.5,128.4L145.5,128.4L145.5,128.4L145.5,128.4z"/>
		</g>
	</g>
	<g>
		<path class="st3" d="M169,180.1c-0.5,0-1-0.1-1.4-0.4c-0.7-0.5-1.1-1.2-1.1-2.1v-12.2c0-1,0.6-1.9,1.6-2.3l20.4-8.3l-20.5-9.3
			c-0.9-0.4-1.5-1.3-1.5-2.3v-12.3c0-0.9,0.4-1.7,1.2-2.1c0.4-0.2,0.9-0.4,1.3-0.4c0.4,0,0.8,0.1,1.1,0.3l42,21
			c0.8,0.4,1.4,1.3,1.4,2.2v7.1c0,1-0.6,1.9-1.5,2.3l-42,18.6C169.7,180,169.4,180.1,169,180.1z"/>
		<path class="st19" d="M169,130.8l42,21v7.1l-42,18.6v-12.2l25.7-10.5L169,143.1V130.8 M169,125.8c-0.9,0-1.8,0.3-2.6,0.7
			c-1.5,0.9-2.4,2.5-2.4,4.3v12.3c0,2,1.1,3.7,2.9,4.5l15.2,6.9l-15,6.1c-1.9,0.8-3.1,2.6-3.1,4.6v12.2c0,1.7,0.9,3.3,2.3,4.2
			c0.8,0.5,1.8,0.8,2.7,0.8c0.7,0,1.4-0.1,2-0.4l42-18.6c1.8-0.8,3-2.6,3-4.6v-7.1c0-1.9-1.1-3.6-2.8-4.5l-42-21
			C170.5,126,169.8,125.8,169,125.8L169,125.8z"/>
	</g>
</g>
<g class="st0">
	<path class="st13" d="M672.9,396.5c0-13.4-5.3-25.8-14.9-35c-9.2-8.8-21.2-13.6-34-13.6c-0.8,0-1.6,0-2.4,0.1
		c-25.4,1.2-45.5,21-46.6,46.2c-0.7,15.4,5.7,32.2,17.1,44.9c5.9,6.6,12.2,21.3,12.2,35.5c0,2.1,0.9,3.4,1.2,3.5l16,0V441l-10.6,6.6
		c-0.4,0.3-0.9,0.4-1.3,0.4c-0.8,0-1.7-0.4-2.1-1.2c-0.7-1.2-0.4-2.7,0.8-3.4l28.5-17.7c1.2-0.7,2.7-0.4,3.4,0.8
		c0.7,1.2,0.4,2.7-0.8,3.4l-13,8.1c0,0.2,0.1,0.4,0.1,0.6v39.6l16.1,0c0.2-0.1,1.1-1.4,1.1-3.5v-0.1c0-14,6.3-28.7,12.2-35.5
		C666.5,426.8,672.9,410.9,672.9,396.5z M639.3,417.1l-28.5,17.7c-0.4,0.3-0.9,0.4-1.3,0.4c-0.8,0-1.7-0.4-2.1-1.2
		c-0.7-1.2-0.4-2.7,0.8-3.4l28.5-17.7c1.2-0.7,2.7-0.4,3.4,0.8C640.9,414.8,640.5,416.4,639.3,417.1z"/>
	<path class="st19" d="M661.4,357.9c-10.8-10.3-25-15.6-40.1-14.9c-13.4,0.6-26.1,6.1-35.6,15.6c-9.6,9.5-15.2,22-15.8,35.4
		c-0.8,16.7,6.1,34.8,18.3,48.5c5.4,6,10.9,19.6,10.9,32.2c0,4.9,2.6,8.5,6.1,8.5h16.1v4.5c0,0.4,0.1,0.9,0.3,1.2h-17.8
		c-1.4,0-2.5,1.1-2.5,2.5s1.1,2.5,2.5,2.5h40.3c1.4,0,2.5-1.1,2.5-2.5s-1.1-2.5-2.5-2.5h-18.2c0.2-0.4,0.3-0.8,0.3-1.2v-4.5h16.1
		c3.5,0,6.1-3.7,6.1-8.5v-0.1c0-12.3,5.6-26.1,11-32.2c11.6-13.3,18.3-29.9,18.3-45.7C677.9,381.8,672.1,368,661.4,357.9z
		 M643.6,474.6c0,2.1-0.9,3.4-1.1,3.5l-16.1,0v-39.6c0-0.2,0-0.4-0.1-0.6l13-8.1c1.2-0.7,1.5-2.3,0.8-3.4c-0.7-1.2-2.3-1.5-3.4-0.8
		l-28.5,17.7c-1.2,0.7-1.5,2.3-0.8,3.4c0.5,0.8,1.3,1.2,2.1,1.2c0.5,0,0.9-0.1,1.3-0.4l10.6-6.6v37.1l-16,0
		c-0.3-0.1-1.2-1.4-1.2-3.5c0-14.2-6.3-28.9-12.2-35.5c-11.4-12.7-17.8-29.5-17.1-44.9c1.2-25.2,21.2-45,46.6-46.2
		c0.8,0,1.6-0.1,2.4-0.1c12.8,0,24.8,4.8,34,13.6c9.6,9.2,14.9,21.6,14.9,35c0,14.4-6.4,30.3-17.1,42.4
		c-5.9,6.8-12.2,21.5-12.2,35.5V474.6z"/>
	<path class="st19" d="M639.8,498.9h-31.4c-1.4,0-2.5,1.1-2.5,2.5s1.1,2.5,2.5,2.5h31.4c1.4,0,2.5-1.1,2.5-2.5
		S641.1,498.9,639.8,498.9z"/>
	<path class="st13" d="M632.4,514.1h-16.7c1.1,3.6,4.4,6.2,8.3,6.2S631.3,517.7,632.4,514.1z"/>
	<path class="st19" d="M635.3,509.1h-22.4c-1.4,0-2.5,1.1-2.5,2.5c0,7.6,6.1,13.7,13.7,13.7s13.7-6.1,13.7-13.7
		C637.8,510.2,636.7,509.1,635.3,509.1z M615.7,514.1h16.7c-1.1,3.6-4.4,6.2-8.3,6.2S616.8,517.7,615.7,514.1z"/>
	<path class="st19" d="M623.9,334c1.4,0,2.5-1.1,2.5-2.5v-15.2c0-1.4-1.1-2.5-2.5-2.5s-2.5,1.1-2.5,2.5v15.2
		C621.4,332.9,622.5,334,623.9,334z"/>
	<path class="st19" d="M593,339.1c0.4,0.9,1.3,1.4,2.3,1.4c0.4,0,0.7-0.1,1.1-0.2c1.2-0.6,1.8-2.1,1.2-3.3l-6.6-13.7
		c-0.6-1.2-2.1-1.8-3.3-1.2c-1.2,0.6-1.8,2.1-1.2,3.3L593,339.1z"/>
	<path class="st19" d="M558.9,348.8l11.9,9.5c0.5,0.4,1,0.5,1.6,0.5c0.7,0,1.5-0.3,2-0.9c0.9-1.1,0.7-2.7-0.4-3.5l-11.9-9.5
		c-1.1-0.9-2.7-0.7-3.5,0.4C557.6,346.3,557.8,347.9,558.9,348.8z"/>
	<path class="st19" d="M544.2,381.8l14.8,3.4c0.2,0,0.4,0.1,0.6,0.1c1.1,0,2.2-0.8,2.4-1.9c0.3-1.3-0.5-2.7-1.9-3l-14.8-3.4
		c-1.4-0.3-2.7,0.5-3,1.9C542,380.1,542.9,381.5,544.2,381.8z"/>
	<path class="st19" d="M562.1,411.5c-0.3-1.3-1.6-2.2-3-1.9l-14.8,3.4c-1.3,0.3-2.2,1.6-1.9,3c0.3,1.2,1.3,1.9,2.4,1.9
		c0.2,0,0.4,0,0.6-0.1l14.8-3.4C561.5,414.2,562.4,412.9,562.1,411.5z"/>
	<path class="st19" d="M570.8,436.6l-11.9,9.5c-1.1,0.9-1.3,2.4-0.4,3.5c0.5,0.6,1.2,0.9,2,0.9c0.5,0,1.1-0.2,1.6-0.5l11.9-9.5
		c1.1-0.9,1.3-2.4,0.4-3.5C573.4,435.9,571.9,435.7,570.8,436.6z"/>
	<path class="st19" d="M688.9,446.1l-11.9-9.5c-1.1-0.9-2.7-0.7-3.5,0.4c-0.9,1.1-0.7,2.7,0.4,3.5l11.9,9.5c0.5,0.4,1,0.5,1.6,0.5
		c0.7,0,1.5-0.3,2-0.9C690.2,448.5,690,446.9,688.9,446.1z"/>
	<path class="st19" d="M703.6,413l-14.8-3.4c-1.4-0.3-2.7,0.5-3,1.9s0.5,2.7,1.9,3l14.8,3.4c0.2,0,0.4,0.1,0.6,0.1
		c1.1,0,2.2-0.8,2.4-1.9C705.8,414.7,704.9,413.3,703.6,413z"/>
	<path class="st19" d="M685.7,383.3c0.3,1.2,1.3,1.9,2.4,1.9c0.2,0,0.4,0,0.6-0.1l14.8-3.4c1.3-0.3,2.2-1.6,1.9-3
		c-0.3-1.3-1.6-2.2-3-1.9l-14.8,3.4C686.3,380.6,685.4,382,685.7,383.3z"/>
	<path class="st19" d="M675.5,358.8c0.5,0,1.1-0.2,1.6-0.5l11.9-9.5c1.1-0.9,1.3-2.4,0.4-3.5c-0.9-1.1-2.4-1.3-3.5-0.4l-11.9,9.5
		c-1.1,0.9-1.3,2.4-0.4,3.5C674,358.5,674.7,358.8,675.5,358.8z"/>
	<path class="st19" d="M651.4,340.3c0.3,0.2,0.7,0.2,1.1,0.2c0.9,0,1.8-0.5,2.3-1.4l6.6-13.7c0.6-1.2,0.1-2.7-1.2-3.3
		c-1.2-0.6-2.7-0.1-3.3,1.2l-6.6,13.7C649.7,338.2,650.2,339.7,651.4,340.3z"/>
	<path class="st19" d="M636.7,412.9l-28.5,17.7c-1.2,0.7-1.5,2.3-0.8,3.4c0.5,0.8,1.3,1.2,2.1,1.2c0.5,0,0.9-0.1,1.3-0.4l28.5-17.7
		c1.2-0.7,1.5-2.3,0.8-3.4C639.4,412.5,637.9,412.1,636.7,412.9z"/>
</g>
<g class="st0">
	<rect x="258.8" y="86.6" class="st6" width="142" height="110.7"/>
	<polygon class="st1" points="273.5,183.2 386.7,183.2 386.7,147.6 353.1,114 311.6,155.6 298.7,142.6 273.4,167.9 	"/>
	<circle class="st5" cx="288.9" cy="116.5" r="15.5"/>
</g>
<g class="st0">
	<path class="st3" d="M164,592.4v-44.5H89.7v44.5c0,20.5,16.7,37.1,37.1,37.1C147.4,629.6,164,612.9,164,592.4z"/>
	<path class="st3" d="M129.4,505.9v37H164C164,523.3,148.7,507.2,129.4,505.9z"/>
	<path class="st13" d="M124.4,542.9v-37c-19.3,1.3-34.6,17.4-34.6,37H124.4z"/>
	<path class="st19" d="M126.9,500.8c-23.2,0-42.1,18.9-42.1,42.1v49.5c0,23.2,18.9,42.1,42.1,42.1c23.2,0,42.1-18.9,42.1-42.1V543
		C169,519.7,150.1,500.8,126.9,500.8z M89.7,592.4v-44.5H164v44.5c0,20.5-16.7,37.1-37.1,37.1C106.4,629.6,89.7,612.9,89.7,592.4z
		 M124.4,505.9v37H89.7C89.8,523.3,105.1,507.2,124.4,505.9z M129.4,505.9c19.3,1.3,34.6,17.4,34.6,37h-34.6V505.9z"/>
</g>
<path class="st20" d="M69.2,381.1h-1.4H23.2V414c4,0,12.3,0,12.4,0c0-1.5,0.1-3.1,0.2-4.6c0.4-3.1,1-6.3,2.7-9
	c1.9-3.1,5-4.6,8.5-5.3c2.4-0.5,4.8-0.6,7.2-0.6c0,0,0,74.4,0,74.6c0,4.6-1.9,6.8-6.5,6.8c-2.6,0-5.2,0-7.8,0v12.4h27.7h1.4h27.7
	v-12.4c-2.6,0-5.2,0-7.8,0c-4.6,0-6.5-2.2-6.5-6.8c0-0.2,0-74.6,0-74.6c2.4,0,4.9,0.1,7.2,0.6c3.5,0.7,6.6,2.2,8.5,5.3
	c1.7,2.7,2.4,5.9,2.7,9c0.2,1.5,0.2,3.1,0.2,4.6c0.1,0,8.4,0,12.4,0v-32.9H69.2z"/>
<path class="st21" d="M706.3,532.5l0.1,0.3l-25.3,12.9l0,0.3c-1.3-2.5-6.9-3.2-7.7-5.8c-0.8-2.7,3.7-6.3,3.4-9
	c-0.2-3-3.8-4.1-4.5-6.9c-1.1-4.7,5-4.7,6.2-8.4c0.8-2.6-2.7-7.1-1.4-9.5c1.3-2.4,7-1.8,8.8-3.9l0-0.6l21.5,18.6L707,522
	C705.9,525.4,705.7,529,706.3,532.5z"/>
<path class="st21" d="M14.7,917.5l0.2-0.2l20.7,11.5l0.2-0.2c-1.1,2,1.1,6.3-0.4,8c-1.5,1.8-6.1,0.4-7.8,1.8
	c-1.9,1.6-1.1,4.6-2.7,6.3c-2.7,3-5.6-1.3-8.7-0.3c-2.2,0.6-3.7,5.2-6,5.4c-2.3,0.2-4.5-4-6.8-4.2L3,945.9l2.8-23.6l1.3-0.4
	C10,921.2,12.6,919.6,14.7,917.5z"/>
<path class="st21" d="M5,837.7l-0.1-0.3l19.3-13.7l-0.1-0.3c1.4,1.9,6.1,1.8,7.1,3.8c1,2.1-2.3,5.6-1.7,7.9c0.6,2.4,3.7,2.9,4.5,5.1
	c1.5,3.7-3.6,4.5-4.1,7.7c-0.4,2.3,3.1,5.5,2.3,7.7c-0.8,2.1-5.6,2.4-6.8,4.3l0,0.5L5.5,847.8l0.2-1.3C6.3,843.5,6,840.5,5,837.7z"
	/>
<path class="st22" d="M686.1,90.4l0,0.3l-23.4,3.5l-0.1,0.3c-0.4-2.3-4.7-4.4-4.6-6.6c0.1-2.3,4.6-4,5.1-6.2
	c0.6-2.4-1.9-4.3-1.7-6.6c0.3-4,5.2-2.4,7.1-5c1.3-1.8-0.2-6.3,1.5-7.9c1.7-1.5,6,0.4,8-0.8l0.2-0.5l12.1,20.4l-0.8,1.1
	C687.6,84.6,686.5,87.4,686.1,90.4z"/>
<g class="st0">
	<rect x="453.4" y="25.9" class="st6" width="50.4" height="50.4"/>
	<line class="st4" x1="453.4" y1="40.7" x2="453.4" y2="11.2"/>
	<line class="st4" x1="518.6" y1="76.4" x2="489.1" y2="76.4"/>
	<line class="st4" x1="453.4" y1="76.4" x2="517.8" y2="12"/>
</g>
<g class="st0">
	<line class="st4" x1="119.7" y1="38.6" x2="119.7" y2="16.6"/>
	<polyline class="st4" points="148.2,78 119.7,78 119.7,49.3 	"/>
	<line class="st4" x1="180.3" y1="78" x2="158.5" y2="78"/>
	<polyline class="st4" points="97.1,39.6 157.7,39.6 157.7,100.9 	"/>
</g>
<g class="st0">
	<g>
		<path class="st13" d="M521.4,144l8.4-12.8c1.3-2,2.3-4.3,2.8-6.7l2.7-12.8c0.6-2.7,1.9-5.1,3.8-7.1l52.3-52.3l22.4,22.4L561.6,127
			c-1.9,1.9-4.4,3.3-7.1,3.8l-12.8,2.7c-2.4,0.5-4.6,1.4-6.7,2.8l-12.8,8.4L521.4,144z"/>
		<g>
			<path class="st19" d="M591.4,56l18.7,18.7l-50.4,50.4c-1.6,1.6-3.6,2.7-5.8,3.1l-12.8,2.7c-2.7,0.6-5.3,1.6-7.6,3.2l-4.6,3.1
				l3.1-4.6c1.5-2.3,2.6-4.9,3.2-7.6l2.7-12.8c0.5-2.2,1.5-4.2,3.1-5.8L591.4,56 M591.4,48.7l-54.1,54.1c-2.3,2.3-3.9,5.2-4.5,8.4
				l-2.7,12.8c-0.4,2.1-1.2,4-2.4,5.8l-9.6,14.6l0.9,0.9l2,2l0.9,0.9l14.6-9.6c1.8-1.2,3.7-2,5.8-2.4l12.8-2.7
				c3.2-0.7,6.1-2.2,8.4-4.5l54.1-54.1L591.4,48.7L591.4,48.7z"/>
		</g>
	</g>
	<line class="st17" x1="564.2" y1="111.9" x2="597.3" y2="78.7"/>
	<path class="st6" d="M640.9,25.3c-7.2-7.2-18.3-7.7-24.9-1.2L593.2,47l-3.1-3.1c-1.2-1.2-3.1-1.2-4.2,0l-8.8,8.8
		c-1.2,1.2-1.2,3.1,0,4.2l32.2,32.2c1.2,1.2,3.1,1.2,4.2,0l8.8-8.8c1.2-1.2,1.2-3.1,0-4.2l-3.1-3.1l22.9-22.9
		C648.6,43.6,648.1,32.5,640.9,25.3z"/>
</g>
<g class="st0">
	<g>
		<path class="st3" d="M210.8,81.7c-0.9,0-1.7-0.3-2.4-1c-0.6-0.6-1-1.5-1-2.3c0-0.9,0.3-1.7,1-2.4l23.8-23.8c0.6-0.6,1.5-1,2.3-1
			l1.9,0l0-3.4l-3.4,0l0,1.9c0,0.9-0.3,1.7-1,2.3l-23.8,23.8c-0.6,0.6-1.5,1-2.3,1s-1.7-0.3-2.3-1c-0.9-0.9-1.2-2.4-0.7-3.6
			l16.7-40.9c0.5-1.2,1.4-2.2,2.6-2.9l22.9-11.7c0.5-0.2,1-0.4,1.5-0.4c0.9,0,1.7,0.3,2.4,1l17.9,17.9c1,1,1.3,2.6,0.6,3.9
			l-11.7,22.9c-0.6,1.2-1.6,2.1-2.9,2.6l-40.9,16.7C211.7,81.6,211.2,81.7,210.8,81.7z"/>
		<path class="st19" d="M246.7,18.9c0.2,0,0.4,0.1,0.6,0.2l17.9,17.9c0.3,0.3,0.3,0.6,0.2,1l-11.7,22.9c-0.3,0.7-0.9,1.2-1.6,1.4
			l-40.9,16.7c-0.1,0-0.2,0.1-0.3,0.1c-0.2,0-0.4-0.1-0.6-0.2l0,0c-0.3-0.3-0.3-0.8,0-1.2L234,53.9c0.2-0.2,0.4-0.2,0.6-0.2l3.6,0
			c0.5,0,0.8-0.4,0.8-0.8l0-6.7c0-0.5-0.4-0.8-0.8-0.8c0,0,0,0,0,0l-6.7,0c-0.5,0-0.8,0.4-0.8,0.8l0,3.6c0,0.2-0.1,0.4-0.2,0.6
			l-23.8,23.8c-0.2,0.2-0.4,0.2-0.6,0.2s-0.4-0.1-0.6-0.2l0,0c-0.2-0.2-0.3-0.6-0.2-0.9L222,32.3c0.3-0.7,0.8-1.2,1.4-1.6L246.3,19
			C246.4,19,246.6,18.9,246.7,18.9 M246.7,13.9C246.7,13.9,246.7,13.9,246.7,13.9c-0.9,0-1.8,0.2-2.7,0.6l-22.9,11.7
			c-1.7,0.9-3.1,2.3-3.8,4.1l-16.7,40.9c-0.9,2.2-0.4,4.7,1.3,6.3c0.9,0.9,2,1.4,3.2,1.6c0.2,1.2,0.8,2.3,1.6,3.2
			c1.1,1.1,2.6,1.7,4.1,1.7c0.8,0,1.5-0.1,2.2-0.4L253.9,67c1.8-0.7,3.3-2.1,4.1-3.8l11.7-22.9c1.2-2.3,0.7-5-1.1-6.8l-17.9-17.9
			C249.7,14.5,248.2,13.9,246.7,13.9L246.7,13.9z"/>
	</g>
	<g>
		<path class="st15" d="M272.2,39.5c-1.3,0-2.5-0.5-3.4-1.4l-22.6-22.6c-0.9-0.9-1.4-2.1-1.4-3.4c0-1.3,0.5-2.5,1.4-3.4l4.4-4.4
			c0.9-0.9,2.1-1.4,3.4-1.4c1.3,0,2.5,0.5,3.4,1.4l22.6,22.6c0.9,0.9,1.4,2.1,1.4,3.4c0,1.3-0.5,2.5-1.4,3.4l-4.4,4.4
			C274.7,39,273.5,39.5,272.2,39.5z"/>
		<path class="st19" d="M254.1,5.4c0.6,0,1.2,0.2,1.6,0.7l22.6,22.6c0.9,0.9,0.9,2.4,0,3.3l-4.4,4.4c-0.5,0.5-1,0.7-1.6,0.7
			c-0.6,0-1.2-0.2-1.6-0.7L248,13.8c-0.9-0.9-0.9-2.4,0-3.3l4.4-4.4C252.9,5.6,253.5,5.4,254.1,5.4 M254.1,0.4c-2,0-3.8,0.8-5.2,2.1
			L244.4,7c-2.8,2.8-2.8,7.5,0,10.3l22.6,22.6c1.4,1.4,3.2,2.1,5.2,2.1c2,0,3.8-0.8,5.2-2.1l4.4-4.4c1.4-1.4,2.1-3.2,2.1-5.2
			c0-2-0.8-3.8-2.1-5.2L259.2,2.5C257.8,1.1,256,0.4,254.1,0.4L254.1,0.4z"/>
	</g>
</g>
<g class="st0">
	<path class="st6" d="M174.9,1007.2h-109c-2.2,0-4-1.8-4-4V810.5c0-2.2,1.8-4,4-4h109c2.2,0,4,1.8,4,4v192.7
		C178.9,1005.4,177.1,1007.2,174.9,1007.2z"/>
	<path class="st1" d="M160.8,976.2H80c-1.6,0-3-1.3-3-3V830.5c0-1.6,1.3-3,3-3h80.8c1.6,0,3,1.3,3,3v142.8
		C163.7,974.8,162.4,976.2,160.8,976.2z"/>
	
		<ellipse transform="matrix(0.7071 -0.7071 0.7071 0.7071 -542.7513 324.5446)" class="st23" cx="120.4" cy="817.4" rx="2.1" ry="2.1"/>
	
		<ellipse transform="matrix(0.7071 -0.7071 0.7071 0.7071 -665.7814 375.5053)" class="st1" cx="120.4" cy="991.4" rx="7.3" ry="7.3"/>
</g>
<g class="st0">
	<g>
		<path class="st24" d="M353.3,590.2c0.5,0.5,0.9,1.1,1.3,1.7l24.6-14.7l0-0.3c-1.4-2.3,0.9-7.5-0.9-9.6c-1.9-2.1-7.3-0.2-9.5-1.8
			c-2.2-1.6-2.1-7.3-4.5-8.5c-2.5-1.2-6.8,2.7-9.4,2l-6.7,28C350,587.6,351.9,588.7,353.3,590.2z"/>
		<path class="st3" d="M353.3,590.2c0.5,0.5,0.9,1.1,1.3,1.7l24.6-14.7l0-0.3c-1.4-2.3,0.9-7.5-0.9-9.6c-1.9-2.1-7.3-0.2-9.5-1.8
			c-2.2-1.6-2.1-7.3-4.5-8.5c-2.5-1.2-6.8,2.7-9.4,2l-6.7,28C350,587.6,351.9,588.7,353.3,590.2z"/>
		<path class="st4" d="M353.3,590.2c0.5,0.5,0.9,1.1,1.3,1.7l24.6-14.7l0-0.3c-1.4-2.3,0.9-7.5-0.9-9.6c-1.9-2.1-7.3-0.2-9.5-1.8
			c-2.2-1.6-2.1-7.3-4.5-8.5c-2.5-1.2-6.8,2.7-9.4,2l-6.7,28C350,587.6,351.9,588.7,353.3,590.2z"/>
	</g>
	<g>
		<path class="st25" d="M315.4,564.7c-2.1,1.9-0.2,7.3-1.8,9.5c-1.6,2.2-7.3,2.1-8.5,4.5c-1.2,2.5,2.7,6.8,2,9.4
			c-0.6,2.7-6,4.7-6.1,7.4c-0.1,2.7,5,5.2,5.5,7.9l28.5-4.3c-0.6-3.4,0.5-7.1,3.3-9.6c2.7-2.5,6.4-3.3,9.8-2.5l6.7-28
			c-2.7-0.6-4.7-6-7.4-6.1c-2.7-0.1-5.2,5-7.9,5.5c-2.7,0.4-6.6-3.8-9.2-2.8c-2.6,0.9-2.9,6.6-5.2,8.1
			C322.7,565.1,317.5,562.8,315.4,564.7z M339.8,588.5l-15.2-24.5L339.8,588.5z"/>
		<g>
			<path class="st13" d="M315.4,564.7c-2.1,1.9-0.2,7.3-1.8,9.5c-1.6,2.2-7.3,2.1-8.5,4.5c-1.2,2.5,2.7,6.8,2,9.4
				c-0.6,2.7-6,4.7-6.1,7.4c-0.1,2.7,5,5.2,5.5,7.9l28.5-4.3c-0.6-3.4,0.5-7.1,3.3-9.6c2.7-2.5,6.4-3.3,9.8-2.5l6.7-28
				c-2.7-0.6-4.7-6-7.4-6.1c-2.7-0.1-5.2,5-7.9,5.5c-2.7,0.4-6.6-3.8-9.2-2.8c-2.6,0.9-2.9,6.6-5.2,8.1
				C322.7,565.1,317.5,562.8,315.4,564.7z M339.8,588.5l-15.2-24.5L339.8,588.5z"/>
		</g>
		<g>
			<path class="st4" d="M315.4,564.7c-2.1,1.9-0.2,7.3-1.8,9.5c-1.6,2.2-7.3,2.1-8.5,4.5c-1.2,2.5,2.7,6.8,2,9.4
				c-0.6,2.7-6,4.7-6.1,7.4c-0.1,2.7,5,5.2,5.5,7.9l28.5-4.3c-0.6-3.4,0.5-7.1,3.3-9.6c2.7-2.5,6.4-3.3,9.8-2.5l6.7-28
				c-2.7-0.6-4.7-6-7.4-6.1c-2.7-0.1-5.2,5-7.9,5.5c-2.7,0.4-6.6-3.8-9.2-2.8c-2.6,0.9-2.9,6.6-5.2,8.1
				C322.7,565.1,317.5,562.8,315.4,564.7z M339.8,588.5l-15.2-24.5L339.8,588.5z"/>
		</g>
	</g>
	<path class="st1" d="M312.8,627.5c1.9,2.1,7.3,0.2,9.5,1.8c2.2,1.6,2.1,7.3,4.5,8.5c2.5,1.2,6.8-2.7,9.4-2c2.7,0.6,4.7,6,7.4,6.1
		c2.7,0.1,5.2-5,7.9-5.5l-5-28.4l5,28.4c2.7-0.4,6.6,3.8,9.2,2.8c2.6-0.9,2.9-6.6,5.2-8.1c2.3-1.4,7.5,0.9,9.6-0.9
		c1.6-1.5,0.8-5.1,1.1-7.6l0.6-1.3l-23.4-17.4l0,0c-0.4,0.5-0.8,1-1.2,1.4c-4.3,4-11,3.7-15-0.6c-0.4-0.4-0.7-0.8-1-1.2L311.9,618
		C313.1,620.4,310.9,625.5,312.8,627.5z"/>
	<path class="st1" d="M393.1,602l-0.2-0.2l13.3-25l-0.2-0.2c2.5,1.3,7.5-1.4,9.6,0.3c2.1,1.7,0.6,7.2,2.3,9.3
		c1.9,2.3,5.5,1.2,7.6,3.1c3.6,3.2-1.4,6.7-0.2,10.4c0.8,2.6,6.3,4.3,6.6,7c0.3,2.7-4.7,5.5-4.9,8.3l0.3,0.5l-28.3-2.9l-0.4-1.5
		C397.5,607.7,395.6,604.5,393.1,602z"/>
</g>
<g class="st0">
	<g>
		<path class="st1" d="M319.4,771v83c0,2.2,2,4,4.4,4h112.9c2.4,0,4.4-1.8,4.4-4v-84.3v-1.4v-84.3c0-2.2-2-4-4.4-4H323.8
			c-2.4,0-4.4,1.8-4.4,4v83V771z"/>
		<path class="st5" d="M392.2,699.3h-89.8c-2.4,0-4.4,1.8-4.4,4v83v4.1v83c0,2.2,2,4,4.4,4h112.9c2.4,0,4.4-1.8,4.4-4V789v-1.4v-60"
			/>
		<path class="st5" d="M392.2,699.3v24.3c0,2.2,2,4,4.4,4h23.1L392.2,699.3z"/>
	</g>
	<g>
		<line class="st5" x1="315.6" y1="778.6" x2="404.7" y2="778.6"/>
		<line class="st5" x1="315.6" y1="797.7" x2="404.7" y2="797.7"/>
		<line class="st5" x1="326" y1="816.8" x2="394.3" y2="816.8"/>
		<line class="st5" x1="326" y1="760.2" x2="394.3" y2="760.2"/>
	</g>
</g>
<g class="st0">
	<circle class="st1" cx="294.1" cy="954.2" r="12.2"/>
	<circle class="st1" cx="390.9" cy="923.7" r="9.9"/>
	<line class="st4" x1="306.9" y1="954.2" x2="431.2" y2="954.2"/>
	<polygon class="st1" points="431.2,944.2 452.3,954.2 431.2,964.3 	"/>
	
		<rect x="400.9" y="975.9" transform="matrix(2.244141e-10 1 -1 2.244141e-10 1394.4886 575.0092)" class="st1" width="17.6" height="17.6"/>
	<polyline class="st4" points="320.7,953.8 350.8,923.7 381,923.7 	"/>
	<polyline class="st4" points="348.6,954.2 379.4,984.7 401,984.7 	"/>
</g>
<path class="st21" d="M396,30.9c-1.4-2.4-7.1-1.7-8.9-3.7c-1.8-2.1-0.5-7.6-2.6-9.3c-2.2-1.7-7.2,1.2-9.6,0c-2.5-1.2-3.3-6.8-6-7.5
	c-2.7-0.7-6.2,3.8-8.9,3.7l-1.1,28.8L360,14c-2.7-0.2-5.7-5.1-8.4-4.7c-2.7,0.4-4.2,5.9-6.8,6.8c-2.5,0.9-7.1-2.5-9.6-1.1
	c-1.9,1.1-1.9,4.8-2.7,7.2l-0.9,1.1l19.2,22l0,0c0.5-0.4,1-0.8,1.5-1.1c5-3,11.5-1.3,14.5,3.8c0.3,0.5,0.5,0.9,0.7,1.4l27.4-9.1
	C394.2,37.7,397.4,33.3,396,30.9z"/>
</svg>
