<svg xmlns="http://www.w3.org/2000/svg" viewBox="0 0 712.2 1014.3" enable-background="new 0 0 712.2 1014.3"><style type="text/css">.st0{opacity:0.5;} .st1{fill:#2CA991;stroke:#178C75;stroke-width:5;stroke-linecap:round;stroke-linejoin:round;stroke-miterlimit:10;} .st2{fill:#E93E3B;} .st3{fill:#2CA991;} .st4{fill:none;stroke:#178C75;stroke-width:5;stroke-linecap:round;stroke-linejoin:round;stroke-miterlimit:10;} .st5{fill:#31B299;stroke:#178C75;stroke-width:5;stroke-linecap:round;stroke-linejoin:round;stroke-miterlimit:10;} .st6{fill:#299C8A;stroke:#178C75;stroke-width:5;stroke-linecap:round;stroke-linejoin:round;stroke-miterlimit:10;} .st7{fill:none;stroke:#178C75;stroke-width:7.6571;stroke-miterlimit:10;} .st8{opacity:0.5;fill:#31B299;stroke:#178C75;stroke-width:5;stroke-linecap:round;stroke-linejoin:round;stroke-miterlimit:10;} .st9{fill:#2CA991;stroke:#299C8A;stroke-miterlimit:10;} .st10{fill:#2CA991;stroke:#178C75;stroke-width:4.8805;stroke-linecap:round;stroke-linejoin:round;stroke-miterlimit:10;} .st11{fill:#928C8C;} .st12{fill:#C1B9B9;} .st13{fill:#31B299;} .st14{fill:#928C8C;stroke:#178C75;stroke-width:4;stroke-miterlimit:10;} .st15{fill:#299C8A;} .st16{fill:none;stroke:#178C75;stroke-width:5.1771;stroke-linecap:round;stroke-linejoin:round;stroke-miterlimit:10;} .st17{fill:#31B299;stroke:#178C75;stroke-width:5.1771;stroke-linecap:round;stroke-linejoin:round;stroke-miterlimit:10;} .st18{opacity:0.5;fill:none;stroke:#178C75;stroke-width:5;stroke-miterlimit:10;} .st19{fill:#178C75;} .st20{opacity:0.5;fill:#2CA991;stroke:#178C75;stroke-width:5;stroke-miterlimit:10;} .st21{opacity:0.5;fill:#2CA991;stroke:#178C75;stroke-width:5;stroke-linecap:round;stroke-linejoin:round;stroke-miterlimit:10;} .st22{opacity:0.5;fill:#299C8A;stroke:#178C75;stroke-width:5;stroke-linecap:round;stroke-linejoin:round;stroke-miterlimit:10;} .st23{fill:#178C75;stroke:#178C75;stroke-width:3;stroke-miterlimit:10;} .st24{fill:#F4A3A3;} .st25{fill:#F28B86;}</style><path class="st1" d="M15.5 255.6l.2-.2 25.6 12.2.2-.2c-1.2 2.5 1.7 7.4.1 9.6-1.6 2.2-7.2.9-9.2 2.8-2.3 2.1-1.4 6.9-3.8 8.7-2.9 2-6.1-1.9-9.3-.7-2.6.9-4 6.5-6.7 6.9-2.7.4-5.7-4.4-8.5-4.6l-.5.3L5.2 262l1.5-.5c3.4-1.2 6.4-3.2 8.8-5.9z"/><g class="st0"><path class="st2" d="M472.2 341.4h44.9v562.1h-44.9z"/><path class="st3" d="M472.2 341.4h44.9v562.1h-44.9z"/><path class="st4" d="M472.2 341.4h44.9v562.1h-44.9z"/><path class="st5" d="M467.9 386h53.6c.6 0 1 .4 1 1v184.8c0 .6-.4 1-1 1h-53.6c-.6 0-1-.4-1-1V387c0-.6.4-1 1-1z"/><path class="st6" d="M506.034 943.034l-22.7-.002.003-39.6 22.7.002zM506.027 986.354l-22.7-.002v-19.8l22.7.002z"/><path class="st5" d="M474.854 966.574l.002-22.7 39.6.003-.002 22.7zM502.1 280.9l15.1 60.5h-44.9l15-60.4z"/><path class="st7" d="M494.7 281v-20.4"/></g><path class="st8" d="M153.4 421.5l-.9-79.1 63.6 51-32 1.8 19.3 38.5-11.6 5.4-17.9-38.8zM3.6 108.5L2.5 2.5l85.2 68.3-53.4-3.5z"/><g class="st0"><path class="st9" d="M417.6 414.7c-.1-5.3-.2-10.7-.2-16.1 0-8.4-7.9-12.9-15.7-12.9-3.8 0-7.5 1-10.5 3-.8-2.6-2.4-4.8-4.7-6.4-2.8-1.9-6.5-3-10.4-3-3.8 0-7.5 1-10.5 3-.8-2.6-2.4-4.8-4.7-6.4-2.8-1.9-6.5-3-10.4-3-3.5 0-7.1.9-10 2.6v-38c0-11.4-7.9-17.3-15.7-17.3-8 0-16.2 6.2-16.2 18v75.1c-6.4-8.4-13.5-13.4-21.4-15-6.6-1.4-12.5-.1-15.8 3.4-1.9 2-3.9 5.7-2.3 11.7 1.5 5.9 5.8 10.4 9.6 14.4 1 1 1.9 2 2.8 3 6.5 7.3 12.7 16.7 18.3 27.8 5.5 10.8 10 22.8 13.3 35.6.1.4.7 3.5 1.3 6.2.5 2.3 1 4.7 1.4 6.6.9 4.1 1.2 5.7 3.8 5.7h79.7l.9-1.5c18.4-29.7 17.9-63.7 17.4-96.5z"/><path class="st4" d="M311.6 436.7v-98.5c0-19.5 25.7-19.9 25.7-.7v72.6M337.3 410.2v-23.9c0-13.4 25.7-13.7 25.7-.5v25.4M363 411.2v-18.5c0-13.4 25.7-13.7 25.7-.5v26.1M388.6 418.3v-19.2c0-13.4 25.7-13.7 25.7-.5 0 37.8 4.2 77.2-16.9 110.8h-78c-.1 0-3.2-15.2-3.4-16.1-3.3-12.5-7.7-24.7-13.5-36.2-5-10-11.2-20-18.7-28.5-4.2-4.8-10-9.6-11.7-16-2.6-10.1 6.1-13 14.4-11.3 11.4 2.3 19.3 12.2 24.8 21.8M324.7 303.3v-31.6M306.8 308.2l-15.9-27.5M293.6 321.3l-27.4-15.8M288.8 339.3h-31.7M360.6 339.3h31.7M355.8 321.3l27.4-15.8M342.7 308.2l15.8-27.5"/></g><g class="st0"><path class="st1" d="M266.9 933.1L238 990.5l-28.9-57.4s28.1-46.6 57.8 0z"/><path class="st5" d="M238 933.6c-8 0-14.5-6.5-14.5-14.5V506h28.9v413.1c0 8-6.4 14.5-14.4 14.5z"/><path class="st1" d="M209 506h14.5v412.1c0 8-6.5 14.4-14.5 14.4V506zM266.9 506h-14.5v412.1c0 8 6.5 14.4 14.5 14.4V506z"/><path class="st10" d="M226.9 965.4c3.5-.6 7.2-1 11.1-1 3.7 0 7.3.3 10.7.9"/><path class="st6" d="M209 490.1h57.9v16H209z"/><path class="st1" d="M227.2 455.5h21.5c10 0 18.2 8.1 18.2 18.2V490H209v-16.3c0-10 8.2-18.2 18.2-18.2z"/></g><g class="st0"><path class="st11" d="M31.2 691.3c8.2 3.4 12.2 12.8 8.8 21-3.4 8.2-12.8 12.2-21 8.8L4.8 755.9l66.2 27 14.2-34.8c-8.2-3.4-12.2-12.8-8.8-21 3.4-8.2 12.8-12.2 21-8.8l14.2-34.8-66.2-27-14.2 34.8z"/><path class="st3" d="M31.2 691.3c8.2 3.4 12.2 12.8 8.8 21-3.4 8.2-12.8 12.2-21 8.8L4.8 755.9l66.2 27 14.2-34.8c-8.2-3.4-12.2-12.8-8.8-21 3.4-8.2 12.8-12.2 21-8.8l14.2-34.8-66.2-27-14.2 34.8z"/><path class="st4" d="M31.2 691.3c8.2 3.4 12.2 12.8 8.8 21-3.4 8.2-12.8 12.2-21 8.8L4.8 755.9l66.2 27 14.2-34.8c-8.2-3.4-12.2-12.8-8.8-21 3.4-8.2 12.8-12.2 21-8.8l14.2-34.8-66.2-27-14.2 34.8z"/><path class="st12" d="M33.764 754.675L65.19 677.64l17.406 7.1-31.425 77.036z"/><path class="st13" d="M33.764 754.675L65.19 677.64l17.406 7.1-31.425 77.036z"/><path class="st4" d="M33.764 754.675L65.19 677.64l17.406 7.1-31.425 77.036z"/><ellipse transform="matrix(.378 -.926 .926 .378 -597.653 495.022)" class="st14" cx="69.4" cy="692.1" rx="2.1" ry="2.1"/></g><g class="st0"><path class="st3" d="M17.2 586.3c-.7-.3-1.3-.6-2-.8l7.6-27.7h.3c2.6.7 7-2.9 9.5-1.7s2.1 7 4.2 8.6c2.2 1.7 7.6 0 9.4 2.1 1.8 2.1-.7 7.2.6 9.6l-25.2 14c-1-1.6-2.4-3.1-4.4-4.1z"/><path class="st15" d="M17.2 586.3c-.7-.3-1.3-.6-2-.8l7.6-27.7h.3c2.6.7 7-2.9 9.5-1.7s2.1 7 4.2 8.6c2.2 1.7 7.6 0 9.4 2.1 1.8 2.1-.7 7.2.6 9.6l-25.2 14c-1-1.6-2.4-3.1-4.4-4.1z"/><path class="st4" d="M17.2 586.3c-.7-.3-1.3-.6-2-.8l7.6-27.7h.3c2.6.7 7-2.9 9.5-1.7s2.1 7 4.2 8.6c2.2 1.7 7.6 0 9.4 2.1 1.8 2.1-.7 7.2.6 9.6l-25.2 14c-1-1.6-2.4-3.1-4.4-4.1z"/><path class="st13" d="M50.4 606.4c.8-2.7 6.2-4.5 6.4-7.2.2-2.8-4.9-5.4-5.2-8.1-.3-2.7 4-6.5 3.1-9.1-.8-2.6-6.5-3.1-7.9-5.5l-25.2 14c1.7 3 1.9 6.8.2 10.1s-4.9 5.4-8.4 5.7l3.6 28.6c2.7-.3 6.5 4 9.1 3.1 2.6-.8 3.1-6.5 5.5-7.9 2.4-1.3 7.5 1.2 9.6-.6 2.1-1.8.4-7.2 2.1-9.4 1.7-2.1 7.4-1.7 8.6-4.2 1.4-2.5-2.3-6.9-1.5-9.5zm-.1.5l-27.7-8.1 27.7 8.1z"/><path class="st3" d="M50.4 606.4c.8-2.7 6.2-4.5 6.4-7.2.2-2.8-4.9-5.4-5.2-8.1-.3-2.7 4-6.5 3.1-9.1-.8-2.6-6.5-3.1-7.9-5.5l-25.2 14c1.7 3 1.9 6.8.2 10.1s-4.9 5.4-8.4 5.7l3.6 28.6c2.7-.3 6.5 4 9.1 3.1 2.6-.8 3.1-6.5 5.5-7.9 2.4-1.3 7.5 1.2 9.6-.6 2.1-1.8.4-7.2 2.1-9.4 1.7-2.1 7.4-1.7 8.6-4.2 1.4-2.5-2.3-6.9-1.5-9.5zm-.1.5l-27.7-8.1 27.7 8.1z"/><path class="st4" d="M50.4 606.4c.8-2.7 6.2-4.5 6.4-7.2.2-2.8-4.9-5.4-5.2-8.1-.3-2.7 4-6.5 3.1-9.1-.8-2.6-6.5-3.1-7.9-5.5l-25.2 14c1.7 3 1.9 6.8.2 10.1s-4.9 5.4-8.4 5.7l3.6 28.6c2.7-.3 6.5 4 9.1 3.1 2.6-.8 3.1-6.5 5.5-7.9 2.4-1.3 7.5 1.2 9.6-.6 2.1-1.8.4-7.2 2.1-9.4 1.7-2.1 7.4-1.7 8.6-4.2 1.4-2.5-2.3-6.9-1.5-9.5zm-.1.5l-27.7-8.1 27.7 8.1z"/></g><path class="st8" d="M628 525.7M629.4 525.7"/><g class="st0"><path class="st5" d="M668.3 206.1c-7.9 2.6-16.7 4-26 4-33.8 0-61.1-18.9-61.1-42.3s27.4-42.3 61.1-42.3 61.1 18.9 61.1 42.3c0 9.3-4.4 18-11.8 25l18.2 29.2-41.5-15.9z"/><path class="st1" d="M577.8 281.8c8.3 2.7 17.7 4.3 27.5 4.3 35.7 0 64.6-20 64.6-44.7 0-24.7-28.9-44.7-64.6-44.7s-64.6 20-64.6 44.7c0 9.9 4.6 19 12.5 26.4L534 298.7l43.8-16.9z"/></g><g class="st0"><path class="st6" d="M107.37 278.704l6.647 6.647-67.74 67.74-6.646-6.646z"/><circle class="st5" cx="129.6" cy="260.4" r="49.5"/><circle class="st1" cx="129.6" cy="260.4" r="39.7"/><path class="st4" d="M152.5 260.4h-45.7M129.6 283.3v-45.8"/><path class="st5" d="M71.674 305.964l15.132 15.132-36.274 36.274L35.4 342.238z"/></g><path class="st8" d="M669.8 965.8c-1.7 0-3.4.2-5 .5.4-2.1.6-4.2.6-6.4 0-18.3-14.9-33.2-33.2-33.2-18.3 0-33.2 14.9-33.2 33.2v.3c-3.4-3.8-8.4-6.1-13.8-6.1-10.3 0-18.7 8.4-18.7 18.7 0 1.1.1 2.1.3 3.2-2.2-.9-4.6-1.4-7.2-1.4-10.3 0-18.7 8.4-18.7 18.7 0 10.3 8.4 18.7 18.7 18.7h110.2c12.7 0 23-10.3 23-23 0-12.9-10.3-23.2-23-23.2z"/><g class="st0"><path class="st16" d="M245.2 233.7h157.7M218 339.8c0-58.6 47.5-106.1 106.1-106.1s106.1 47.5 106.1 106.1"/><path class="st17" d="M217.92 328.85l10.96 10.96-10.96 10.96-10.96-10.96zM324.03 222.777l10.96 10.96-10.96 10.96-10.96-10.96zM430.105 328.886l10.96 10.96-10.96 10.96-10.96-10.96z"/><ellipse transform="matrix(.707 -.707 .707 .707 -95.866 236.004)" class="st17" cx="236.9" cy="233.7" rx="8" ry="8"/><ellipse transform="matrix(.707 -.707 .707 .707 -44.989 358.832)" class="st17" cx="410.7" cy="233.7" rx="8" ry="8"/></g><path class="st18" d="M126.9 634.7V656c0 7.3 5.9 13.1 13.2 13l14.3-.2c7.3-.1 13.2 5.7 13.2 13v72.9c0 7.2-5.8 13-13 13h-21.1c-7.2 0-13 5.8-13 13V804"/><path class="st1" d="M575.6 549.5c-.7.5-1.4 1-2 1.7-3.3 3.8-4.6 9.7-6.1 14.4-2 6.2-3.4 12.6-4.7 18.9-2.6 12.7-4.2 25.7-4.6 38.7-.9 26 2.4 52.1 10 77 3 9.8 5 20.4 5 30.8 0 10.4-2 20.9-5 30.8-7.6 24.9-11 51-10 77 .5 13 2 26 4.6 38.7 1.3 6.3 2.7 12.8 4.7 18.9 1.5 4.7 2.8 10.6 6.1 14.4.6.7 1.2 1.2 2 1.7 6.1 3.9 17.1 4 23.6.9 3.7-1.7 2.8-4.6 5.5-7.2 5.9-5.6 18.3-4.5 25.9-5.8 19.7-3.4 40.7-8.9 52.8-26 9.9-13.9 13.5-31.8 13.3-48.4-.2-20.3-6-41.9-20.5-56.7-8.2-8.3-18.5-14-29.3-18.2-5.4-2.1-11-3.9-16.6-5.4-4.9-1.4-10.1-2.3-14.1-5.7-1.9-1.6-3.4-3.7-4.1-6.2 0-.2-.5-2.9-.2-2.9-.2 0 .2-2.7.2-2.9.6-2.4 2.1-4.5 4.1-6.2 4-3.4 9.2-4.3 14.1-5.7 5.6-1.6 11.1-3.3 16.6-5.4 10.8-4.2 21.1-9.9 29.3-18.2 14.5-14.8 20.3-36.4 20.5-56.7.2-16.6-3.4-34.5-13.3-48.4-12.2-17.1-33.1-22.6-52.8-26-7.6-1.3-19.9-.2-25.9-5.8-2.7-2.5-1.7-5.4-5.5-7.2-6.5-2.8-17.4-2.8-23.6 1.1zm40.9 213.9c11.1 1.4 22 4.8 31.9 10.1 7.5 4 14.5 9.2 19.6 16 11 14.6 11.1 34.9 8.8 52.2-1.7 12.3-6.9 23.2-18.1 29.4-9.1 5-19.9 8-29.9 10.2-10.1 2.2-20.8 3.1-30.9.6-9.5-2.3-14.6-10.6-17.1-19.5-3.4-12.5-4.5-25.9-4.2-39.3.4-13.4 1.6-27.7 5.4-40.6 2.1-7.3 5.8-14.3 13-17.5 6.8-2.8 14.5-2.5 21.5-1.6zm12.4-182.9c10.1 2.2 20.9 5.2 29.9 10.2 11.2 6.2 16.4 17 18.1 29.4 2.3 17.3 2.2 37.6-8.8 52.2-5.1 6.8-12.2 12-19.6 16-9.9 5.3-20.8 8.7-31.9 10.1-7 .9-14.7 1.2-21.4-1.7-7.3-3.2-10.9-10.2-13-17.5-3.8-12.9-5-27.2-5.4-40.6-.4-13.3.7-26.7 4.2-39.3 2.4-8.9 7.6-17.2 17.1-19.5 10-2.4 20.7-1.5 30.8.7z"/><g class="st0"><path class="st4" d="M448.3 171.9c6.2-12.8 19.3-21.6 34.4-21.6 21.1 0 38.2 17.1 38.2 38.2s-17.1 38.2-38.2 38.2c-16.7 0-31-10.8-36.1-25.8M470.8 169.3l-25.2 6.5-.5-26"/></g><g class="st0"><path class="st3" d="M84.5 180.1c-.3 0-.7-.1-1-.2l-42-18.6c-.9-.4-1.5-1.3-1.5-2.3v-7.1c0-.9.5-1.8 1.4-2.2l42-21c.4-.2.7-.3 1.1-.3.5 0 .9.1 1.3.4.7.5 1.2 1.3 1.2 2.1v12.3c0 1-.6 1.9-1.5 2.3L65 154.8l20.4 8.3c.9.4 1.6 1.3 1.6 2.3v12.2c0 .8-.4 1.6-1.1 2.1-.4.2-.9.4-1.4.4z"/><path class="st19" d="M84.5 130.8v12.3l-25.7 11.7 25.7 10.5v12.2l-42-18.6v-7.1l42-21m0-5c-.8 0-1.5.2-2.2.5l-42 21c-1.7.8-2.8 2.6-2.8 4.5v7.1c0 2 1.2 3.8 3 4.6l42 18.6c.6.3 1.3.4 2 .4 1 0 1.9-.3 2.7-.8 1.4-.9 2.3-2.5 2.3-4.2v-12.2c0-2-1.2-3.9-3.1-4.6l-15-6.1 15.2-6.9c1.8-.8 2.9-2.6 2.9-4.5v-12.3c0-1.7-.9-3.3-2.4-4.3-.8-.6-1.7-.8-2.6-.8z"/><path class="st3" d="M108.5 188.3c-.8 0-1.6-.4-2-1.1-.5-.7-.6-1.5-.3-2.3l22.6-62.4c.4-1 1.3-1.6 2.4-1.6h14.4c.8 0 1.6.4 2 1.1.5.7.6 1.5.3 2.3l-22.6 62.4c-.4 1-1.3 1.6-2.4 1.6h-14.4z"/><path class="st19" d="M145.5 123.4l-22.6 62.4h-14.4l22.6-62.4h14.4m0-5h-14.4c-2.1 0-4 1.3-4.7 3.3l-22.6 62.4c-.6 1.5-.3 3.2.6 4.6.9 1.3 2.5 2.1 4.1 2.1h14.4c2.1 0 4-1.3 4.7-3.3l22.6-62.4c.6-1.5.3-3.2-.6-4.6-1-1.3-2.5-2.1-4.1-2.1zm0 10z"/><path class="st3" d="M169 180.1c-.5 0-1-.1-1.4-.4-.7-.5-1.1-1.2-1.1-2.1v-12.2c0-1 .6-1.9 1.6-2.3l20.4-8.3-20.5-9.3c-.9-.4-1.5-1.3-1.5-2.3v-12.3c0-.9.4-1.7 1.2-2.1.4-.2.9-.4 1.3-.4s.8.1 1.1.3l42 21c.8.4 1.4 1.3 1.4 2.2v7.1c0 1-.6 1.9-1.5 2.3l-42 18.6c-.3.1-.6.2-1 .2z"/><path class="st19" d="M169 130.8l42 21v7.1l-42 18.6v-12.2l25.7-10.5-25.7-11.7v-12.3m0-5c-.9 0-1.8.3-2.6.7-1.5.9-2.4 2.5-2.4 4.3v12.3c0 2 1.1 3.7 2.9 4.5l15.2 6.9-15 6.1c-1.9.8-3.1 2.6-3.1 4.6v12.2c0 1.7.9 3.3 2.3 4.2.8.5 1.8.8 2.7.8.7 0 1.4-.1 2-.4l42-18.6c1.8-.8 3-2.6 3-4.6v-7.1c0-1.9-1.1-3.6-2.8-4.5l-42-21c-.7-.2-1.4-.4-2.2-.4z"/></g><g class="st0"><path class="st13" d="M672.9 396.5c0-13.4-5.3-25.8-14.9-35-9.2-8.8-21.2-13.6-34-13.6-.8 0-1.6 0-2.4.1-25.4 1.2-45.5 21-46.6 46.2-.7 15.4 5.7 32.2 17.1 44.9 5.9 6.6 12.2 21.3 12.2 35.5 0 2.1.9 3.4 1.2 3.5h16V441l-10.6 6.6c-.4.3-.9.4-1.3.4-.8 0-1.7-.4-2.1-1.2-.7-1.2-.4-2.7.8-3.4l28.5-17.7c1.2-.7 2.7-.4 3.4.8.7 1.2.4 2.7-.8 3.4l-13 8.1c0 .2.1.4.1.6v39.6h16.1c.2-.1 1.1-1.4 1.1-3.5v-.1c0-14 6.3-28.7 12.2-35.5 10.6-12.3 17-28.2 17-42.6zm-33.6 20.6l-28.5 17.7c-.4.3-.9.4-1.3.4-.8 0-1.7-.4-2.1-1.2-.7-1.2-.4-2.7.8-3.4l28.5-17.7c1.2-.7 2.7-.4 3.4.8.8 1.1.4 2.7-.8 3.4z"/><path class="st19" d="M661.4 357.9c-10.8-10.3-25-15.6-40.1-14.9-13.4.6-26.1 6.1-35.6 15.6-9.6 9.5-15.2 22-15.8 35.4-.8 16.7 6.1 34.8 18.3 48.5 5.4 6 10.9 19.6 10.9 32.2 0 4.9 2.6 8.5 6.1 8.5h16.1v4.5c0 .4.1.9.3 1.2h-17.8c-1.4 0-2.5 1.1-2.5 2.5s1.1 2.5 2.5 2.5h40.3c1.4 0 2.5-1.1 2.5-2.5s-1.1-2.5-2.5-2.5h-18.2c.2-.4.3-.8.3-1.2v-4.5h16.1c3.5 0 6.1-3.7 6.1-8.5v-.1c0-12.3 5.6-26.1 11-32.2 11.6-13.3 18.3-29.9 18.3-45.7.2-14.9-5.6-28.7-16.3-38.8zm-17.8 116.7c0 2.1-.9 3.4-1.1 3.5h-16.1v-39.6c0-.2 0-.4-.1-.6l13-8.1c1.2-.7 1.5-2.3.8-3.4-.7-1.2-2.3-1.5-3.4-.8l-28.5 17.7c-1.2.7-1.5 2.3-.8 3.4.5.8 1.3 1.2 2.1 1.2.5 0 .9-.1 1.3-.4l10.6-6.6V478h-16c-.3-.1-1.2-1.4-1.2-3.5 0-14.2-6.3-28.9-12.2-35.5-11.4-12.7-17.8-29.5-17.1-44.9 1.2-25.2 21.2-45 46.6-46.2.8 0 1.6-.1 2.4-.1 12.8 0 24.8 4.8 34 13.6 9.6 9.2 14.9 21.6 14.9 35 0 14.4-6.4 30.3-17.1 42.4-5.9 6.8-12.2 21.5-12.2 35.5v.3zM639.8 498.9h-31.4c-1.4 0-2.5 1.1-2.5 2.5s1.1 2.5 2.5 2.5h31.4c1.4 0 2.5-1.1 2.5-2.5s-1.2-2.5-2.5-2.5z"/><path class="st13" d="M632.4 514.1h-16.7c1.1 3.6 4.4 6.2 8.3 6.2s7.3-2.6 8.4-6.2z"/><path class="st19" d="M635.3 509.1h-22.4c-1.4 0-2.5 1.1-2.5 2.5 0 7.6 6.1 13.7 13.7 13.7s13.7-6.1 13.7-13.7c0-1.4-1.1-2.5-2.5-2.5zm-19.6 5h16.7c-1.1 3.6-4.4 6.2-8.3 6.2s-7.3-2.6-8.4-6.2zM623.9 334c1.4 0 2.5-1.1 2.5-2.5v-15.2c0-1.4-1.1-2.5-2.5-2.5s-2.5 1.1-2.5 2.5v15.2c0 1.4 1.1 2.5 2.5 2.5zM593 339.1c.4.9 1.3 1.4 2.3 1.4.4 0 .7-.1 1.1-.2 1.2-.6 1.8-2.1 1.2-3.3l-6.6-13.7c-.6-1.2-2.1-1.8-3.3-1.2-1.2.6-1.8 2.1-1.2 3.3l6.5 13.7zM558.9 348.8l11.9 9.5c.5.4 1 .5 1.6.5.7 0 1.5-.3 2-.9.9-1.1.7-2.7-.4-3.5l-11.9-9.5c-1.1-.9-2.7-.7-3.5.4-1 1-.8 2.6.3 3.5zM544.2 381.8l14.8 3.4c.2 0 .4.1.6.1 1.1 0 2.2-.8 2.4-1.9.3-1.3-.5-2.7-1.9-3l-14.8-3.4c-1.4-.3-2.7.5-3 1.9-.3 1.2.6 2.6 1.9 2.9zM562.1 411.5c-.3-1.3-1.6-2.2-3-1.9l-14.8 3.4c-1.3.3-2.2 1.6-1.9 3 .3 1.2 1.3 1.9 2.4 1.9.2 0 .4 0 .6-.1l14.8-3.4c1.3-.2 2.2-1.5 1.9-2.9zM570.8 436.6l-11.9 9.5c-1.1.9-1.3 2.4-.4 3.5.5.6 1.2.9 2 .9.5 0 1.1-.2 1.6-.5l11.9-9.5c1.1-.9 1.3-2.4.4-3.5-1-1.1-2.5-1.3-3.6-.4zM688.9 446.1l-11.9-9.5c-1.1-.9-2.7-.7-3.5.4-.9 1.1-.7 2.7.4 3.5l11.9 9.5c.5.4 1 .5 1.6.5.7 0 1.5-.3 2-.9.8-1.1.6-2.7-.5-3.5zM703.6 413l-14.8-3.4c-1.4-.3-2.7.5-3 1.9s.5 2.7 1.9 3l14.8 3.4c.2 0 .4.1.6.1 1.1 0 2.2-.8 2.4-1.9.3-1.4-.6-2.8-1.9-3.1zM685.7 383.3c.3 1.2 1.3 1.9 2.4 1.9.2 0 .4 0 .6-.1l14.8-3.4c1.3-.3 2.2-1.6 1.9-3-.3-1.3-1.6-2.2-3-1.9l-14.8 3.4c-1.3.4-2.2 1.8-1.9 3.1zM675.5 358.8c.5 0 1.1-.2 1.6-.5l11.9-9.5c1.1-.9 1.3-2.4.4-3.5s-2.4-1.3-3.5-.4l-11.9 9.5c-1.1.9-1.3 2.4-.4 3.5.4.6 1.1.9 1.9.9zM651.4 340.3c.3.2.7.2 1.1.2.9 0 1.8-.5 2.3-1.4l6.6-13.7c.6-1.2.1-2.7-1.2-3.3-1.2-.6-2.7-.1-3.3 1.2l-6.6 13.7c-.6 1.2-.1 2.7 1.1 3.3zM636.7 412.9l-28.5 17.7c-1.2.7-1.5 2.3-.8 3.4.5.8 1.3 1.2 2.1 1.2.5 0 .9-.1 1.3-.4l28.5-17.7c1.2-.7 1.5-2.3.8-3.4-.7-1.2-2.2-1.6-3.4-.8z"/></g><g class="st0"><path class="st6" d="M258.8 86.6h142v110.7h-142z"/><path class="st1" d="M273.5 183.2h113.2v-35.6L353.1 114l-41.5 41.6-12.9-13-25.3 25.3z"/><circle class="st5" cx="288.9" cy="116.5" r="15.5"/></g><g class="st0"><path class="st3" d="M164 592.4v-44.5H89.7v44.5c0 20.5 16.7 37.1 37.1 37.1 20.6.1 37.2-16.6 37.2-37.1zM129.4 505.9v37H164c0-19.6-15.3-35.7-34.6-37z"/><path class="st13" d="M124.4 542.9v-37c-19.3 1.3-34.6 17.4-34.6 37h34.6z"/><path class="st19" d="M126.9 500.8c-23.2 0-42.1 18.9-42.1 42.1v49.5c0 23.2 18.9 42.1 42.1 42.1 23.2 0 42.1-18.9 42.1-42.1V543c0-23.3-18.9-42.2-42.1-42.2zm-37.2 91.6v-44.5H164v44.5c0 20.5-16.7 37.1-37.1 37.1-20.5.1-37.2-16.6-37.2-37.1zm34.7-86.5v37H89.7c.1-19.6 15.4-35.7 34.7-37zm5 0c19.3 1.3 34.6 17.4 34.6 37h-34.6v-37z"/></g><path class="st20" d="M69.2 381.1h-46V414h12.4c0-1.5.1-3.1.2-4.6.4-3.1 1-6.3 2.7-9 1.9-3.1 5-4.6 8.5-5.3 2.4-.5 4.8-.6 7.2-.6v74.6c0 4.6-1.9 6.8-6.5 6.8h-7.8v12.4h56.8v-12.4h-7.8c-4.6 0-6.5-2.2-6.5-6.8v-74.6c2.4 0 4.9.1 7.2.6 3.5.7 6.6 2.2 8.5 5.3 1.7 2.7 2.4 5.9 2.7 9 .2 1.5.2 3.1.2 4.6h12.4v-32.9H69.2z"/><path class="st21" d="M706.3 532.5l.1.3-25.3 12.9v.3c-1.3-2.5-6.9-3.2-7.7-5.8-.8-2.7 3.7-6.3 3.4-9-.2-3-3.8-4.1-4.5-6.9-1.1-4.7 5-4.7 6.2-8.4.8-2.6-2.7-7.1-1.4-9.5 1.3-2.4 7-1.8 8.8-3.9v-.6l21.5 18.6-.4 1.5c-1.1 3.4-1.3 7-.7 10.5zM14.7 917.5l.2-.2 20.7 11.5.2-.2c-1.1 2 1.1 6.3-.4 8-1.5 1.8-6.1.4-7.8 1.8-1.9 1.6-1.1 4.6-2.7 6.3-2.7 3-5.6-1.3-8.7-.3-2.2.6-3.7 5.2-6 5.4-2.3.2-4.5-4-6.8-4.2l-.4.3 2.8-23.6 1.3-.4c2.9-.7 5.5-2.3 7.6-4.4zM5 837.7l-.1-.3 19.3-13.7-.1-.3c1.4 1.9 6.1 1.8 7.1 3.8 1 2.1-2.3 5.6-1.7 7.9.6 2.4 3.7 2.9 4.5 5.1 1.5 3.7-3.6 4.5-4.1 7.7-.4 2.3 3.1 5.5 2.3 7.7-.8 2.1-5.6 2.4-6.8 4.3v.5L5.5 847.8l.2-1.3c.6-3 .3-6-.7-8.8z"/><path class="st22" d="M686.1 90.4v.3l-23.4 3.5-.1.3c-.4-2.3-4.7-4.4-4.6-6.6.1-2.3 4.6-4 5.1-6.2.6-2.4-1.9-4.3-1.7-6.6.3-4 5.2-2.4 7.1-5 1.3-1.8-.2-6.3 1.5-7.9 1.7-1.5 6 .4 8-.8l.2-.5 12.1 20.4-.8 1.1c-1.9 2.2-3 5-3.4 8z"/><g class="st0"><path class="st6" d="M453.4 25.9h50.4v50.4h-50.4z"/><path class="st4" d="M453.4 40.7V11.2M518.6 76.4h-29.5M453.4 76.4L517.8 12"/></g><g class="st0"><path class="st4" d="M119.7 38.6v-22M148.2 78h-28.5V49.3M180.3 78h-21.8M97.1 39.6h60.6v61.3"/></g><g class="st0"><path class="st13" d="M521.4 144l8.4-12.8c1.3-2 2.3-4.3 2.8-6.7l2.7-12.8c.6-2.7 1.9-5.1 3.8-7.1l52.3-52.3 22.4 22.4-52.2 52.3c-1.9 1.9-4.4 3.3-7.1 3.8l-12.8 2.7c-2.4.5-4.6 1.4-6.7 2.8l-12.8 8.4-.8-.7z"/><path class="st19" d="M591.4 56l18.7 18.7-50.4 50.4c-1.6 1.6-3.6 2.7-5.8 3.1l-12.8 2.7c-2.7.6-5.3 1.6-7.6 3.2l-4.6 3.1 3.1-4.6c1.5-2.3 2.6-4.9 3.2-7.6l2.7-12.8c.5-2.2 1.5-4.2 3.1-5.8L591.4 56m0-7.3l-54.1 54.1c-2.3 2.3-3.9 5.2-4.5 8.4l-2.7 12.8c-.4 2.1-1.2 4-2.4 5.8l-9.6 14.6.9.9 2 2 .9.9 14.6-9.6c1.8-1.2 3.7-2 5.8-2.4l12.8-2.7c3.2-.7 6.1-2.2 8.4-4.5l54.1-54.1-26.2-26.2z"/><path class="st17" d="M564.2 111.9l33.1-33.2"/><path class="st6" d="M640.9 25.3c-7.2-7.2-18.3-7.7-24.9-1.2L593.2 47l-3.1-3.1c-1.2-1.2-3.1-1.2-4.2 0l-8.8 8.8c-1.2 1.2-1.2 3.1 0 4.2l32.2 32.2c1.2 1.2 3.1 1.2 4.2 0l8.8-8.8c1.2-1.2 1.2-3.1 0-4.2l-3.1-3.1 22.9-22.9c6.5-6.5 6-17.6-1.2-24.8z"/></g><g class="st0"><path class="st3" d="M210.8 81.7c-.9 0-1.7-.3-2.4-1-.6-.6-1-1.5-1-2.3 0-.9.3-1.7 1-2.4l23.8-23.8c.6-.6 1.5-1 2.3-1h1.9v-3.4H233v1.9c0 .9-.3 1.7-1 2.3l-23.8 23.8c-.6.6-1.5 1-2.3 1s-1.7-.3-2.3-1c-.9-.9-1.2-2.4-.7-3.6l16.7-40.9c.5-1.2 1.4-2.2 2.6-2.9l22.9-11.7c.5-.2 1-.4 1.5-.4.9 0 1.7.3 2.4 1l17.9 17.9c1 1 1.3 2.6.6 3.9L255.8 62c-.6 1.2-1.6 2.1-2.9 2.6L212 81.3c-.3.3-.8.4-1.2.4z"/><path class="st19" d="M246.7 18.9c.2 0 .4.1.6.2L265.2 37c.3.3.3.6.2 1l-11.7 22.9c-.3.7-.9 1.2-1.6 1.4L211.2 79c-.1 0-.2.1-.3.1-.2 0-.4-.1-.6-.2-.3-.3-.3-.8 0-1.2L234 53.9c.2-.2.4-.2.6-.2h3.6c.5 0 .8-.4.8-.8v-6.7c0-.5-.4-.8-.8-.8h-6.7c-.5 0-.8.4-.8.8v3.6c0 .2-.1.4-.2.6l-23.8 23.8c-.2.2-.4.2-.6.2s-.4-.1-.6-.2c-.2-.2-.3-.6-.2-.9l16.7-41c.3-.7.8-1.2 1.4-1.6L246.3 19c.1 0 .3-.1.4-.1m0-5c-.9 0-1.8.2-2.7.6l-22.9 11.7c-1.7.9-3.1 2.3-3.8 4.1l-16.7 40.9c-.9 2.2-.4 4.7 1.3 6.3.9.9 2 1.4 3.2 1.6.2 1.2.8 2.3 1.6 3.2 1.1 1.1 2.6 1.7 4.1 1.7.8 0 1.5-.1 2.2-.4L253.9 67c1.8-.7 3.3-2.1 4.1-3.8l11.7-22.9c1.2-2.3.7-5-1.1-6.8l-17.9-17.9c-1-1.1-2.5-1.7-4-1.7z"/><path class="st15" d="M272.2 39.5c-1.3 0-2.5-.5-3.4-1.4l-22.6-22.6c-.9-.9-1.4-2.1-1.4-3.4 0-1.3.5-2.5 1.4-3.4l4.4-4.4c.9-.9 2.1-1.4 3.4-1.4 1.3 0 2.5.5 3.4 1.4L280 26.9c.9.9 1.4 2.1 1.4 3.4 0 1.3-.5 2.5-1.4 3.4l-4.4 4.4c-.9.9-2.1 1.4-3.4 1.4z"/><path class="st19" d="M254.1 5.4c.6 0 1.2.2 1.6.7l22.6 22.6c.9.9.9 2.4 0 3.3l-4.4 4.4c-.5.5-1 .7-1.6.7-.6 0-1.2-.2-1.6-.7L248 13.8c-.9-.9-.9-2.4 0-3.3l4.4-4.4c.5-.5 1.1-.7 1.7-.7m0-5c-2 0-3.8.8-5.2 2.1L244.4 7c-2.8 2.8-2.8 7.5 0 10.3L267 39.9c1.4 1.4 3.2 2.1 5.2 2.1s3.8-.8 5.2-2.1l4.4-4.4c1.4-1.4 2.1-3.2 2.1-5.2s-.8-3.8-2.1-5.2L259.2 2.5c-1.4-1.4-3.2-2.1-5.1-2.1z"/></g><g class="st0"><path class="st6" d="M174.9 1007.2h-109c-2.2 0-4-1.8-4-4V810.5c0-2.2 1.8-4 4-4h109c2.2 0 4 1.8 4 4v192.7c0 2.2-1.8 4-4 4z"/><path class="st1" d="M160.8 976.2H80c-1.6 0-3-1.3-3-3V830.5c0-1.6 1.3-3 3-3h80.8c1.6 0 3 1.3 3 3v142.8c-.1 1.5-1.4 2.9-3 2.9z"/><ellipse transform="matrix(.707 -.707 .707 .707 -542.751 324.545)" class="st23" cx="120.4" cy="817.4" rx="2.1" ry="2.1"/><ellipse transform="matrix(.707 -.707 .707 .707 -665.781 375.505)" class="st1" cx="120.4" cy="991.4" rx="7.3" ry="7.3"/></g><g class="st0"><path class="st24" d="M353.3 590.2c.5.5.9 1.1 1.3 1.7l24.6-14.7v-.3c-1.4-2.3.9-7.5-.9-9.6-1.9-2.1-7.3-.2-9.5-1.8s-2.1-7.3-4.5-8.5c-2.5-1.2-6.8 2.7-9.4 2l-6.7 28c1.8.6 3.7 1.7 5.1 3.2z"/><path class="st3" d="M353.3 590.2c.5.5.9 1.1 1.3 1.7l24.6-14.7v-.3c-1.4-2.3.9-7.5-.9-9.6-1.9-2.1-7.3-.2-9.5-1.8s-2.1-7.3-4.5-8.5c-2.5-1.2-6.8 2.7-9.4 2l-6.7 28c1.8.6 3.7 1.7 5.1 3.2z"/><path class="st4" d="M353.3 590.2c.5.5.9 1.1 1.3 1.7l24.6-14.7v-.3c-1.4-2.3.9-7.5-.9-9.6-1.9-2.1-7.3-.2-9.5-1.8s-2.1-7.3-4.5-8.5c-2.5-1.2-6.8 2.7-9.4 2l-6.7 28c1.8.6 3.7 1.7 5.1 3.2z"/><path class="st25" d="M315.4 564.7c-2.1 1.9-.2 7.3-1.8 9.5s-7.3 2.1-8.5 4.5c-1.2 2.5 2.7 6.8 2 9.4-.6 2.7-6 4.7-6.1 7.4-.1 2.7 5 5.2 5.5 7.9l28.5-4.3c-.6-3.4.5-7.1 3.3-9.6 2.7-2.5 6.4-3.3 9.8-2.5l6.7-28c-2.7-.6-4.7-6-7.4-6.1-2.7-.1-5.2 5-7.9 5.5-2.7.4-6.6-3.8-9.2-2.8-2.6.9-2.9 6.6-5.2 8.1-2.4 1.4-7.6-.9-9.7 1zm24.4 23.8L324.6 564l15.2 24.5z"/><path class="st13" d="M315.4 564.7c-2.1 1.9-.2 7.3-1.8 9.5s-7.3 2.1-8.5 4.5c-1.2 2.5 2.7 6.8 2 9.4-.6 2.7-6 4.7-6.1 7.4-.1 2.7 5 5.2 5.5 7.9l28.5-4.3c-.6-3.4.5-7.1 3.3-9.6 2.7-2.5 6.4-3.3 9.8-2.5l6.7-28c-2.7-.6-4.7-6-7.4-6.1-2.7-.1-5.2 5-7.9 5.5-2.7.4-6.6-3.8-9.2-2.8-2.6.9-2.9 6.6-5.2 8.1-2.4 1.4-7.6-.9-9.7 1zm24.4 23.8L324.6 564l15.2 24.5z"/><path class="st4" d="M315.4 564.7c-2.1 1.9-.2 7.3-1.8 9.5s-7.3 2.1-8.5 4.5c-1.2 2.5 2.7 6.8 2 9.4-.6 2.7-6 4.7-6.1 7.4-.1 2.7 5 5.2 5.5 7.9l28.5-4.3c-.6-3.4.5-7.1 3.3-9.6 2.7-2.5 6.4-3.3 9.8-2.5l6.7-28c-2.7-.6-4.7-6-7.4-6.1-2.7-.1-5.2 5-7.9 5.5-2.7.4-6.6-3.8-9.2-2.8-2.6.9-2.9 6.6-5.2 8.1-2.4 1.4-7.6-.9-9.7 1zm24.4 23.8L324.6 564l15.2 24.5z"/><path class="st1" d="M312.8 627.5c1.9 2.1 7.3.2 9.5 1.8s2.1 7.3 4.5 8.5c2.5 1.2 6.8-2.7 9.4-2 2.7.6 4.7 6 7.4 6.1 2.7.1 5.2-5 7.9-5.5l-5-28.4 5 28.4c2.7-.4 6.6 3.8 9.2 2.8 2.6-.9 2.9-6.6 5.2-8.1 2.3-1.4 7.5.9 9.6-.9 1.6-1.5.8-5.1 1.1-7.6l.6-1.3-23.4-17.4c-.4.5-.8 1-1.2 1.4-4.3 4-11 3.7-15-.6-.4-.4-.7-.8-1-1.2L311.9 618c1.2 2.4-1 7.5.9 9.5zM393.1 602l-.2-.2 13.3-25-.2-.2c2.5 1.3 7.5-1.4 9.6.3 2.1 1.7.6 7.2 2.3 9.3 1.9 2.3 5.5 1.2 7.6 3.1 3.6 3.2-1.4 6.7-.2 10.4.8 2.6 6.3 4.3 6.6 7 .3 2.7-4.7 5.5-4.9 8.3l.3.5-28.3-2.9-.4-1.5c-1.1-3.4-3-6.6-5.5-9.1z"/></g><g class="st0"><path class="st1" d="M319.4 771v83c0 2.2 2 4 4.4 4h112.9c2.4 0 4.4-1.8 4.4-4V684c0-2.2-2-4-4.4-4H323.8c-2.4 0-4.4 1.8-4.4 4v87z"/><path class="st5" d="M392.2 699.3h-89.8c-2.4 0-4.4 1.8-4.4 4v170.1c0 2.2 2 4 4.4 4h112.9c2.4 0 4.4-1.8 4.4-4V727.6"/><path class="st5" d="M392.2 699.3v24.3c0 2.2 2 4 4.4 4h23.1l-27.5-28.3zM315.6 778.6h89.1M315.6 797.7h89.1M326 816.8h68.3M326 760.2h68.3"/></g><g class="st0"><circle class="st1" cx="294.1" cy="954.2" r="12.2"/><circle class="st1" cx="390.9" cy="923.7" r="9.9"/><path class="st4" d="M306.9 954.2h124.3"/><path class="st1" d="M431.2 944.2l21.1 10-21.1 10.1zM418.59 975.91v17.6h-17.6v-17.6z"/><path class="st4" d="M320.7 953.8l30.1-30.1H381M348.6 954.2l30.8 30.5H401"/></g><path class="st21" d="M396 30.9c-1.4-2.4-7.1-1.7-8.9-3.7-1.8-2.1-.5-7.6-2.6-9.3-2.2-1.7-7.2 1.2-9.6 0-2.5-1.2-3.3-6.8-6-7.5-2.7-.7-6.2 3.8-8.9 3.7l-1.1 28.8L360 14c-2.7-.2-5.7-5.1-8.4-4.7-2.7.4-4.2 5.9-6.8 6.8-2.5.9-7.1-2.5-9.6-1.1-1.9 1.1-1.9 4.8-2.7 7.2l-.9 1.1 19.2 22c.5-.4 1-.8 1.5-1.1 5-3 11.5-1.3 14.5 3.8.3.5.5.9.7 1.4l27.4-9.1c-.7-2.6 2.5-7 1.1-9.4z"/></svg>