<?xml version="1.0" encoding="UTF-8" standalone="no"?>
<svg width="14px" height="17px" viewBox="0 0 14 17" version="1.1" xmlns="http://www.w3.org/2000/svg" xmlns:xlink="http://www.w3.org/1999/xlink" xmlns:sketch="http://www.bohemiancoding.com/sketch/ns">
    <!-- Generator: Sketch 3.2.2 (9983) - http://www.bohemiancoding.com/sketch -->
    <title>github</title>
    <desc>Created with Sketch.</desc>
    <defs></defs>
    <g id="Page-1" stroke="none" stroke-width="1" fill="none" fill-rule="evenodd" sketch:type="MSPage">
        <g id="github" sketch:type="MSLayerGroup" fill="#5F666F">
            <path d="M2.43663,0.203610417 C2.134965,1.09228542 2.02965,2.05622083 2.300375,2.89853542 C1.97372,3.26460208 1.72025,3.68606042 1.53937,4.16291042 C1.05623,5.70785625 1.17404,7.68389375 2.23195,8.87842708 C2.603825,9.29145625 3.108385,9.62982708 3.742655,9.89534583 C4.376925,10.1608646 5.193265,10.3306521 6.18989,10.4035042 C5.520515,10.7202 5.04868,10.9140708 4.88446,11.6136917 C4.137735,12.1182375 3.23036,11.9984229 2.571695,11.449925 C2.051665,11.0645917 1.81545,10.3836354 1.23949,10.1301583 C1.203195,10.0928292 1.090145,10.0669396 0.90034,10.0476729 C0.70994,10.0290083 0.56,10.0837979 0.451115,10.2120417 C0.39697,10.2662292 0.40054,10.3252333 0.464205,10.3896563 C0.899745,10.7491 1.32041,11.1296167 1.56674,11.5853938 C1.80236,12.0803063 2.12723,12.3789396 2.38189,12.6083333 C3.08637,13.09 4.009215,13.2621958 4.836265,12.9563375 C4.739875,13.5457771 4.9392,14.6060458 4.748205,15.1316646 C4.675615,15.2785729 4.57149,15.4068167 4.43583,15.5176 C4.315045,15.6374146 3.939005,15.7867313 4.015165,15.9703667 C4.05146,16.0528521 4.1776,16.1034271 4.39537,16.1220917 C4.87494,16.1094479 5.418175,15.9125667 5.699015,15.5308458 C5.798975,15.3929688 5.915,15.21415 5.915,14.9943896 L5.915,12.7413938 C5.915,12.4843042 6.00782,12.302475 6.116705,12.1910896 C6.22559,12.0815104 6.32436,11.9972188 6.51,11.9713292 L6.51,14.9414063 C6.51,15.1978938 6.198815,15.9131688 6.16133,15.9860208 C6.078625,16.1281125 5.89358,16.2575604 5.89001,16.4249396 C5.89001,16.4809333 5.909645,16.5128438 5.97331,16.5206708 C6.449905,16.5002 6.84082,16.2166188 7.03479,15.8192438 C7.281715,15.4399313 7.337645,15.21415 7.4025,14.7758333 L7.4025,12.00625 L7.9975,12.00625 L7.9975,14.7758333 C7.9975,15.1419 7.938,15.4905063 8.101625,15.8186417 C8.264655,16.1491854 8.764455,16.3605167 9.14466,16.4526354 C9.34458,16.5080271 9.44454,16.5291 9.516535,16.5200688 C9.589125,16.5110375 9.603405,16.4797292 9.59448,16.4243375 C9.55164,16.2587646 9.318995,16.1154688 9.222605,15.9854188 C9.09587,15.8198458 8.89,15.4718417 8.89,14.9402021 L8.89,11.9707271 C9.08516,12.0152813 9.165485,12.0815104 9.28389,12.1904875 C9.401105,12.3012708 9.485,12.4843042 9.485,12.7413938 L9.485,14.9943896 C9.485,15.21415 9.64208,15.3929688 9.74204,15.5308458 C10.04549,15.9209958 10.555405,16.1196833 11.03319,16.1220917 C11.250365,16.1034271 11.403875,16.0528521 11.440765,15.9703667 C11.477655,15.8878813 11.463375,15.8198458 11.372935,15.7644542 C11.282495,15.7090625 11.17599,15.6265771 11.03914,15.5176 C10.902885,15.4080208 10.80352,15.279175 10.72974,15.1316646 C10.648225,14.1869958 10.729145,13.1736896 10.663695,12.2175813 C10.53339,11.1747729 10.13712,10.8303813 9.34577,10.4305979 C10.28944,10.3583479 11.064725,10.1831417 11.67103,9.90798958 C13.487565,9.01570208 13.98915,7.635125 13.99748,5.78432083 C13.968325,4.59279792 13.629175,3.55480625 12.85389,2.75885208 C12.96337,2.33799583 12.99431,1.89907708 12.949685,1.44089167 C12.904465,0.98270625 12.80867,0.569677083 12.66349,0.203008333 C11.992925,0.2403375 11.43065,0.376408333 10.97726,0.614833333 C10.52387,0.853258333 10.197215,1.05495625 9.99789,1.22052917 C8.391985,0.851452083 6.67184,0.849645833 5.13079,1.27531875 C4.341225,0.6232625 3.36483,0.259604167 2.43663,0.203610417 L2.43663,0.203610417 Z" id="Shape" sketch:type="MSShapeGroup"></path>
        </g>
    </g>
</svg>