<?xml version="1.0" encoding="UTF-8" standalone="no"?>
<svg width="18px" height="16px" viewBox="0 0 18 16" version="1.1" xmlns="http://www.w3.org/2000/svg" xmlns:xlink="http://www.w3.org/1999/xlink" xmlns:sketch="http://www.bohemiancoding.com/sketch/ns">
    <!-- Generator: Sketch 3.2.2 (9983) - http://www.bohemiancoding.com/sketch -->
    <title>home</title>
    <desc>Created with Sketch.</desc>
    <defs></defs>
    <g id="Page-1" stroke="none" stroke-width="1" fill="none" fill-rule="evenodd" sketch:type="MSPage">
        <g id="home" sketch:type="MSLayerGroup" transform="translate(-1.000000, 0.000000)" fill="#5F666F">
            <g id="Icons" sketch:type="MSShapeGroup">
                <g id="home">
                    <path d="M9.00001764,15.50025 C9.00001764,15.77625 8.76701764,16.00025 8.48801764,16.00025 L3.95401764,16.00025 C3.39801764,16.00025 3.00001764,15.55325 3.00001764,15.00025 L3.00001764,9.00025 L1.52101764,9.00025 C0.965017643,9.00025 0.833017643,8.68425 1.22701764,8.29325 L9.28701764,0.29325 C9.68201764,-0.09775 10.3180176,-0.09775 10.7130176,0.29325 L18.7730176,8.29325 C19.1670176,8.68425 19.0350176,9.00025 18.4780176,9.00025 L17.0000176,9.00025 L17.0000176,15.00025 C17.0000176,15.55325 16.6020176,16.00025 16.0460176,16.00025 L11.5120176,16.00025 C11.2330176,16.00025 11.0000176,15.77625 11.0000176,15.50025 L11.0000176,12.00025 L9.00001764,12.00025 L9.00001764,15.50025 L9.00001764,15.50025 Z M15.0000176,14.00025 L15.0000176,7.41425 L10.0000176,2.41425 L5.00001764,7.41425 L5.00001764,14.00025 L7.00001764,14.00025 L7.00001764,11.00025 C7.00001764,10.44725 7.42801764,10.00025 7.98401764,10.00025 L12.0160176,10.00025 C12.5720176,10.00025 13.0000176,10.44725 13.0000176,11.00025 L13.0000176,14.00025 L15.0000176,14.00025 L15.0000176,14.00025 Z" id="Imported-Layers"></path>
                </g>
            </g>
        </g>
    </g>
</svg>