<?xml version="1.0" encoding="UTF-8" standalone="no"?>
<svg width="16px" height="14px" viewBox="0 0 16 14" version="1.1" xmlns="http://www.w3.org/2000/svg" xmlns:xlink="http://www.w3.org/1999/xlink" xmlns:sketch="http://www.bohemiancoding.com/sketch/ns">
    <!-- Generator: Sketch 3.2.2 (9983) - http://www.bohemiancoding.com/sketch -->
    <title>how</title>
    <desc>Created with Sketch.</desc>
    <defs></defs>
    <g id="Page-1" stroke="none" stroke-width="1" fill="none" fill-rule="evenodd" sketch:type="MSPage">
        <g id="how" sketch:type="MSLayerGroup" fill="#5E666F">
            <g id="Icons" sketch:type="MSShapeGroup">
                <g id="how">
                    <path d="M8.70075,13.26975 C8.31875,13.66775 7.69775,13.66775 7.31575,13.26975 L1.17375,6.87475 C-0.39125,5.30075 -0.39125,2.75175 1.17375,1.17975 C2.73875,-0.39325 5.27675,-0.39325 6.84175,1.17975 L8.00775,2.60275 L9.17375,1.17975 C10.73975,-0.39325 13.27775,-0.39325 14.84175,1.17975 C16.40775,2.75175 16.40775,5.30075 14.84175,6.87475 L8.70075,13.26975 L8.70075,13.26975 Z M8.67975,4.70875 C8.30875,5.11875 7.70675,5.11875 7.33575,4.70875 L5.42375,2.60275 C4.64175,1.81575 3.37275,1.81575 2.58975,2.60275 C1.80775,3.38875 1.80775,4.66375 2.58975,5.45075 L8.00775,11.14375 L13.42575,5.45075 C14.20675,4.66375 14.20675,3.38875 13.42575,2.60275 C12.64275,1.81575 11.37375,1.81575 10.59175,2.60275 L8.67975,4.70875 L8.67975,4.70875 Z" id="Imported-Layers"></path>
                </g>
            </g>
        </g>
    </g>
</svg>