<?xml version="1.0" encoding="UTF-8" standalone="no"?>
<svg width="16px" height="16px" viewBox="0 0 16 16" version="1.1" xmlns="http://www.w3.org/2000/svg" xmlns:xlink="http://www.w3.org/1999/xlink" xmlns:sketch="http://www.bohemiancoding.com/sketch/ns">
    <!-- Generator: Sketch 3.2.2 (9983) - http://www.bohemiancoding.com/sketch -->
    <title>involved</title>
    <desc>Created with Sketch.</desc>
    <defs></defs>
    <g id="Page-1" stroke="none" stroke-width="1" fill="none" fill-rule="evenodd" sketch:type="MSPage">
        <g id="involved" sketch:type="MSLayerGroup" fill="#5F666F">
            <g id="Icons" sketch:type="MSShapeGroup">
                <g id="involved">
                    <path d="M15.9481344,14 C15.6981344,10.955 14.2551344,9.076 11.6731344,8.354 C12.4821344,7.467 12.9881344,6.297 12.9881344,5 C12.9881344,2.238 10.7501344,0 7.98813445,0 C5.22613445,0 2.98813445,2.238 2.98813445,5 C2.98813445,6.297 3.49413445,7.467 4.30313445,8.354 C1.72113445,9.076 0.27713445,10.955 0.02713445,14 C0.01513445,14.147 0.00613445,14.577 0.00013445,15.001 C-0.00886555,15.553 0.43513445,16 0.98813445,16 L14.9881344,16 C15.5411344,16 15.9851344,15.553 15.9761344,15.001 C15.9691344,14.577 15.9601344,14.147 15.9481344,14 L15.9481344,14 L15.9481344,14 Z M7.98813445,2 C9.6421344,2 10.9881344,3.346 10.9881344,5 C10.9881344,6.654 9.6421344,8 7.98813445,8 C6.33413445,8 4.98813445,6.654 4.98813445,5 C4.98813445,3.346 6.33413445,2 7.98813445,2 L7.98813445,2 L7.98813445,2 Z M2.03213445,14 C2.29813445,11.174 3.79113445,10 6.98813445,10 L8.9881344,10 C12.1851344,10 13.6781344,11.174 13.9441344,14 L2.03213445,14 L2.03213445,14 Z" id="Imported-Layers"></path>
                </g>
            </g>
        </g>
    </g>
</svg>