<?xml version="1.0" encoding="UTF-8" standalone="no"?>
<svg width="139px" height="139px" viewBox="0 0 139 139" version="1.1" xmlns="http://www.w3.org/2000/svg" xmlns:xlink="http://www.w3.org/1999/xlink" xmlns:sketch="http://www.bohemiancoding.com/sketch/ns">
    <!-- Generator: Sketch 3.2.2 (9983) - http://www.bohemiancoding.com/sketch -->
    <title>Community Picture</title>
    <desc>Created with Sketch.</desc>
    <defs>
        <circle id="path-1" cx="69.5" cy="69.5" r="69.5"></circle>
    </defs>
    <g id="Page-1" stroke="none" stroke-width="1" fill="none" fill-rule="evenodd" sketch:type="MSPage">
        <g id="Motivators" sketch:type="MSLayerGroup" transform="translate(-589.000000, -270.000000)">
            <g id="Content" transform="translate(0.000000, 233.000000)">
                <g id="Community-+-Community-Picture" transform="translate(589.000000, 27.000000)">
                    <g id="Community-Picture" transform="translate(0.000000, 10.000000)">
                        <mask id="mask-2" sketch:name="Oval 1" fill="white">
                            <use xlink:href="#path-1"></use>
                        </mask>
                        <use id="Oval-1" fill="#D8D8D8" sketch:type="MSShapeGroup" xlink:href="#path-1"></use>
                        <path d="M32.8411556,79.5004222 C35.5123333,78.8977111 36.0771778,72.6402444 32.1753333,71.7850889 C32.3268,71.2186667 32.4151556,70.6254222 32.4151556,70.0116667 C32.4151556,66.2297333 29.3495333,63.1641111 25.5676,63.1641111 C21.7872444,63.1641111 18.7216222,66.2297333 18.7216222,70.0116667 C18.7216222,73.7920222 21.7872444,76.8576444 25.5676,76.8576444 C28.0163111,76.8576444 30.1573556,75.5686 31.3690889,73.6358222 C32.6818,74.4389111 32.0601556,75.5575556 30.4445111,76.9475778 C29.5372889,77.727 28.7215778,78.2050667 29.4442,81.0845111 C29.2532889,79.4688667 29.7471333,80.1978 32.8411556,79.5004222 L32.8411556,79.5004222 Z M30.1336889,71.2391778 L29.9506667,71.9207778 L29.5783111,72.5156 C28.7042222,73.9119333 27.2053333,74.745 25.5676,74.745 C22.9579556,74.745 20.8342667,72.6213111 20.8342667,70.0116667 C20.8342667,67.4004444 22.9579556,65.2783333 25.5676,65.2783333 C28.1788222,65.2783333 30.3009333,67.4020222 30.3009333,70.0116667 C30.3025111,70.4092667 30.2457111,70.8226444 30.1336889,71.2391778 L30.1336889,71.2391778 Z M39.7975778,99.1279778 C44.7297111,104.058533 46.1228889,110.663111 42.0979778,114.686444 C39.9821778,116.803822 35.6054222,118.965378 31.2144667,119.823689 L28.4928,110.103 L19.1034444,107.700044 C19.9633333,103.312244 22.1233111,98.9418 24.2375333,96.826 C28.2624444,92.8026667 34.8654444,94.1974222 39.7975778,99.1279778 L39.7975778,99.1279778 Z M109.166156,46.9556 C111.376622,47.7886667 114.063578,48.0695111 116.890956,47.2522222 L105.218556,57.5992889 C104.115689,58.5790889 102.424311,58.4781111 101.446089,57.3720889 C100.466289,56.2676444 100.568844,54.5778444 101.673289,53.5996222 L109.166156,46.9556 L109.166156,46.9556 Z M28.9582444,15.2785556 C26.0078,15.2785556 23.0589333,16.4035111 20.8074444,18.655 C16.3044667,23.1564 16.3060444,30.4552 20.8074444,34.9566 C23.0589333,37.2080889 26.0078,38.3330444 28.9582444,38.3330444 C31.9086889,38.3330444 34.8591333,37.2080889 37.1106222,34.9566 C41.6120222,30.4552 41.6120222,23.1564 37.1106222,18.655 C34.8591333,16.4035111 31.9086889,15.2785556 28.9582444,15.2785556 L28.9582444,15.2785556 Z M35.3166889,33.1626667 C33.619,34.8619333 31.3612,35.7959778 28.9582444,35.7959778 C26.5568667,35.7959778 24.2990667,34.8603556 22.5998,33.1626667 C19.0939778,29.6568444 19.0939778,23.9531778 22.5998,20.4473556 C24.2974889,18.7480889 26.5568667,17.8140444 28.9582444,17.8140444 C31.3596222,17.8140444 33.619,18.7480889 35.3166889,20.4473556 C38.8225111,23.9531778 38.8225111,29.6584222 35.3166889,33.1626667 L35.3166889,33.1626667 Z M9.14135556,79.5651111 C6.61217778,79.9532444 3.04797778,81.1097556 -0.000288888889,82.7459111 L-0.000288888889,56.4932667 C3.03851111,58.0379111 6.639,59.1565556 9.37644444,59.7498 C10.1842667,59.8129111 10.9605333,59.9817333 11.7020889,60.2278667 C15.3436,57.7160444 20.4145778,56.1540444 26.0172667,56.1540444 C32.5760889,56.1540444 38.7294222,58.3203333 42.4750667,61.9492222 C42.7164667,62.1827333 42.7922,62.5393111 42.6659778,62.8517111 C42.5397556,63.1641111 42.2384,63.3676444 41.9023333,63.3676444 L38.7388889,63.3676444 C38.5684889,63.3676444 38.4012444,63.3155778 38.2624,63.2161778 C35.1604889,61.0230667 30.6969556,59.764 26.0172667,59.764 C21.8850667,59.764 18.1110222,60.7154 15.2426222,62.2774 C16.7935778,63.6768889 17.8996,65.5576 18.3271778,67.6844444 C18.0920889,68.4196889 17.9611333,69.2006889 17.9611333,70.0132444 C17.9611333,70.7074667 18.0621111,71.3748667 18.2372444,72.0154444 C17.7481333,74.0018667 16.6626222,75.7547778 15.1795111,77.0706444 C18.0542222,78.6531556 21.8550889,79.6187556 26.0188444,79.6187556 C26.9828667,79.6187556 27.9358444,79.5619556 28.8714667,79.4578222 C28.8178222,80.2246222 29.1349556,81.1634 29.6193333,82.6701778 C29.4079111,80.8746667 29.4079111,80.8746667 32.8916444,80.3461111 C34.1522889,80.1552 34.9396,79.1059778 35.2772444,77.8153556 C36.3659111,77.3467556 37.3741111,76.7961111 38.2655556,76.1665778 C38.4044,76.0687556 38.5716444,76.0151111 38.7420444,76.0151111 L41.9039111,76.0151111 C42.2399778,76.0151111 42.5413333,76.2202222 42.6675556,76.5310444 C42.7937778,76.8434444 42.7180444,77.1984444 42.4766444,77.4335333 C38.731,81.0624222 32.5776667,83.2287111 26.0188444,83.2287111 C20.3735556,83.2287111 15.2710222,81.6430444 11.6232,79.0996667 C11.2240222,79.2274667 10.8185333,79.3394889 10.4004222,79.4168 L10.4004222,79.4357333 C10.3388889,79.4388889 10.2789333,79.4452 10.2174,79.4483556 C9.86397778,79.5035778 9.50582222,79.5446 9.14135556,79.5651111 L9.14135556,79.5651111 Z M99.3539556,26.4807778 C103.123267,18.4656667 105.690311,17.7383111 103.027022,15.0639778 C107.919711,15.1633778 111.987222,18.1169778 112.604133,20.9932667 C115.128578,21.1194889 117.627778,22.0693111 119.669422,23.8727111 C121.711067,25.6761111 122.959089,28.0427778 123.394556,30.5309333 C126.322911,30.7896889 129.756156,34.4659111 130.455111,39.3081111 C127.471533,36.9919333 127.066044,39.6299778 119.574756,44.3522667 C112.659356,48.7116667 105.734489,44.6015556 104.551156,41.3387111 C104.4912,41.2882222 104.428089,41.2393111 104.368133,41.1840889 C104.308178,41.1304444 104.251378,41.0752222 104.194578,41.02 C100.808667,40.2468889 95.8781111,33.8805556 99.3539556,26.4807778 L99.3539556,26.4807778 Z M-0.000288888889,-3 L24.5499333,-3 C25.7869111,-0.9268 26.8598,1.36571111 27.6944444,3.7308 C32.0775111,6.301 37.5113778,10.6036 42.9058,15.9980222 C53.4690222,26.5612444 60.9729333,39.955 57.2004667,39.955 C54.1632444,39.955 47.8963111,36.1178444 41.0771556,30.9616667 C42.6091778,26.4823556 41.5915111,21.3230222 38.0178444,17.7477778 C33.0162889,12.7462222 24.9065111,12.7462222 19.9049556,17.7477778 C14.9034,22.7493333 14.9034,30.8591111 19.9049556,35.8606667 C23.4786222,39.4343333 28.6379556,40.4535778 33.1188444,38.9199778 C38.2750222,45.7391333 42.1121778,52.0060667 42.1121778,55.0432889 C42.1121778,58.8173333 28.7184222,51.3118444 18.1552,40.7486222 C12.7623556,35.3557778 8.45817778,29.9219111 5.88797778,25.5372667 C3.83528889,24.8178 1.84413333,23.9168889 -0.000288888889,22.8850222 L-0.000288888889,-3 L-0.000288888889,-3 Z M70.9997111,101.422067 C68.1691778,101.422067 65.8750889,104.994156 65.8750889,109.399311 C65.8750889,113.804467 68.1691778,117.376556 70.9997111,117.376556 C73.8302444,117.376556 76.1243333,113.806044 76.1243333,109.399311 C76.1243333,104.994156 73.8302444,101.422067 70.9997111,101.422067 L70.9997111,101.422067 Z M70.9997111,115.262333 C69.5797111,115.262333 67.9877333,112.755244 67.9877333,109.399311 C67.9877333,106.043378 69.5797111,103.536289 70.9997111,103.536289 C72.4197111,103.536289 74.0101111,106.043378 74.0101111,109.399311 C74.0101111,112.755244 72.4197111,115.262333 70.9997111,115.262333 L70.9997111,115.262333 Z M129.929711,61.7172889 C126.636889,58.1783333 121.700022,55.9252667 116.1778,55.9252667 C113.221044,55.9252667 110.433111,56.5753111 107.974933,57.7176222 C109.052556,57.7302444 110.150689,57.8170222 111.259867,57.9905778 C117.754,59.0098222 123.004844,62.6182 125.459867,67.1574667 C125.182178,67.7980444 124.9534,68.4654444 124.781422,69.1549333 C123.542867,66.0703778 120.530889,63.8914667 117.004556,63.8914667 C115.966378,63.8914667 114.978689,64.0886889 114.062,64.4326444 L114.062,64.4247556 L109.494333,63.0536667 L110.237467,65.5686444 L107.768244,66.2644444 L109.240311,69.1202222 C109.172467,69.2843111 109.114089,69.4499778 109.057289,69.6188 L107.266511,69.6188 L108.620244,72.2742 L104.928244,74.0902222 L109.192978,75.3193111 L107.264933,76.6052 L110.098622,79.2606 L110.098622,81.4963111 L114.062,80.1252222 L114.062,80.1173333 C114.978689,80.4612889 115.966378,80.6585111 117.004556,80.6585111 C120.529311,80.6585111 123.542867,78.4780222 124.781422,75.3950444 C125.005467,76.2896444 125.330489,77.1416444 125.729667,77.9526222 C122.826556,83.5963333 115.193267,86.9065111 106.930444,85.6111556 C106.583333,85.5575111 106.242533,85.4928222 105.904889,85.4249778 C108.815889,87.2630889 112.356422,88.3438667 116.179378,88.3438667 C121.613244,88.3438667 126.479111,86.1602222 129.773511,82.7175111 C131.881422,84.2306 134.461089,85.1315111 137.253756,85.1315111 C138.930933,85.1315111 140.5308,84.8064889 142.001289,84.2227111 L142.001289,60.3272667 C140.5308,59.7419111 138.930933,59.4184667 137.253756,59.4184667 C134.530511,59.4184667 132.009222,60.2720444 129.929711,61.7172889 L129.929711,61.7172889 Z M116.939867,78.8014667 C113.464022,78.8014667 110.644533,75.9819778 110.644533,72.5045556 C110.644533,69.0287111 113.464022,66.2092222 116.939867,66.2092222 C120.417289,66.2092222 123.236778,69.0287111 123.236778,72.5045556 C123.236778,75.9835556 120.417289,78.8014667 116.939867,78.8014667 L116.939867,78.8014667 Z M103.361511,107.6748 C103.740178,106.093867 104.548,104.591822 105.781822,103.358 C109.3476,99.7938 115.127,99.7938 118.692778,103.358 C122.256978,106.9222 122.256978,112.703178 118.692778,116.267378 C115.127,119.831578 109.3476,119.831578 105.781822,116.267378 C104.903,115.388556 104.243489,114.3772 103.796978,113.296422 C102.441667,114.424533 100.422111,114.353533 99.1504222,113.081844 C97.8014222,111.732844 97.8014222,109.544467 99.1504222,108.195467 C100.292733,107.053156 102.0346,106.882756 103.361511,107.6748 L103.361511,107.6748 Z M141.999711,-3 L141.999711,24.8114889 C141.867178,25.0418444 141.701511,25.2564222 141.493244,25.4426 L130.743844,34.9723778 C129.727756,33.2557556 128.415044,31.9067556 127.047111,31.1036667 L132.7776,26.0232222 L123.883667,27.5694444 C123.161044,25.8275778 122.050289,24.2166667 120.541933,22.8850222 C119.033578,21.5518 117.2996,20.6493111 115.482,20.1444222 L115.925356,11.1274222 L111.586467,17.4385333 C110.624022,16.1810444 109.123556,15.0434667 107.294911,14.2466889 L115.433089,2.40862222 C115.685533,2.03942222 116.0216,1.76331111 116.393956,1.56766667 L116.618,-3 L141.999711,-3 L141.999711,-3 Z M140.382489,113.346911 C140.382489,113.346911 140.986778,113.7098 141.999711,114.2778 L141.999711,139 L116.879911,139 C116.400267,138.135378 116.100489,137.627333 116.100489,137.627333 C114.254489,134.929333 113.249444,131.830578 113.085356,128.695533 C108.932644,127.177711 104.7042,124.498644 100.977489,120.771933 C92.6215778,112.414444 91.4808444,96.1333556 92.9876222,94.6265778 C93.5461556,94.0680444 98.3946667,98.6262444 104.267156,104.580778 C103.740178,105.467489 103.352044,106.415733 103.116956,107.392378 C101.641733,106.511978 99.7073778,106.701311 98.4372667,107.971422 C96.9383778,109.470311 96.9383778,111.901667 98.4372667,113.398978 C99.8509556,114.812667 102.094556,114.891556 103.601333,113.6388 C104.095178,114.839489 104.830422,115.964444 105.805489,116.939511 C109.765711,120.899733 116.187267,120.899733 120.149067,116.939511 C124.110867,112.977711 124.110867,106.556156 120.149067,102.595933 C116.883067,99.3299333 111.943044,98.7587778 108.088533,100.880889 C102.108756,94.9736889 97.4984889,90.1141333 97.9907556,89.6218667 C99.3097778,88.3028444 115.778622,89.2558222 124.136111,97.6117333 C128.066356,101.541978 130.8322,106.029178 132.301111,110.398044 C135.144267,110.688356 137.929044,111.669733 140.382489,113.346911 L140.382489,113.346911 Z M98.0507111,37.1307778 L92.3770222,45.3825556 C91.5423778,46.5990222 89.8778222,46.9066889 88.6613556,46.0720444 C87.4417333,45.2326667 87.1356444,43.5712667 87.9734444,42.3548 L96.8074222,29.5038 C96.3435556,32.4069111 96.9525778,35.0386444 98.0507111,37.1307778 L98.0507111,37.1307778 Z M45.0752444,123.854911 L32.2084667,129.509667 L23.111,139 L-0.000288888889,139 L-0.000288888889,116.232667 L9.31964444,106.515133 L14.9428444,93.7225111 C14.9428444,93.7225111 32.9216222,85.2230222 34.0260667,86.3258889 C35.1289333,87.4287556 18.3350667,97.2614667 18.3350667,97.2614667 L16.1040889,107.720556 L27.8806222,110.735689 L31.2192,122.663689 L41.5362889,120.462689 C41.5362889,120.462689 50.6511111,104.771689 52.4718667,104.771689 C54.2926222,104.773267 45.0752444,123.854911 45.0752444,123.854911 L45.0752444,123.854911 Z M85.0040667,110.666267 C85.0040667,115.702533 83.6487556,120.301756 81.4209333,123.783911 L79.7153556,139 L62.2824889,139 L60.5753333,123.783911 C58.3506667,120.300178 56.9937778,115.702533 56.9937778,110.666267 C56.9937778,103.955978 59.3935778,97.7742444 63.4169111,94.1311556 C63.5873111,93.9765333 63.8271333,93.9276222 64.0448667,94.0002 C64.2626,94.0727778 64.4235333,94.2605333 64.4661333,94.4845778 C64.5844667,95.1204222 64.7927333,95.7389111 65.0862,96.3226889 C65.2061111,96.5625111 65.1619333,96.8544 64.9757556,97.0468889 C61.9906,100.133022 60.2108667,105.224511 60.2108667,110.664689 C60.2108667,113.616711 60.7252222,116.385711 61.6229778,118.783933 C62.6532667,117.4586 64.2594444,116.600289 66.0707333,116.600289 C68.1944222,116.600289 70.0404222,117.775733 71.0012889,119.509711 C71.9621556,117.774156 73.8081556,116.600289 75.9318444,116.600289 C77.7415556,116.600289 79.3477333,117.457022 80.3796,118.783933 C81.2742,116.387289 81.7901333,113.618289 81.7901333,110.664689 C81.7901333,105.222933 80.0088222,100.131444 77.0252444,97.0468889 C76.8374889,96.8528222 76.7933111,96.5625111 76.9148,96.3226889 C77.2082667,95.7389111 77.4133778,95.1204222 77.5332889,94.4845778 C77.5758889,94.2589556 77.7368222,94.0727778 77.9561333,94.0002 C78.1738667,93.9276222 78.4136889,93.9765333 78.5825111,94.1311556 C82.6026889,97.7742444 85.0040667,103.955978 85.0040667,110.666267 L85.0040667,110.666267 Z M77.2240444,29.8588 C77.2240444,33.2620667 74.4660889,36.0200222 71.0628222,36.0200222 C67.6611333,36.0200222 64.9016,33.2620667 64.9016,29.8588 C64.9016,26.4555333 67.6611333,23.6975778 71.0628222,23.6975778 C74.4660889,23.696 77.2240444,26.4555333 77.2240444,29.8588 L77.2240444,29.8588 Z M85.2154889,50.3162667 C85.4127111,51.2298 84.8320889,52.1275556 83.9185556,52.3247778 C83.0050222,52.5204222 82.1072667,51.9382222 81.9100444,51.0262667 L77.7131556,31.4681333 C77.8378,30.9506222 77.9119556,30.4141778 77.9119556,29.8588 C77.9119556,28.2762889 77.3692,26.8231556 76.4682889,25.6619111 L75.9160667,23.0964444 L74.6128222,23.0964444 C73.5714889,22.56 72.3928889,22.2507556 71.1385556,22.2507556 C69.8858,22.2507556 68.7056222,22.56 67.6642889,23.0964444 L66.3610444,23.0964444 L65.8640444,25.4126222 C64.8400667,26.6101556 64.2184222,28.1595333 64.2184222,29.8588 C64.2184222,30.5277778 64.3194,31.1715111 64.4976889,31.7821111 L60.3654889,51.0262667 C60.1682667,51.9398 59.2705111,52.5204222 58.3569778,52.3247778 C57.4450222,52.1275556 56.8628222,51.2298 57.0600444,50.3162667 L63.6314889,19.6979111 C63.6567333,19.5811556 63.6961778,19.4722889 63.7419333,19.3697333 L63.7419333,-3 L78.5336,-3 L78.5336,19.3697333 C78.5793556,19.4738667 78.6203778,19.5827333 78.6440444,19.6979111 L85.2154889,50.3162667 L85.2154889,50.3162667 Z" id="Shape" fill="#000000" sketch:type="MSShapeGroup" mask="url(#mask-2)"></path>
                    </g>
                </g>
            </g>
        </g>
    </g>
</svg>