<?xml version="1.0" encoding="UTF-8" standalone="no"?>
<svg width="139px" height="139px" viewBox="0 0 139 139" version="1.1" xmlns="http://www.w3.org/2000/svg" xmlns:xlink="http://www.w3.org/1999/xlink" xmlns:sketch="http://www.bohemiancoding.com/sketch/ns">
    <!-- Generator: Sketch 3.2.2 (9983) - http://www.bohemiancoding.com/sketch -->
    <title>Attention Picture</title>
    <desc>Created with Sketch.</desc>
    <defs>
        <circle id="path-1" cx="69.5" cy="69.5" r="69.5"></circle>
    </defs>
    <g id="Page-1" stroke="none" stroke-width="1" fill="none" fill-rule="evenodd" sketch:type="MSPage">
        <g id="Motivators" sketch:type="MSLayerGroup" transform="translate(-323.000000, -270.000000)">
            <g id="Content" transform="translate(0.000000, 233.000000)">
                <g id="Attention-description-+-Attention-Picture" transform="translate(35.000000, 27.000000)">
                    <g id="Attention-Picture" transform="translate(288.000000, 10.000000)">
                        <mask id="mask-2" sketch:name="Oval 1" fill="white">
                            <use xlink:href="#path-1"></use>
                        </mask>
                        <use id="Oval-1" fill="#D8D8D8" sketch:type="MSShapeGroup" xlink:href="#path-1"></use>
                        <g id="Attention-Icon" mask="url(#mask-2)">
                            <g transform="translate(13.000000, 17.000000)" id="Group">
                                <g transform="translate(27.951807, 0.000000)">
                                    <path d="M38.7244337,44.1715556 L20.7290602,44.1715556 C19.6095904,44.1715556 18.5697831,44.4581333 17.6851084,44.9596444 L10.8480964,31.6268889 C9.62660241,29.2460889 6.68187952,28.2926667 4.26684337,29.4954667 L3.97474699,29.6401333 C1.56110843,30.8443111 0.593975904,33.7472889 1.81407229,36.1280889 L17.0771566,65.8936 C17.2350843,66.2008444 17.4223614,66.4832889 17.6306024,66.7395556 L19.2615904,77.2437333 L23.6933494,120.770489 C23.6933494,122.680089 25.2670361,123.998622 27.2040964,123.998622 L32.2493976,123.998622 C34.1878554,123.998622 35.7615422,122.680089 35.7615422,120.770489 L40.1946988,77.2437333 L41.9906024,77.2437333 C45.1743133,77.2437333 47.7542651,74.5804889 47.7542651,71.4460444 L44.4866988,49.5862222 C44.4880964,46.4517778 41.9095422,44.1715556 38.7244337,44.1715556 L38.7244337,44.1715556 Z" id="Shape" fill="#000000" sketch:type="MSShapeGroup"></path>
                                    <ellipse id="Oval" fill="#000000" sketch:type="MSShapeGroup" cx="29.7281446" cy="30.8470667" rx="9.65874699" ry="9.52182222"></ellipse>
                                    <path d="M29.7295422,15.2189333 C30.794506,15.2189333 31.6596145,14.3660889 31.6596145,13.3162222 L31.6596145,1.90271111 C31.6596145,0.851466667 30.794506,0 29.7295422,0 C28.6631807,0 27.7994699,0.851466667 27.7994699,1.90271111 L27.7994699,13.3162222 C27.8008675,14.3660889 28.6645783,15.2189333 29.7295422,15.2189333 L29.7295422,15.2189333 Z" id="Shape" fill="#000000" sketch:type="MSShapeGroup"></path>
                                    <path d="M16.4817831,18.4456889 C16.8395663,19.0546667 17.4880482,19.3963556 18.1546988,19.3963556 C18.4817349,19.3963556 18.8143614,19.3136889 19.1176386,19.1400889 C20.0414458,18.6151556 20.3573012,17.4509333 19.8234217,16.5416 L14.0346024,6.65742222 C13.5021205,5.74808889 12.3211566,5.43533333 11.398747,5.96026667 C10.4749398,6.48657778 10.1590843,7.64942222 10.6929639,8.56013333 L16.4817831,18.4456889 L16.4817831,18.4456889 Z" id="Shape" fill="#000000" sketch:type="MSShapeGroup"></path>
                                    <path d="M48.0617349,5.96164444 C47.1393253,5.43671111 45.9583614,5.74946667 45.4258795,6.6588 L39.6370602,16.5429778 C39.1031807,17.4523111 39.4190361,18.6165333 40.3428434,19.1414667 C40.6461205,19.3150667 40.978747,19.3977333 41.3043855,19.3977333 C41.9724337,19.3977333 42.6195181,19.0560444 42.9773012,18.4470667 L48.7675181,8.56288889 C49.3,7.6508 48.9841446,6.48795556 48.0617349,5.96164444 L48.0617349,5.96164444 Z" id="Shape" fill="#000000" sketch:type="MSShapeGroup"></path>
                                </g>
                                <g transform="translate(82.457831, 26.177778)">
                                    <path d="M29.4737831,25.6046222 C29.4737831,22.7953333 27.1621687,20.4365778 24.3138795,20.4365778 L8.19127711,20.4365778 C5.34298795,20.4365778 3.03416867,22.7953333 3.03416867,25.6046222 L0.110409639,51.1899556 C0.110409639,53.9964889 2.42062651,56.2601778 5.26891566,56.2601778 L6.87893976,56.2601778 L10.8453012,89.1546222 C10.8453012,90.8630667 12.2568675,92.0824 13.9926747,92.0824 L18.5068916,92.0824 C20.2440964,92.0824 21.6542651,90.8630667 21.6542651,89.1546222 L25.6262169,56.2601778 L27.2348434,56.2601778 C30.0831325,56.2601778 32.3919518,53.9964889 32.3919518,51.1899556 L29.4737831,25.6046222 L29.4737831,25.6046222 Z" id="Shape" fill="#000000" sketch:type="MSShapeGroup"></path>
                                    <ellipse id="Oval" fill="#000000" sketch:type="MSShapeGroup" cx="16.2539759" cy="9.13604444" rx="8.64968675" ry="8.52706667"></ellipse>
                                </g>
                                <g transform="translate(0.000000, 26.177778)">
                                    <path d="M29.8748916,25.6046222 C29.8748916,22.7953333 27.5632771,20.4365778 24.714988,20.4365778 L8.59238554,20.4365778 C5.74409639,20.4365778 3.43527711,22.7953333 3.43527711,25.6046222 L0.511518072,51.1899556 C0.511518072,53.9964889 2.82173494,56.2601778 5.6700241,56.2601778 L7.28004819,56.2601778 L11.2464096,89.1546222 C11.2464096,90.8630667 12.6579759,92.0824 14.3937831,92.0824 L18.908,92.0824 C20.6452048,92.0824 22.0553735,90.8630667 22.0553735,89.1546222 L26.0273253,56.2601778 L27.6359518,56.2601778 C30.484241,56.2601778 32.7930602,53.9964889 32.7930602,51.1899556 L29.8748916,25.6046222 L29.8748916,25.6046222 Z" id="Shape" fill="#000000" sketch:type="MSShapeGroup"></path>
                                    <ellipse id="Oval" fill="#000000" sketch:type="MSShapeGroup" cx="16.6550843" cy="9.13604444" rx="8.64968675" ry="8.52706667"></ellipse>
                                </g>
                            </g>
                        </g>
                    </g>
                </g>
            </g>
        </g>
    </g>
</svg>