<?xml version="1.0" encoding="UTF-8" standalone="no"?>
<svg width="139px" height="139px" viewBox="0 0 139 139" version="1.1" xmlns="http://www.w3.org/2000/svg" xmlns:xlink="http://www.w3.org/1999/xlink" xmlns:sketch="http://www.bohemiancoding.com/sketch/ns">
    <!-- Generator: Sketch 3.2.2 (9983) - http://www.bohemiancoding.com/sketch -->
    <title>Aspiration Picture</title>
    <desc>Created with Sketch.</desc>
    <defs>
        <circle id="path-1" cx="69.5" cy="69.5" r="69.5"></circle>
    </defs>
    <g id="Page-1" stroke="none" stroke-width="1" fill="none" fill-rule="evenodd" sketch:type="MSPage">
        <g id="Motivators" sketch:type="MSLayerGroup" transform="translate(-589.000000, -483.000000)">
            <g id="Content" transform="translate(0.000000, 233.000000)">
                <g id="Aspiration-+-Aspiration-Picture" transform="translate(589.000000, 240.000000)">
                    <g id="Aspiration-Picture" transform="translate(0.000000, 10.000000)">
                        <mask id="mask-2" sketch:name="Oval 1" fill="white">
                            <use xlink:href="#path-1"></use>
                        </mask>
                        <use id="Oval-1" fill="#D8D8D8" sketch:type="MSShapeGroup" xlink:href="#path-1"></use>
                        <g id="Aspiration-Icon" mask="url(#mask-2)">
                            <g transform="translate(0.000000, 28.000000)" id="Group">
                                <g>
                                    <ellipse id="Oval" fill="#000000" sketch:type="MSShapeGroup" cx="62.4468438" cy="5.54450633" rx="5.28015625" ry="5.27873418"></ellipse>
                                    <path d="M78.5472812,24.7476456 C78.5164375,24.7476456 78.4811875,24.7476456 78.4503437,24.7461772 L72.286,24.4906835 C71.5295937,24.4598481 70.834875,24.0545823 70.4368437,23.4099747 L65.7853125,15.912557 C65.1185,14.8391899 65.4504375,13.4295696 66.5240937,12.7614684 C67.5948125,12.0977722 69.00775,12.4252152 69.6760312,13.5000506 L73.690125,19.9666835 L78.6442187,20.1737215 C79.9029375,20.2265823 80.887,21.2911392 80.8355937,22.5553924 C80.7783125,23.7844051 79.7663437,24.7476456 78.5472812,24.7476456 L78.5472812,24.7476456 Z" id="Shape" fill="#000000" sketch:type="MSShapeGroup"></path>
                                    <path d="M54.6286875,28.8722532 C53.9868438,28.8722532 53.3494063,28.6050127 52.8985,28.0822785 L48.44525,22.9415696 C47.6491875,22.0223797 47.710875,20.6406582 48.58625,19.7963544 L55.5789688,13.0595443 C56.4895938,12.1829367 57.9377813,12.2108354 58.8160938,13.1197468 C59.6929375,14.0301266 59.6665,15.4779241 58.755875,16.3545316 L53.3259063,21.5862785 L56.3574063,25.0868354 C57.1843125,26.0412658 57.0815,27.4875949 56.1253438,28.3142785 C55.6920625,28.6887089 55.1589063,28.8722532 54.6286875,28.8722532 L54.6286875,28.8722532 Z" id="Shape" fill="#000000" sketch:type="MSShapeGroup"></path>
                                    <path d="M57.1666875,12.4193418 L67.5155,12.4193418 L68.1705625,30.5403038 L57.5544375,30.2231392 L57.1666875,12.4193418 Z" id="Shape" fill="#000000" sketch:type="MSShapeGroup"></path>
                                    <path d="M71.6794062,43.1813671 C71.6368125,43.1813671 71.59275,43.1813671 71.5501562,43.1784304 C69.8669687,43.1079494 68.5583125,41.6865823 68.6302812,40.0023797 L68.907875,33.4241519 L64.0389687,30.8883038 C62.54525,30.1086076 61.9650938,28.2672911 62.7435312,26.7725063 C63.5234375,25.2791899 65.36525,24.6991899 66.8589688,25.4759494 L73.4448438,28.9074937 C74.4979375,29.4551899 75.1339062,30.5593924 75.0854375,31.7414177 L74.7270625,40.2578734 C74.6595,41.8994937 73.30825,43.1813671 71.6794062,43.1813671 L71.6794062,43.1813671 Z" id="Shape" fill="#000000" sketch:type="MSShapeGroup"></path>
                                    <path d="M59.8265938,57.283443 C59.6562188,57.283443 59.484375,57.2702278 59.3095938,57.2408608 C57.6484375,56.9574684 56.5307187,55.3819241 56.8141875,53.7212152 L58.7661563,42.269519 L57.4075625,28.5697722 C57.2415938,26.8929114 58.4665313,25.3995949 60.1438438,25.2336709 C61.822625,25.0618734 63.314875,26.2923544 63.4808438,27.9692152 L64.8790938,42.0771646 C64.907,42.3488101 64.8967188,42.6219241 64.8511875,42.8906329 L62.8301875,54.7475949 C62.5760937,56.2335696 61.2865312,57.283443 59.8265938,57.283443 L59.8265938,57.283443 Z" id="Shape" fill="#000000" sketch:type="MSShapeGroup"></path>
                                    <path d="M79.054,40.2754937 C78.2109375,40.2754937 77.5279687,39.5927089 77.5279687,38.7498734 L77.5279687,27.3466329 C77.5279687,26.5052658 78.2109375,25.8210127 79.054,25.8210127 C79.8970625,25.8210127 80.5800313,26.5037975 80.5800313,27.3466329 L80.5800313,38.7498734 C80.5800313,39.5927089 79.8970625,40.2754937 79.054,40.2754937 L79.054,40.2754937 Z" id="Shape" fill="#000000" sketch:type="MSShapeGroup"></path>
                                    <path d="M79.1803125,18.1194937 C78.33725,18.1194937 77.6542812,17.4367089 77.6542812,16.5938734 L77.6542812,5.19063291 C77.6542812,4.34779747 78.33725,3.66501266 79.1803125,3.66501266 C80.023375,3.66501266 80.7063438,4.34779747 80.7063438,5.19063291 L80.7063438,16.5938734 C80.7063438,17.4367089 80.023375,18.1194937 79.1803125,18.1194937 L79.1803125,18.1194937 Z" id="Shape" fill="#000000" sketch:type="MSShapeGroup"></path>
                                    <path d="M97.6175312,5.2684557 C97.6175312,5.2684557 97.30175,5.63260759 95.3233437,6.10835443 C93.3449375,6.58410127 90.1797812,3.43888608 87.40825,3.34344304 C84.6396562,3.248 82.4218437,4.91458228 82.4218437,4.91458228 L82.4218437,17.0622785 C82.4218437,17.0622785 84.6396562,15.3956962 87.40825,15.4911392 C90.1797812,15.5865823 93.3434687,18.7332658 95.3233437,18.2560506 C97.3032187,17.7803038 97.6175312,17.4161519 97.6175312,17.4161519 L97.6175312,5.2684557 L97.6175312,5.2684557 Z" id="Shape" fill="#000000" sketch:type="MSShapeGroup"></path>
                                    <path d="M0.94,115.632911 L20.8591875,80.5318987 L38.5972812,75.7656203 L46.3346562,64.3579747 L54.9870625,66.2374684 L69.7039375,37.9863291 L91.0771875,47.075443 L104.479531,83.8709367 L112.003938,78.5217215 L121.008844,97.5794937 L136.018,106.35438 L140.384594,115.632911 L0.94,115.632911 L0.94,115.632911 Z M64.37825,62.6532152 L72.6194062,60.1746329 L78.537,64.5591392 L82.8565937,59.6019747 L93.7282812,75.6892658 L87.24375,50.6420759 L72.6194062,46.2561013 L66.2670625,59.2216709 L64.37825,62.6532152 L64.37825,62.6532152 Z M114.843031,94.469519 L111.315094,85.1278481 L107.787156,87.6064304 L114.843031,94.469519 L114.843031,94.469519 Z M55.3425,71.0184304 L48.4775625,69.5882532 L45.1405625,75.6892658 L55.3425,71.0184304 L55.3425,71.0184304 Z M20.633,94.469519 L38.7500312,81.9811646 L24.128625,85.1601519 L20.0601875,94.469519 L20.633,94.469519 Z" id="Shape" fill="#000000" sketch:type="MSShapeGroup"></path>
                                </g>
                            </g>
                        </g>
                    </g>
                </g>
            </g>
        </g>
    </g>
</svg>