<?xml version="1.0" encoding="UTF-8" standalone="no"?>
<svg width="139px" height="139px" viewBox="0 0 139 139" version="1.1" xmlns="http://www.w3.org/2000/svg" xmlns:xlink="http://www.w3.org/1999/xlink" xmlns:sketch="http://www.bohemiancoding.com/sketch/ns">
    <!-- Generator: Sketch 3.2.2 (9983) - http://www.bohemiancoding.com/sketch -->
    <title>Self Expression Picture</title>
    <desc>Created with Sketch.</desc>
    <defs>
        <circle id="path-1" cx="69.5" cy="69.5" r="69.5"></circle>
    </defs>
    <g id="Page-1" stroke="none" stroke-width="1" fill="none" fill-rule="evenodd" sketch:type="MSPage">
        <g id="Motivators" sketch:type="MSLayerGroup" transform="translate(-323.000000, -483.000000)">
            <g id="Content" transform="translate(0.000000, 233.000000)">
                <g id="Self-Expression-+-Self-Expression-Picture" transform="translate(35.000000, 240.000000)">
                    <g id="Self-Expression-Picture" transform="translate(288.000000, 10.000000)">
                        <mask id="mask-2" sketch:name="Oval 1" fill="white">
                            <use xlink:href="#path-1"></use>
                        </mask>
                        <use id="Oval-1" fill="#D8D8D8" sketch:type="MSShapeGroup" xlink:href="#path-1"></use>
                        <g id="Self-Expression-Icon" mask="url(#mask-2)">
                            <g transform="translate(15.235000, 2.750000)">
                                <path d="M92.76601,24.597315 L97.71989,0.7859 L93.943505,0 L89.52485,21.22201 L84.469345,20.120395 L83.66854,23.854775 L88.74437,24.95639 L77.415215,79.417905 L71.60091,78.157755 L69.49524,87.886655 L75.388135,89.16442 L66.222915,133.19108 L69.9993,133.9824 L74.854265,110.65472 C76.954515,111.92571 81.50054,113.73328 90.713185,113.73328 C99.948865,113.73328 104.50031,111.905385 106.591075,110.634395 L111.414875,133.97969 L115.21023,133.197855 L92.76601,24.597315 L92.76601,24.597315 Z M104.00167,110.317325 C101.591125,111.287505 97.47599,112.28614 90.713185,112.28614 C83.95038,112.28614 79.82576,111.287505 77.4247,110.317325 C76.3136,109.875595 75.62526,109.47045 75.16727,109.152025 L90.778225,34.10535 L106.287555,109.152025 C105.82821,109.47045 105.1209,109.875595 104.00167,110.317325 L104.00167,110.317325 Z M87.29452,26.052585 L83.339275,25.18674 L72.17001,76.745845 L76.12661,77.583235 L87.29452,26.052585 L87.29452,26.052585 Z" id="Shape" fill="#000000" sketch:type="MSShapeGroup"></path>
                                <g id="Group" stroke-width="1" fill="none" sketch:type="MSLayerGroup" transform="translate(0.000000, 17.615000)">
                                    <path d="M64.434315,24.3629 L60.951965,23.62849 L59.09155,20.152915 L54.954735,22.366985 L48.060495,20.91578 C47.448035,20.803315 46.8559,21.207105 46.74208,21.819565 C46.624195,22.440155 47.02934,23.025515 47.645865,23.1434 L52.11872,23.884585 L41.47384,29.57965 C41.47384,29.57965 21.085155,25.92115 20.020125,25.92115 C16.33317,25.92115 13.188215,28.185355 11.85083,31.38722 L1.849575,49.73392 C1.20053,50.93987 1.15717,52.35178 1.69375,53.61464 C2.239815,54.85582 3.318395,55.778575 4.63681,56.12681 L32.022715,63.312375 L33.44953,57.91812 L32.37095,64.000715 L21.92661,61.46822 C21.79382,62.325935 22.13799,63.540015 23.150175,65.130785 C25.43877,68.70121 29.42247,71.62801 36.52267,71.04536 C43.62829,70.45187 52.952045,61.65521 46.88571,54.48997 C40.816665,47.323375 29.331685,49.320645 28.207035,51.87211 C28.03224,52.277255 28.009205,52.6824 28.047145,53.103805 L12.33863,48.98054 L19.274875,36.093135 L19.30333,36.112105 L13.97818,48.2651 L26.827645,52.691885 C26.84255,52.250155 26.686725,51.808425 26.871005,51.40328 C27.26802,50.67429 28.456355,50.147195 28.456355,49.713595 L28.456355,36.46305 L41.266525,38.578205 C41.5172,38.62021 41.878985,38.643245 42.122885,38.643245 C42.84781,38.643245 43.62016,38.464385 44.269205,38.11615 L63.247335,27.979395 L61.94247,25.51465 L64.149765,25.879145 C66.081995,31.55795 74.011455,26.944175 74.011455,26.944175 C74.011455,26.944175 68.28929,19.75319 64.434315,24.3629 L64.434315,24.3629 Z M32.025425,51.550975 C33.188015,51.40057 34.253045,52.209505 34.412935,53.369385 C34.477975,53.868025 34.318085,54.301625 34.074185,54.6878 L30.236825,53.681035 C30.22734,52.624135 30.96175,51.70138 32.025425,51.550975 L32.025425,51.550975 Z" id="Shape" fill="#000000" sketch:type="MSShapeGroup"></path>
                                    <path d="M37.38445,86.157675 L33.212405,72.220145 C27.727365,71.79603 24.177265,69.01015 22.128505,65.778475 C21.171875,64.26223 20.659685,62.981755 20.6502,61.76632 C20.646135,61.56849 20.564835,61.380145 20.597355,61.17283 L10.84,58.84765 L10.84,63.049505 C10.84,63.727005 11.085255,64.37605 11.22753,65.006125 L13.6313,87.024875 L10.80206,115.945995 L21.86428,117.04761 L24.797855,87.602105 L24.81276,86.53843 L24.32496,81.236315 L26.553935,88.67391 L27.90487,117.885 L39.009095,117.366035 L37.6148,87.49235 L37.38445,86.157675 L37.38445,86.157675 Z" id="Shape" fill="#000000" sketch:type="MSShapeGroup"></path>
                                    <path d="M31.01866,19.17867 C35.16767,15.139415 35.2571,8.499915 31.20294,4.34142 C27.158265,0.207315 20.518765,0.112465 16.37111,4.16256 C12.212615,8.21672 12.13267,14.85622 16.177345,18.99981 C20.220665,23.152885 26.865585,23.236895 31.01866,19.17867 L31.01866,19.17867 Z" id="Shape" fill="#000000" sketch:type="MSShapeGroup"></path>
                                </g>
                            </g>
                        </g>
                    </g>
                </g>
            </g>
        </g>
    </g>
</svg>