<?xml version="1.0" encoding="UTF-8" standalone="no"?>
<svg width="12px" height="17px" viewBox="0 0 12 17" version="1.1" xmlns="http://www.w3.org/2000/svg" xmlns:xlink="http://www.w3.org/1999/xlink" xmlns:sketch="http://www.bohemiancoding.com/sketch/ns">
    <!-- Generator: Sketch 3.2.2 (9983) - http://www.bohemiancoding.com/sketch -->
    <title>Fill-1</title>
    <desc>Created with Sketch.</desc>
    <defs></defs>
    <g id="Page-1" stroke="none" stroke-width="1" fill="none" fill-rule="evenodd" sketch:type="MSPage">
        <g id="strategy" sketch:type="MSLayerGroup" fill="#5F666F">
            <g id="Icons" sketch:type="MSShapeGroup">
                <g id="strategy">
                    <path d="M4,16 C4,16.553 4.447,17 5,17 L7,17 C7.553,17 8,16.553 8,16 L8.5,16 C8.776,16 9,15.776 9,15.5 L9,14.5 C9,14.224 8.776,14 8.5,14 L3.5,14 C3.224,14 3,14.224 3,14.5 L3,15.5 C3,15.776 3.224,16 3.5,16 L4,16 L4,16 Z M0,6 C0,7.539 0.584,8.937 1.537,10 C2.364,10.827 2.74,11.898 2.898,12.51 C2.967,12.777 3.224,13 3.5,13 L8.5,13 C8.776,13 9.033,12.777 9.102,12.51 C9.26,11.898 9.636,10.827 10.463,10 C11.416,8.937 12,7.539 12,6 C12,2.687 9.314,0 6,0 C2.686,0 0,2.687 0,6 L0,6 Z M9.003,8.632 C8.264,9.387 7.792,10.256 7.495,11 L4.505,11 C4.208,10.256 3.736,9.387 2.997,8.632 C2.354,7.898 2,6.966 2,6 C2,3.795 3.795,2 6,2 C8.205,2 10,3.795 10,6 C10,6.966 9.647,7.898 9.003,8.632 L9.003,8.632 L9.003,8.632 Z" id="Fill-1"></path>
                </g>
            </g>
        </g>
    </g>
</svg>