<?xml version="1.0" encoding="UTF-8" standalone="no"?>
<svg width="51px" height="51px" viewBox="0 0 51 51" version="1.1" xmlns="http://www.w3.org/2000/svg" xmlns:xlink="http://www.w3.org/1999/xlink" xmlns:sketch="http://www.bohemiancoding.com/sketch/ns">
    <!-- Generator: Sketch 3.2.2 (9983) - http://www.bohemiancoding.com/sketch -->
    <title>unknown</title>
    <desc>Created with Sketch.</desc>
    <defs></defs>
    <g id="Page-1" stroke="none" stroke-width="1" fill="none" fill-rule="evenodd" sketch:type="MSPage">
        <g id="unknown" sketch:type="MSLayerGroup" fill="#5F666F">
            <g id="Icons" sketch:type="MSShapeGroup">
                <g id="unknown">
                    <path d="M37.2331875,26.6475 C39.81825,23.8138125 41.4375,20.0780625 41.4375,15.9375 C41.4375,7.133625 34.303875,0 25.5,0 C16.696125,0 9.5625,7.133625 9.5625,15.9375 C9.5625,20.0780625 11.18175,23.8138125 13.7668125,26.6475 C5.552625,28.9456875 0.8128125,34.9509375 0,44.625 L0,47.8125 C0,49.5751875 1.428,51 3.1875,51 L47.8125,51 C49.572,51 51,49.5751875 51,47.8125 L51,44.625 C50.1871875,34.9509375 45.447375,28.9456875 37.2331875,26.6475 L37.2331875,26.6475 L37.2331875,26.6475 Z M6.528,44.625 C7.3790625,36.190875 11.685375,33.85125 15.484875,32.786625 C17.614125,32.19375 19.2875625,30.5330625 19.896375,28.407 C20.508375,26.27775 19.9696875,23.9859375 18.4779375,22.3539375 C17.320875,21.082125 15.9375,18.9369375 15.9375,15.9375 C15.9375,10.665375 20.227875,6.375 25.5,6.375 C30.772125,6.375 35.0625,10.665375 35.0625,15.9375 C35.0625,18.9369375 33.679125,21.082125 32.5220625,22.3539375 C31.0303125,23.9859375 30.491625,26.27775 31.103625,28.407 C31.7124375,30.5330625 33.385875,32.19375 35.515125,32.786625 C39.314625,33.85125 43.6209375,36.190875 44.472,44.625 L6.528,44.625 L6.528,44.625 Z" id="Imported-Layers"></path>
                </g>
            </g>
        </g>
    </g>
</svg>